<?xml version="1.0" encoding="UTF-8" standalone="no"?>
<svg width="35px" height="40px" viewBox="0 0 35 40" version="1.1" xmlns="http://www.w3.org/2000/svg" xmlns:xlink="http://www.w3.org/1999/xlink">
    <!-- Generator: Sketch 40.3 (33839) - http://www.bohemiancoding.com/sketch -->
    <title>Back forward Icon </title>
    <desc>Created with Sketch.</desc>
    <defs></defs>
    <g id="Meeting-Page-Concept-1-" stroke="none" stroke-width="1" fill="none" fill-rule="evenodd">
        <g id="Tablet-Portrait" transform="translate(-301.000000, -827.000000)" fill="#553DF2">
            <g id="Scondary-Controlls" transform="translate(108.000000, 806.000000)">
                <g id="Slower-Button" transform="translate(176.225970, 0.000000)">
                    <g id="Back-forward-Icon-" transform="translate(16.310287, 21.098104)">
                        <g id="Group">
                            <g id="Shape">
                                <path d="M20.7984472,0.150150441 C20.6969874,0.161135793 20.6022015,0.206099707 20.5294407,0.27775994 L0.594645868,19.3341118 C0.501870399,19.4200026 0.449117915,19.5407854 0.449117915,19.6673144 C0.449117915,19.7938434 0.501870399,19.9146261 0.594645868,20.0005169 L20.5294407,39.0568688 C20.7134456,39.2273089 21.0003455,39.2169708 21.1716429,39.0337279 C21.3429404,38.8504849 21.334345,38.5631105 21.152403,38.3904636 L1.57156408,19.6744038 L21.152403,0.944165101 C21.3042546,0.813388767 21.3523608,0.59828771 21.2707169,0.415139295 C21.189073,0.231990881 20.9970489,0.124246831 20.7984472,0.150150441 L20.7984472,0.150150441 Z M34.3903527,0.150150441 C34.288893,0.161135793 34.194107,0.206099707 34.1213463,0.27775994 L14.1865514,19.3341118 C14.093776,19.4200026 14.0410235,19.5407854 14.0410235,19.6673144 C14.0410235,19.7938434 14.093776,19.9146261 14.1865514,20.0005169 L34.1213463,39.0568688 C34.3053512,39.2273089 34.5922511,39.2169708 34.7635485,39.0337279 C34.9348459,38.8504849 34.9262506,38.5631105 34.7443086,38.3904636 L15.1634696,19.6744038 L34.7443086,0.944165101 C34.8961601,0.813388767 34.9442663,0.59828771 34.8626224,0.415139295 C34.7809785,0.231990881 34.5889544,0.124246831 34.3903527,0.150150441 L34.3903527,0.150150441 Z"></path>
                            </g>
                        </g>
                    </g>
                </g>
            </g>
        </g>
    </g>
</svg>