<?xml version="1.0" encoding="UTF-8" standalone="no"?>
<svg width="175px" height="152px" viewBox="0 0 175 152" version="1.1" xmlns="http://www.w3.org/2000/svg" xmlns:xlink="http://www.w3.org/1999/xlink">
    <!-- Generator: Sketch 40.3 (33839) - http://www.bohemiancoding.com/sketch -->
    <title>great</title>
    <desc>Created with Sketch.</desc>
    <defs></defs>
    <g id="Dashboard-Page" stroke="none" stroke-width="1" fill="none" fill-rule="evenodd">
        <g id="Desktop-HD" transform="translate(-607.000000, -349.000000)" stroke-width="3" stroke="#624DD6" fill="#624DD6">
            <g id="great" transform="translate(609.000000, 351.000000)">
                <g id="Group">
                    <path d="M51.4547604,87.8609431 C50.7141031,87.8609431 50.2203316,87.4554897 50.2203316,86.8473097 L50.2203316,61.506476 C50.2203316,60.898296 50.7141031,60.4928426 51.4547604,60.4928426 C52.1954177,60.4928426 52.6891893,60.898296 52.6891893,61.506476 L52.6891893,86.8473097 C52.6891893,87.2527631 51.948532,87.8609431 51.4547604,87.8609431 L51.4547604,87.8609431 Z" id="Shape"></path>
                    <path d="M121.282286,87.8609431 C120.541628,87.8609431 120.047857,87.4554897 120.047857,86.8473097 L120.047857,61.506476 C120.047857,60.898296 120.541628,60.4928426 121.282286,60.4928426 C122.022943,60.4928426 122.516714,60.898296 122.516714,61.506476 L122.516714,86.8473097 C122.516714,87.2527631 122.022943,87.8609431 121.282286,87.8609431 L121.282286,87.8609431 Z" id="Shape"></path>
                    <path d="M43.0606443,44.2747091 C42.5668727,44.2747091 42.0731012,43.8692557 41.8262154,43.4638024 C41.8262154,42.8556224 42.0731012,42.450169 42.8137585,42.2474424 L59.6019908,39.8147223 C60.3426481,39.6119956 60.8364197,40.017449 61.0833055,40.625629 C61.0833055,41.233809 60.8364197,41.6392623 60.0957624,41.841989 L43.0606443,44.2747091 L43.0606443,44.2747091 L43.0606443,44.2747091 Z" id="Shape"></path>
                    <path d="M130.801104,44.4774357 L130.554218,44.4774357 L114.012871,41.233809 C113.272214,41.0310823 113.025328,40.625629 113.025328,40.017449 C113.272214,39.409269 113.765986,39.2065423 114.506643,39.2065423 L131.047989,42.450169 C131.788647,42.6528957 132.035532,43.058349 132.035532,43.666529 C131.788647,44.2747091 131.294875,44.4774357 130.801104,44.4774357 L130.801104,44.4774357 Z" id="Shape"></path>
                    <path d="M86.0873476,112.110306 C71.7679729,112.110306 68.8053437,106.433959 68.8053437,106.231232 C68.5584579,105.623052 68.8053437,105.217599 69.546001,105.014872 C70.2866583,104.812145 70.7804298,105.014872 71.0273156,105.623052 C71.0273156,105.623052 73.7430591,110.285766 86.0873476,110.285766 C98.6785218,110.285766 101.14738,105.623052 101.14738,105.623052 C101.394265,105.014872 102.134923,104.812145 102.87558,105.014872 C103.616237,105.217599 103.863123,105.825779 103.616237,106.231232 C103.369351,106.433959 100.406722,112.110306 86.0873476,112.110306 L86.0873476,112.110306 Z" id="Shape"></path>
                    <path d="M85.7585152,147.868037 C55.3551296,147.868037 27.8872433,130.433544 15.7258891,103.470897 C3.98389191,103.26817 0,99.2136366 0,87.2527631 C0,77.7246096 2.72582078,73.2646228 9.43553346,71.8455362 C10.4839261,32.3138355 44.4518465,0.28302169 85.7585152,0.28302169 C127.065184,0.28302169 161.033104,32.3138355 162.081497,71.6428095 C168.79121,73.0618962 171.51703,77.5218829 171.51703,87.0500364 C171.51703,98.8081833 167.533139,102.862717 155.791141,103.26817 C143.629787,130.433544 116.161901,147.868037 85.7585152,147.868037 L85.7585152,147.868037 Z M17.6129958,102.254537 C29.1453145,128.609004 55.9841652,145.840771 85.7585152,145.840771 C115.742544,145.840771 142.581395,128.609004 154.113713,102.05181 C154.323392,101.646357 154.742749,101.240903 155.371784,101.44363 C165.016996,101.44363 169.420245,99.2136366 169.420245,87.2527631 C169.420245,77.1164296 166.275067,74.4809829 161.033104,73.6700762 C160.613747,73.6700762 160.19439,73.2646228 160.19439,72.6564428 C159.355676,33.9356489 126.016791,2.31028839 85.7585152,2.31028839 C45.5002391,2.31028839 12.1613542,33.9356489 11.5323187,72.6564428 C11.5323187,73.0618962 11.1129616,73.4673495 10.6936046,73.6700762 C5.24196303,74.6837095 2.30646374,77.1164296 2.30646374,87.2527631 C2.30646374,99.2136366 6.70971268,101.240903 16.3549247,101.44363 L16.9839602,101.44363 C17.1936388,101.646357 17.4033173,101.849083 17.6129958,102.254537 L17.6129958,102.254537 Z" id="Shape"></path>
                </g>
            </g>
        </g>
    </g>
</svg>