<?xml version="1.0" encoding="UTF-8" standalone="no"?>
<svg width="178px" height="145px" viewBox="0 0 178 145" version="1.1" xmlns="http://www.w3.org/2000/svg" xmlns:xlink="http://www.w3.org/1999/xlink">
    <!-- Generator: Sketch 41.2 (35397) - http://www.bohemiancoding.com/sketch -->
    <title>Yolko Inactive</title>
    <desc>Created with Sketch.</desc>
    <defs></defs>
    <g id="+-Dashboard-+-Questions" stroke="none" stroke-width="1" fill="none" fill-rule="evenodd">
        <g transform="translate(-613.000000, -537.000000)" id="Yolko-Inactive" fill="#624DD6">
            <g transform="translate(615.000000, 526.000000)">
                <path d="M51.0285753,79.5163215 C51.0285753,79.5163215 55.7055489,72.1758527 55.7055489,69.836379 C55.7055489,67.4969053 51.0285753,60.1526016 51.0285753,60.1526016 C51.0285753,59.8334083 50.4861033,58.4898402 51.0285753,58.4898402 C51.1279146,58.4898402 53.0428489,59.6411534 53.5011815,60.1526016 C53.9595141,60.6640498 58.7269087,67.9860384 58.7269087,69.836379 C58.7269087,72.1015196 53.5011815,79.5163215 53.5011815,79.5163215 C53.5011815,79.729117 51.3902233,80.7372662 51.0285753,80.7372662 C50.4861033,80.7372662 51.0285753,79.8355148 51.0285753,79.5163215 Z" id="Shape" stroke="#624DD6" stroke-width="3" transform="translate(54.757193, 69.613553) rotate(-270.000000) translate(-54.757193, -69.613553) "></path>
                <path d="M51.0285753,79.5163215 C51.0285753,79.5163215 55.7055489,72.1758527 55.7055489,69.836379 C55.7055489,67.4969053 51.0285753,60.1526016 51.0285753,60.1526016 C51.0285753,59.8334083 50.4861033,58.4898402 51.0285753,58.4898402 C51.1279146,58.4898402 53.0428489,59.6411534 53.5011815,60.1526016 C53.9595141,60.6640498 58.7269087,67.9860384 58.7269087,69.836379 C58.7269087,72.1015196 53.5011815,79.5163215 53.5011815,79.5163215 C53.5011815,79.729117 51.3902233,80.7372662 51.0285753,80.7372662 C50.4861033,80.7372662 51.0285753,79.8355148 51.0285753,79.5163215 Z" id="Shape" stroke="#624DD6" stroke-width="3" transform="translate(54.757193, 69.613553) rotate(-270.000000) translate(-54.757193, -69.613553) "></path>
                <path d="M98.5141391,79.4451167 C98.5141391,79.4451167 103.191113,72.1046479 103.191113,69.7651742 C103.191113,67.4257005 98.5141391,60.0813968 98.5141391,60.0813968 C98.5141391,59.7622035 97.9716671,58.4186354 98.5141391,58.4186354 C98.6134784,58.4186354 100.528413,59.5699486 100.986745,60.0813968 C101.445078,60.592845 106.212473,67.9148336 106.212473,69.7651742 C106.212473,72.0303148 100.986745,79.4451167 100.986745,79.4451167 C100.986745,79.6579122 98.8757871,80.6660614 98.5141391,80.6660614 C97.9716671,80.6660614 98.5141391,79.76431 98.5141391,79.4451167 Z" id="Shape" stroke="#624DD6" stroke-width="3" transform="translate(102.242756, 69.542348) rotate(-270.000000) translate(-102.242756, -69.542348) "></path>
                <path d="M43.4829582,49.8884043 C43.4829582,49.3087354 43.6741397,48.9222894 44.2476841,48.7290664 C44.2476841,48.7290664 48.4906365,47.1701567 50.5991309,46.7940961 C52.7076254,46.4180356 57.2480238,46.4103907 57.2480238,46.4103907 C57.8215682,46.2171677 58.2039311,46.6036137 58.3951126,47.1832826 C58.3951126,47.7629515 58.2039311,48.1493975 57.6303867,48.3426205 C57.6303867,48.3426205 53.362013,48.3548432 51.2329644,48.7290664 C49.1039158,49.1032896 44.4388655,50.6612962 44.4388655,50.6612962 C44.0565026,50.6612962 43.6741397,50.2748503 43.4829582,49.8884043 Z" id="Shape" stroke="#624DD6" stroke-width="3"></path>
                <path d="M112.37377,51.3839251 C112.37377,51.3839251 108.656226,49.1264109 106.495035,48.6047944 C104.333844,48.0831779 99.5646119,48.2923575 99.5646119,48.2923575 C98.9910675,48.0991345 98.799886,47.7126885 98.799886,47.1330196 C98.9910675,46.5533506 99.3734304,46.3601277 99.9469748,46.3601277 C99.9469748,46.3601277 104.862761,46.2290083 107.019491,46.7495481 C109.176221,47.2700878 112.756133,49.4516953 112.756133,49.4516953 C113.329678,49.6449183 113.520859,50.0313643 113.520859,50.6110332 C113.329678,51.1907021 112.947315,51.3839251 112.564952,51.3839251 L112.37377,51.3839251 Z" id="Shape" stroke="#624DD6" stroke-width="3"></path>
                <path d="M81.9790312,105 C77.4323057,105 55.3049244,96.1293342 55.3049244,96.1293342 C54.73138,96.1293342 56.0250861,94.4938289 56.5986305,94.4938289 C56.5986305,94.4938289 71.7940043,93.0521395 79.4210443,93.0521395 C87.0480844,93.0521395 107.217283,94.4938289 107.217283,94.4938289 C107.67594,94.4938289 107.217283,96.1293342 107.217283,96.1293342 C107.217283,96.1293342 86.4547304,105 81.9790312,105 Z" id="Shape" stroke="#624DD6" stroke-width="3"></path>
                <path d="M78.3844014,153.763146 C50.6630887,153.763146 25.6183166,137.14597 14.5297915,111.447314 C3.82362934,111.254091 0.191181467,107.389631 0.191181467,95.9894753 C0.191181467,86.9079953 2.67654054,82.6570897 8.79434748,81.3045289 C9.75025481,43.626048 40.7216525,13.0968173 78.3844014,13.0968173 C116.04715,13.0968173 147.018548,43.626048 147.974455,81.1113059 C154.092262,82.4638668 156.577621,86.7147723 156.577621,95.7962523 C156.577621,107.003185 152.945174,110.867645 142.239011,111.254091 C131.150486,137.14597 106.105714,153.763146 78.3844014,153.763146 L78.3844014,153.763146 Z M16.2504247,110.287976 C26.7654054,135.406963 51.2366331,151.830916 78.3844014,151.830916 C105.723351,151.830916 130.194579,135.406963 140.70956,110.094753 C140.900741,109.708307 141.283104,109.321861 141.856648,109.515084 C150.650996,109.515084 154.665807,107.389631 154.665807,95.9894753 C154.665807,86.3283263 151.798085,83.8164276 147.018548,83.0435357 C146.636185,83.0435357 146.253822,82.6570897 146.253822,82.0774208 C145.489096,45.1718318 115.091243,15.0290471 78.3844014,15.0290471 C41.6775598,15.0290471 11.2797065,45.1718318 10.7061621,82.0774208 C10.7061621,82.4638668 10.3237992,82.8503127 9.94143628,83.0435357 C4.97071814,84.0096506 2.2941776,86.3283263 2.2941776,95.9894753 C2.2941776,107.389631 6.30898841,109.321861 15.1033359,109.515084 L15.6768803,109.515084 C15.8680618,109.708307 16.0592432,109.90153 16.2504247,110.287976 L16.2504247,110.287976 Z" id="Shape" stroke="#624DD6" stroke-width="3"></path>
                <text id="Z" font-family="Avenir-Black, Avenir" font-size="26" font-weight="700">
                    <tspan x="126" y="26">..z</tspan>
                </text>
                <text id="Z" font-family="Avenir-Black, Avenir" font-size="26" font-weight="700">
                    <tspan x="150.886821" y="32.0641283">z</tspan>
                </text>
                <text id="Z" font-family="Avenir-Black, Avenir" font-size="26" font-weight="700">
                    <tspan x="163.819977" y="38.7866406">z</tspan>
                </text>
            </g>
        </g>
    </g>
</svg>