<?xml version="1.0" encoding="UTF-8" standalone="no"?>
<svg width="161px" height="145px" viewBox="0 0 161 145" version="1.1" xmlns="http://www.w3.org/2000/svg" xmlns:xlink="http://www.w3.org/1999/xlink">
    <!-- Generator: Sketch 40.3 (33839) - http://www.bohemiancoding.com/sketch -->
    <title>tense</title>
    <desc>Created with Sketch.</desc>
    <defs></defs>
    <g id="Dashboard-Page" stroke="none" stroke-width="1" fill="none" fill-rule="evenodd">
        <g id="Desktop-HD" transform="translate(-615.000000, -353.000000)" stroke-width="3" stroke="#624DD6" fill="#624DD6">
            <g id="tense" transform="translate(617.000000, 355.000000)">
                <g id="Group">
                    <path d="M121.969041,71.9372391 L102.96005,71.9372391 C102.38402,71.9372391 102,71.5497913 102,70.9686196 C102,70.3874478 102.38402,70 102.96005,70 L121.969041,70 C122.545071,70 122.929091,70.3874478 122.929091,70.9686196 C122.929091,71.5497913 122.545071,71.9372391 121.969041,71.9372391 L121.969041,71.9372391 Z" id="Shape"></path>
                    <path d="M102.882877,71.9330202 C102.498857,71.9330202 102.306847,71.7392963 102.114837,71.3518485 C101.922827,70.9644007 101.922827,70.383229 102.498857,69.9957811 L119.971767,60.1158617 C120.355787,59.9221378 120.931817,59.9221378 121.315837,60.5033095 C121.507847,60.8907573 121.507847,61.471929 120.931817,61.8593769 L103.458907,71.7392963 C103.266897,71.9330202 103.074887,71.9330202 102.882877,71.9330202 L102.882877,71.9330202 Z" id="Shape"></path>
                    <path d="M120.316277,81.8931574 C120.124267,81.8931574 119.932257,81.8931574 119.932257,81.6994335 L102.459346,71.819514 C102.075326,71.6257901 101.883316,71.0446184 102.075326,70.4634467 C102.267336,70.0759988 102.843366,69.8822749 103.419396,70.0759988 L120.892307,79.9559183 C121.276327,80.1496422 121.468337,80.7308139 121.276327,81.3119857 C120.892307,81.6994335 120.700297,81.8931574 120.316277,81.8931574 L120.316277,81.8931574 Z" id="Shape"></path>
                    <path d="M52.9690405,71.9372391 L33.96005,71.9372391 C33.38402,71.9372391 33,71.5497913 33,70.9686196 C33,70.3874478 33.38402,70 33.96005,70 L52.9690405,70 C53.5450705,70 53.9290905,70.3874478 53.9290905,70.9686196 C53.9290905,71.5497913 53.5450705,71.9372391 52.9690405,71.9372391 L52.9690405,71.9372391 Z" id="Shape"></path>
                    <path d="M35.8828766,80.9330202 C35.4988566,80.9330202 35.3068466,80.7392963 35.1148366,80.3518485 C34.9228266,79.9644007 34.9228266,79.383229 35.4988566,78.9957811 L52.9717671,69.1158617 C53.3557871,68.9221378 53.9318171,68.9221378 54.3158371,69.5033095 C54.5078471,69.8907573 54.5078471,70.471929 53.9318171,70.8593769 L36.4589067,80.7392963 C36.2668966,80.9330202 36.0748866,80.9330202 35.8828766,80.9330202 L35.8828766,80.9330202 Z" id="Shape"></path>
                    <path d="M53.3162769,71.8931574 C53.1242669,71.8931574 52.9322569,71.8931574 52.9322569,71.6994335 L35.4593465,61.819514 C35.0753265,61.6257901 34.8833165,61.0446184 35.0753265,60.4634467 C35.2673365,60.0759988 35.8433665,59.8822749 36.4193965,60.0759988 L53.8923069,69.9559183 C54.2763269,70.1496422 54.4683369,70.7308139 54.2763269,71.3119857 C53.8923069,71.6994335 53.7002969,71.8931574 53.3162769,71.8931574 L53.3162769,71.8931574 Z" id="Shape"></path>
                    <path d="M36.96005,42.261926 C36.57603,42.261926 36.19201,41.8744782 36,41.4870304 C36,40.9058587 36.19201,40.5184108 36.76804,40.3246869 L49.8247203,38 C50.4007504,38 50.7847704,38.1937239 50.9767804,38.7748956 C50.9767804,39.3560674 50.7847704,39.7435152 50.2087404,39.9372391 L36.96005,42.261926 L36.96005,42.261926 L36.96005,42.261926 Z" id="Shape"></path>
                    <path d="M118.82472,42.0368217 L118.63271,42.0368217 L105.76804,38.9372391 C105.19201,38.7435152 105,38.3560674 105,37.7748956 C105.19201,37.1937239 105.57603,37 106.15206,37 L119.01673,40.0995826 C119.59276,40.2933065 119.78477,40.6807543 119.78477,41.261926 C119.59276,41.8430978 119.20874,42.0368217 118.82472,42.0368217 L118.82472,42.0368217 Z" id="Shape"></path>
                    <path d="M78.532092,141.031007 C50.6906413,141.031007 25.5373306,124.370751 14.4007504,98.6054708 C3.64819009,98.4117469 0,94.5372686 0,83.1075579 C0,74.0025341 2.49613006,69.740608 8.64045022,68.3845406 C9.60050024,30.608378 40.706121,0 78.532092,0 C116.358063,0 147.463684,30.608378 148.423734,68.1908167 C154.568054,69.5468841 157.064184,73.8088102 157.064184,82.913834 C157.064184,94.1498208 153.415994,98.0242991 142.663434,98.4117469 C131.526853,124.370751 106.373543,141.031007 78.532092,141.031007 L78.532092,141.031007 Z M16.1288404,97.4431273 C26.6893907,122.627236 51.2666713,139.093768 78.532092,139.093768 C105.989523,139.093768 130.566803,122.627236 141.127354,97.2494034 C141.319364,96.8619556 141.703384,96.6682317 142.279414,96.6682317 C151.111874,96.6682317 155.144084,94.5372686 155.144084,83.1075579 C155.144084,73.4213623 152.263934,70.9029515 147.463684,70.1280558 C147.079664,70.1280558 146.695644,69.740608 146.695644,69.1594363 C145.927604,32.1581693 115.398013,1.93723911 78.532092,1.93723911 C41.6661711,1.93723911 11.1365803,32.1581693 10.5605503,69.1594363 C10.5605503,69.5468841 10.1765303,69.9343319 9.79251025,70.1280558 C4.80025012,71.0966754 2.11211005,73.4213623 2.11211005,83.1075579 C2.11211005,94.5372686 6.14432016,96.4745078 14.9767804,96.6682317 L15.5528104,96.6682317 C15.7448204,96.8619556 15.9368304,97.0556795 16.1288404,97.4431273 L16.1288404,97.4431273 Z" id="Shape"></path>
                    <path d="M90.4173244,98.1991652 C90.4173244,98.1991652 88.3052143,93.7435152 78.7047141,93.7435152 C68.9122038,93.7435152 66.9921038,98.1991652 66.9921038,98.1991652 C66.8000938,98.7803369 66.2240638,98.9740608 65.6480338,98.7803369 C65.0720038,98.586613 64.8799937,98.0054412 65.0720038,97.6179934 C65.0720038,97.4242695 67.3761238,92 78.5127041,92 C89.6492844,92 91.9534044,97.4242695 91.9534044,97.6179934 C92.1454144,98.1991652 91.9534044,98.586613 91.3773744,98.7803369 C90.9933544,98.7803369 90.6093344,98.586613 90.4173244,98.1991652 Z" id="Shape"></path>
                </g>
            </g>
        </g>
    </g>
</svg>