<?xml version="1.0" encoding="UTF-8" standalone="no"?>
<svg width="159px" height="142px" viewBox="0 0 159 142" version="1.1" xmlns="http://www.w3.org/2000/svg" xmlns:xlink="http://www.w3.org/1999/xlink">
    <!-- Generator: Sketch 40.3 (33839) - http://www.bohemiancoding.com/sketch -->
    <title>ok</title>
    <desc>Created with Sketch.</desc>
    <defs></defs>
    <g id="Dashboard-Page" stroke="none" stroke-width="1" fill="none" fill-rule="evenodd">
        <g id="Desktop-HD" transform="translate(-616.000000, -355.000000)" stroke-width="3" stroke="#624DD6" fill="#624DD6">
            <g id="ok" transform="translate(618.000000, 357.000000)">
                <g id="Group">
                    <path d="M43.6646341,79.9357324 C43.097561,79.9357324 42.7195122,79.5586382 42.7195122,78.9929969 L42.7195122,55.424608 C42.7195122,54.8589667 43.097561,54.4818725 43.6646341,54.4818725 C44.2317073,54.4818725 44.6097561,54.8589667 44.6097561,55.424608 L44.6097561,78.9929969 C44.6097561,79.3700911 44.0426829,79.9357324 43.6646341,79.9357324 L43.6646341,79.9357324 Z" id="Shape"></path>
                    <path d="M111.335366,79.9357324 C110.768293,79.9357324 110.390244,79.5586382 110.390244,78.9929969 L110.390244,55.424608 C110.390244,54.8589667 110.768293,54.4818725 111.335366,54.4818725 C111.902439,54.4818725 112.280488,54.8589667 112.280488,55.424608 L112.280488,78.9929969 C112.280488,79.3700911 111.902439,79.9357324 111.335366,79.9357324 L111.335366,79.9357324 Z" id="Shape"></path>
                    <path d="M50.0914634,40.1522921 L37.0487805,40.1522921 C36.4817073,40.1522921 36.1036585,39.7751978 36.1036585,39.2095565 C36.1036585,38.6439152 36.4817073,38.266821 37.0487805,38.266821 L50.0914634,38.266821 C50.6585366,38.266821 51.0365854,38.6439152 51.0365854,39.2095565 C51.0365854,39.7751978 50.6585366,40.1522921 50.0914634,40.1522921 L50.0914634,40.1522921 Z" id="Shape"></path>
                    <path d="M117.95122,40.1522921 L104.908537,40.1522921 C104.341463,40.1522921 103.963415,39.7751978 103.963415,39.2095565 C103.963415,38.6439152 104.341463,38.266821 104.908537,38.266821 L117.95122,38.266821 C118.518293,38.266821 118.896341,38.6439152 118.896341,39.2095565 C118.896341,39.7751978 118.518293,40.1522921 117.95122,40.1522921 L117.95122,40.1522921 Z" id="Shape"></path>
                    <path d="M86.7621951,92.0027475 L68.2378049,92.0027475 C67.6707317,92.0027475 67.2926829,91.6256533 67.2926829,91.0600119 C67.2926829,90.4943706 67.6707317,90.1172764 68.2378049,90.1172764 L86.7621951,90.1172764 C87.3292683,90.1172764 87.7073171,90.4943706 87.7073171,91.0600119 C87.7073171,91.6256533 87.3292683,92.0027475 86.7621951,92.0027475 L86.7621951,92.0027475 Z" id="Shape"></path>
                    <path d="M77.5,137.631148 C50.0914634,137.631148 25.3292683,121.416097 14.3658537,96.339331 C3.7804878,96.1507839 0.18902439,92.3798417 0.18902439,81.2555622 C0.18902439,72.393848 2.64634146,68.2458116 8.69512195,66.9259818 C9.6402439,30.1592952 40.2621951,0.368851725 77.5,0.368851725 C114.737805,0.368851725 145.359756,30.1592952 146.304878,66.7374347 C152.353659,68.0572644 154.810976,72.2053009 154.810976,81.0670151 C154.810976,92.0027475 151.219512,95.7736897 140.634146,96.1507839 C129.670732,121.416097 104.908537,137.631148 77.5,137.631148 L77.5,137.631148 Z M16.0670732,95.2080484 C26.4634146,119.719173 50.6585366,135.745677 77.5,135.745677 C104.530488,135.745677 128.72561,119.719173 139.121951,95.0195013 C139.310976,94.642407 139.689024,94.2653128 140.256098,94.4538599 C148.95122,94.4538599 152.920732,92.3798417 152.920732,81.2555622 C152.920732,71.8282067 150.085366,69.3770942 145.359756,68.6229058 C144.981707,68.6229058 144.603659,68.2458116 144.603659,67.6801702 C143.847561,31.6676721 113.792683,2.25432283 77.5,2.25432283 C41.2073171,2.25432283 11.152439,31.6676721 10.5853659,67.6801702 C10.5853659,68.0572644 10.2073171,68.4343587 9.82926829,68.6229058 C4.91463415,69.5656413 2.26829268,71.8282067 2.26829268,81.2555622 C2.26829268,92.3798417 6.23780488,94.2653128 14.9329268,94.4538599 L15.5,94.4538599 C15.6890244,94.642407 15.8780488,94.8309542 16.0670732,95.2080484 L16.0670732,95.2080484 Z" id="Shape"></path>
                </g>
            </g>
        </g>
    </g>
</svg>