<?xml version="1.0" encoding="UTF-8" standalone="no"?>
<svg width="164px" height="137px" viewBox="0 0 164 137" version="1.1" xmlns="http://www.w3.org/2000/svg" xmlns:xlink="http://www.w3.org/1999/xlink">
    <!-- Generator: Sketch 40.3 (33839) - http://www.bohemiancoding.com/sketch -->
    <title>motivated</title>
    <desc>Created with Sketch.</desc>
    <defs></defs>
    <g id="Dashboard-Page" stroke="none" stroke-width="1" fill="none" fill-rule="evenodd">
        <g id="Desktop-HD" transform="translate(-613.000000, -357.000000)" stroke-width="3" stroke="#624DD6" fill="#624DD6">
            <g id="motivated" transform="translate(615.000000, 359.000000)">
                <g id="Yolko-Avatar">
                    <g id="Group">
                        <path d="M44.9931992,79.2245124 C44.4088719,79.2245124 44.0193204,78.8578115 44.0193204,78.3077601 L44.0193204,55.3889518 C44.0193204,54.8389004 44.4088719,54.4721994 44.9931992,54.4721994 C45.5775265,54.4721994 45.967078,54.8389004 45.967078,55.3889518 L45.967078,78.3077601 C45.967078,78.674461 45.3827507,79.2245124 44.9931992,79.2245124 L44.9931992,79.2245124 Z" id="Shape"></path>
                        <path d="M114.722919,79.2245124 C114.138592,79.2245124 113.74904,78.8578115 113.74904,78.3077601 L113.74904,55.3889518 C113.74904,54.8389004 114.138592,54.4721994 114.722919,54.4721994 C115.307246,54.4721994 115.696798,54.8389004 115.696798,55.3889518 L115.696798,78.3077601 C115.696798,78.674461 115.307246,79.2245124 114.722919,79.2245124 L114.722919,79.2245124 Z" id="Shape"></path>
                        <path d="M38.3708236,39.8041621 C37.981272,39.8041621 37.5917205,39.4374612 37.3969448,39.0707602 C37.3969448,38.5207088 37.5917205,38.1540079 38.1760478,37.9706574 L51.4207991,35.7704518 C52.0051263,35.5871014 52.3946778,35.9538023 52.5894536,36.5038537 C52.5894536,37.0539051 52.3946778,37.420606 51.8103506,37.6039565 L38.3708236,39.8041621 L38.3708236,39.8041621 L38.3708236,39.8041621 Z" id="Shape"></path>
                        <path d="M121.345295,39.9875126 L121.150519,39.9875126 L108.100544,37.0539051 C107.516216,36.8705546 107.32144,36.5038537 107.32144,35.9538023 C107.516216,35.4037509 107.905768,35.2204004 108.490095,35.2204004 L121.540071,38.1540079 C122.124398,38.3373584 122.319174,38.7040593 122.319174,39.2541107 C122.124398,39.8041621 121.734846,39.9875126 121.345295,39.9875126 L121.345295,39.9875126 Z" id="Shape"></path>
                        <path d="M56.4849687,89.675489 C55.9006414,89.675489 55.5110899,89.3087881 55.5110899,88.7587367 C55.5110899,88.2086853 55.9006414,87.8419843 56.4849687,87.8419843 L103.23115,87.8419843 C103.815477,87.8419843 104.205028,88.2086853 104.205028,88.7587367 C104.205028,89.3087881 103.620701,89.675489 103.23115,89.675489 L56.4849687,89.675489 Z" id="Shape"></path>
                        <path d="M79.8580592,111.494195 C59.406605,111.494195 55.5110899,103.793475 55.5110899,88.5753862 C55.5110899,88.0253348 55.9006414,87.6586339 56.4849687,87.6586339 C57.0692959,87.6586339 57.4588475,88.0253348 57.4588475,88.5753862 C57.4588475,103.060073 60.7700353,109.66069 79.8580592,109.66069 C98.9460831,109.66069 102.257271,103.243424 102.257271,88.7587367 C102.257271,88.2086853 102.646822,87.8419843 103.23115,87.8419843 C103.815477,87.8419843 104.205028,88.2086853 104.205028,88.7587367 C104.205028,103.793475 100.309513,111.494195 79.8580592,111.494195 L79.8580592,111.494195 Z" id="Shape"></path>
                        <path d="M79.8580592,133.49625 C51.6155748,133.49625 26.099951,117.72811 14.8029573,93.3424983 C3.89551508,93.1591479 0.194775754,89.4921385 0.194775754,78.674461 C0.194775754,70.0569891 2.72686056,66.0232788 8.95968469,64.7398255 C9.93356346,28.9864846 41.4872356,0.0171108762 79.8580592,0.0171108762 C118.228883,0.0171108762 149.782555,28.9864846 150.756434,64.5564751 C156.989258,65.8399283 159.521343,69.8736386 159.521343,78.4911105 C159.521343,89.1254376 155.820603,92.7924469 144.913161,93.1591479 C133.616167,117.72811 108.100544,133.49625 79.8580592,133.49625 L79.8580592,133.49625 Z M16.5559391,92.2423955 C27.2686056,116.077956 52.1999021,131.662746 79.8580592,131.662746 C107.710992,131.662746 132.642289,116.077956 143.354955,92.0590451 C143.549731,91.6923441 143.939282,91.3256432 144.52361,91.5089937 C153.483294,91.5089937 157.573585,89.4921385 157.573585,78.674461 C157.573585,69.5069377 154.651949,67.1233816 149.782555,66.3899797 C149.393003,66.3899797 149.003452,66.0232788 149.003452,65.4732274 C148.224349,30.4532883 117.255004,1.85061554 79.8580592,1.85061554 C42.4611144,1.85061554 11.4917695,30.4532883 10.9074422,65.4732274 C10.9074422,65.8399283 10.5178907,66.2066293 10.1283392,66.3899797 C5.06416961,67.3067321 2.33730905,69.5069377 2.33730905,78.674461 C2.33730905,89.4921385 6.42759988,91.3256432 15.3872846,91.5089937 L15.9716118,91.5089937 C16.1663876,91.6923441 16.3611633,91.8756946 16.5559391,92.2423955 L16.5559391,92.2423955 Z" id="Shape"></path>
                    </g>
                </g>
            </g>
        </g>
    </g>
</svg>