<?xml version="1.0" encoding="UTF-8" standalone="no"?>
<svg width="184px" height="157px" viewBox="0 0 184 157" version="1.1" xmlns="http://www.w3.org/2000/svg" xmlns:xlink="http://www.w3.org/1999/xlink">
    <!-- Generator: Sketch 40.3 (33839) - http://www.bohemiancoding.com/sketch -->
    <title>notsogood</title>
    <desc>Created with Sketch.</desc>
    <defs></defs>
    <g id="Dashboard-Page" stroke="none" stroke-width="1" fill="none" fill-rule="evenodd">
        <g id="Desktop-HD" transform="translate(-602.000000, -345.000000)" stroke-width="3" stroke="#624DD6" fill="#624DD6">
            <g id="notsogood" transform="translate(604.000000, 347.000000)">
                <g id="Group">
                    <path d="M49.271856,90.5320998 C48.4677833,90.5320998 47.9317348,90.113245 47.9317348,89.4849628 L47.9317348,63.3065367 C47.9317348,62.6782545 48.4677833,62.2593997 49.271856,62.2593997 C50.0759287,62.2593997 50.6119772,62.6782545 50.6119772,63.3065367 L50.6119772,89.4849628 C50.6119772,89.9038176 49.8079045,90.5320998 49.271856,90.5320998 L49.271856,90.5320998 Z" id="Shape"></path>
                    <path d="M130.698852,91.1422427 C129.894779,91.1422427 129.35873,90.7233878 129.35873,90.0951056 L129.35873,63.9166796 C129.35873,63.2883974 129.894779,62.8695425 130.698852,62.8695425 C131.502924,62.8695425 132.038973,63.2883974 132.038973,63.9166796 L132.038973,90.0951056 C132.038973,90.5139604 131.502924,91.1422427 130.698852,91.1422427 L130.698852,91.1422427 Z" id="Shape"></path>
                    <path d="M40.1590319,45.505207 C39.6229835,45.505207 39.086935,45.0863522 38.8189107,44.6674974 C38.8189107,44.0392152 39.086935,43.6203604 39.8910077,43.410933 L58.1166558,40.8978041 C58.9207285,40.6883767 59.456777,41.1072315 59.7248013,41.7355137 C59.7248013,42.3637959 59.456777,42.7826507 58.6527043,42.9920781 L40.1590319,45.505207 L40.1590319,45.505207 L40.1590319,45.505207 Z" id="Shape"></path>
                    <path d="M139.811676,45.7146345 L139.543651,45.7146345 L121.586028,42.3637959 C120.781955,42.1543685 120.513931,41.7355137 120.513931,41.1072315 C120.781955,40.4789492 121.318003,40.2695218 122.122076,40.2695218 L140.0797,43.6203604 C140.883773,43.8297878 141.151797,44.2486426 141.151797,44.8769248 C140.883773,45.505207 140.347724,45.7146345 139.811676,45.7146345 L139.811676,45.7146345 Z" id="Shape"></path>
                    <path d="M106.650608,106.65801 C106.650608,106.65801 103.702341,101.84118 90.3011295,101.84118 C76.6318934,101.84118 73.951651,106.65801 73.951651,106.65801 C73.6836268,107.286292 72.879554,107.49572 72.0754813,107.286292 C71.2714086,107.076865 71.0033844,106.448583 71.2714086,106.029728 C71.2714086,105.820301 74.4876995,99.9563332 90.0331052,99.9563332 C105.578511,99.9563332 108.794802,105.820301 108.794802,106.029728 C109.062826,106.65801 108.794802,107.076865 107.990729,107.286292 C107.454681,107.286292 106.918632,107.076865 106.650608,106.65801 Z" id="Shape"></path>
                    <path d="M90.3013383,152.522613 C58.4431518,152.522613 29.6609281,134.511856 16.9176535,106.65801 C4.61380212,106.448583 0.43928113,102.260035 0.43928113,89.9038176 C0.43928113,80.0607294 3.29553234,75.4533264 10.3263045,73.9873346 C11.4248627,33.14899 47.018147,0.0594594595 90.3013383,0.0594594595 C133.58453,0.0594594595 169.177814,33.14899 170.276372,73.7779072 C177.307144,75.243899 180.163396,79.851302 180.163396,89.6943902 C180.163396,101.84118 175.988875,106.029728 163.685023,106.448583 C150.941749,134.511856 122.159525,152.522613 90.3013383,152.522613 L90.3013383,152.522613 Z M18.8950582,105.401446 C30.9791979,132.627009 59.1022867,150.428339 90.3013383,150.428339 C121.720102,150.428339 149.84319,132.627009 161.92733,105.192018 C162.147042,104.773164 162.586465,104.354309 163.2456,104.563736 C173.352335,104.563736 177.966279,102.260035 177.966279,89.9038176 C177.966279,79.4324472 174.670605,76.7098909 169.177814,75.8721812 C168.738391,75.8721812 168.298967,75.4533264 168.298967,74.8250442 C167.420121,34.8244092 132.485972,2.15373354 90.3013383,2.15373354 C48.1167051,2.15373354 13.1825557,34.8244092 12.5234209,74.8250442 C12.5234209,75.243899 12.0839976,75.6627538 11.6445743,75.8721812 C5.93207191,76.9193183 2.85610907,79.4324472 2.85610907,89.9038176 C2.85610907,102.260035 7.47005333,104.354309 17.5767884,104.563736 L18.2359233,104.563736 C18.4556349,104.773164 18.6753465,104.982591 18.8950582,105.401446 L18.8950582,105.401446 Z" id="Shape"></path>
                </g>
            </g>
        </g>
    </g>
</svg>