<?xml version="1.0" encoding="UTF-8" standalone="no"?>
<svg width="37px" height="42px" viewBox="0 0 37 42" version="1.1" xmlns="http://www.w3.org/2000/svg" xmlns:xlink="http://www.w3.org/1999/xlink">
    <!-- Generator: Sketch 40.3 (33839) - http://www.bohemiancoding.com/sketch -->
    <title>Fast Forward Icon</title>
    <desc>Created with Sketch.</desc>
    <defs></defs>
    <g id="Meeting-Page-Concept-1-" stroke="none" stroke-width="1" fill="none" fill-rule="evenodd" fill-opacity="0.899456522">
        <g id="Tablet-Portrait" transform="translate(-436.000000, -825.000000)" fill="#553DF2">
            <g id="Scondary-Controlls" transform="translate(108.000000, 806.000000)">
                <g id="Faster-Button" transform="translate(305.349073, 0.000000)">
                    <g id="Fast-Forward-Icon" transform="translate(23.106239, 19.736936)">
                        <g id="Group">
                            <g id="Shape">
                                <path d="M0.926275295,0.155328042 C0.731073162,0.156386467 0.556797079,0.277572878 0.488256022,0.459913634 C0.419714964,0.64225439 0.471144375,0.847878739 0.617516863,0.976722518 L20.951465,20.3528315 L0.617516863,39.7142727 C0.428577089,39.8928729 0.419651187,40.1901568 0.597536955,40.3797185 C0.775422722,40.5692802 1.07335727,40.5799747 1.26443929,40.4036574 L21.965957,20.6901899 C22.0623008,20.6013373 22.1170822,20.4763897 22.1170822,20.3454976 C22.1170822,20.2146055 22.0623008,20.0896579 21.965957,20.0008053 L1.26443929,0.287337869 C1.1739645,0.199966991 1.05216156,0.15241851 0.926275295,0.155328042 L0.926275295,0.155328042 Z M15.0409465,0.155328042 C14.8457443,0.156386467 14.6714682,0.277572878 14.6029272,0.459913634 C14.5343861,0.64225439 14.5858155,0.847878739 14.732188,0.976722518 L35.0661362,20.3528315 L14.732188,39.7142727 C14.5432483,39.8928729 14.5343224,40.1901568 14.7122081,40.3797185 C14.8900939,40.5692802 15.1880284,40.5799747 15.3791105,40.4036574 L36.0806282,20.6901899 C36.1769719,20.6013373 36.2317533,20.4763897 36.2317533,20.3454976 C36.2317533,20.2146055 36.1769719,20.0896579 36.0806282,20.0008053 L15.3791105,0.287337869 C15.2886357,0.199966991 15.1668327,0.15241851 15.0409465,0.155328042 L15.0409465,0.155328042 Z"></path>
                            </g>
                        </g>
                    </g>
                </g>
            </g>
        </g>
    </g>
</svg>