<?xml version="1.0" encoding="UTF-8" standalone="no"?>
<svg width="42px" height="47px" viewBox="0 0 42 47" version="1.1" xmlns="http://www.w3.org/2000/svg" xmlns:xlink="http://www.w3.org/1999/xlink">
    <!-- Generator: Sketch 40.3 (33839) - http://www.bohemiancoding.com/sketch -->
    <title>Painic Icon</title>
    <desc>Created with Sketch.</desc>
    <defs></defs>
    <g id="Meeting-Page-Concept-1-" stroke="none" stroke-width="1" fill="none" fill-rule="evenodd">
        <g id="Tablet-Portrait" transform="translate(-610.000000, -824.000000)" fill="#553DF2">
            <g id="Scondary-Controlls" transform="translate(108.000000, 806.000000)">
                <g id="Panic-Button" transform="translate(481.000000, 1.000000)">
                    <g id="Painic-Icon" transform="translate(21.468703, 17.695184)">
                        <g id="Group">
                            <g id="Shape">
                                <path d="M16.4758291,0.192770879 C7.38943593,0.192770879 0,7.59296273 0,16.69257 C0,22.449318 2.96712675,27.5115836 7.44069702,30.4645798 L7.44069702,43.8374009 C7.44069702,45.0076624 8.39804793,45.9664072 9.56661046,45.9664072 L23.3850478,45.9664072 C24.5536103,45.9664072 25.5109612,45.0076624 25.5109612,43.8374009 L25.5109612,37.7830391 C32.6500884,34.5009427 38.2836777,27.4789646 39.2795724,19.3039294 C40.5111152,19.0736007 41.455312,17.9899907 41.455312,16.69257 C41.455312,15.2291017 40.2592619,14.0313121 38.7979202,14.0313121 C37.3365784,14.0313121 36.1405284,15.2291017 36.1405284,16.69257 C36.1405284,17.9493235 37.0253856,19.0126866 38.200007,19.2872965 C37.2332814,26.8308876 32.0670098,33.385296 25.5109612,36.585473 L25.5109612,30.4645798 C29.9845315,27.5115836 32.9516582,22.449318 32.9516582,16.69257 C32.9516582,7.59296273 25.5622223,0.192770879 16.4758291,0.192770879 L16.4758291,0.192770879 Z M16.4758291,1.25727405 C25.0010981,1.25727405 31.8887015,8.15490863 31.8887015,16.69257 C31.8887015,25.2302846 25.0010981,32.127866 16.4758291,32.127866 C7.95055909,32.127866 1.06295672,25.2302846 1.06295672,16.69257 C1.06295672,8.15490863 7.95055909,1.25727405 16.4758291,1.25727405 L16.4758291,1.25727405 Z M16.4758291,11.3534213 C13.5468503,11.3534213 11.1444368,13.7593315 11.1444368,16.69257 C11.1444368,19.6258085 13.5468503,22.0317187 16.4758291,22.0317187 C19.4048079,22.0317187 21.8072214,19.6258085 21.8072214,16.69257 C21.8072214,13.7593315 19.4048079,11.3534213 16.4758291,11.3534213 L16.4758291,11.3534213 Z M16.4758291,12.4511902 C18.8303431,12.4511902 20.7110473,14.3346316 20.7110473,16.69257 C20.7110473,19.0505084 18.8303431,20.9339498 16.4758291,20.9339498 C14.1213146,20.9339498 12.2406109,19.0505084 12.2406109,16.69257 C12.2406109,14.3346316 14.1213146,12.4511902 16.4758291,12.4511902 L16.4758291,12.4511902 Z M38.7979202,15.0958153 C39.6847976,15.0958153 40.3923553,15.8044018 40.3923553,16.69257 C40.3923553,17.5807382 39.6847976,18.2893248 38.7979202,18.2893248 C37.9110428,18.2893248 37.2034851,17.5807382 37.2034851,16.69257 C37.2034851,15.8044018 37.9110428,15.0958153 38.7979202,15.0958153 L38.7979202,15.0958153 Z M8.50365374,31.1298943 C10.8658396,32.4417278 13.5881467,33.1923692 16.4758291,33.1923692 C19.3635115,33.1923692 22.0858186,32.4417278 24.4480045,31.1298943 L24.4480045,43.8374009 C24.4480045,44.4363436 23.9831183,44.901904 23.3850478,44.901904 L9.56661046,44.901904 C8.96853998,44.901904 8.50365374,44.4363436 8.50365374,43.8374009 L8.50365374,31.1298943 L8.50365374,31.1298943 Z"></path>
                            </g>
                        </g>
                    </g>
                </g>
            </g>
        </g>
    </g>
</svg>