<?xml version="1.0" encoding="UTF-8" standalone="no"?>
<svg width="62px" height="62px" viewBox="0 0 62 62" version="1.1" xmlns="http://www.w3.org/2000/svg" xmlns:xlink="http://www.w3.org/1999/xlink">
    <!-- Generator: Sketch 42 (36781) - http://www.bohemiancoding.com/sketch -->
    <title>presentation</title>
    <desc>Created with Sketch.</desc>
    <defs></defs>
    <g id="Landing-Page-Copy" stroke="none" stroke-width="1" fill="none" fill-rule="evenodd">
        <g id="Landing-Page" transform="translate(-551.000000, -930.000000)">
            <g id="presentation" transform="translate(551.000000, 930.000000)">
                <circle id="Oval-2-Copy" fill="#5B00FB" cx="31" cy="31" r="31"></circle>
                <path d="M45.5940175,38.4163282 L44.5394051,38.4163282 L44.5394051,17.6053092 L45.5940175,17.6053092 C45.8752475,17.6053092 46.08617,17.3943867 46.08617,17.1131567 C46.08617,16.8319268 45.8752475,16.6210043 45.5940175,16.6210043 L31.7785945,16.6210043 L31.7785945,15.9179293 C31.7785945,15.6366993 31.567672,15.4257768 31.286442,15.4257768 C31.005212,15.4257768 30.7942895,15.6366993 30.7942895,15.9179293 L30.7942895,16.5506968 L16.9788664,16.5506968 C16.6976364,16.5506968 16.486714,16.7616193 16.486714,17.0428492 C16.486714,17.3240792 16.6976364,17.5350017 16.9788664,17.5350017 L18.0334789,17.5350017 L18.0334789,38.3460207 L16.9788664,38.3460207 C16.6976364,38.3460207 16.486714,38.5569432 16.486714,38.8381732 C16.486714,39.1194032 16.6976364,39.3303257 16.9788664,39.3303257 L27.1382997,39.3303257 L20.3536263,46.1853066 C20.1427038,46.3962291 20.1427038,46.7126128 20.3536263,46.8883816 C20.4590875,46.9938428 20.5997025,47.0289966 20.7051637,47.0289966 C20.8457787,47.0289966 20.95124,46.9938428 21.0567012,46.8883816 L28.5444496,39.4006332 L30.7591358,39.4006332 L30.7591358,45.0955404 C30.7591358,45.3767704 30.9700583,45.5876929 31.2512882,45.5876929 C31.5325182,45.5876929 31.7434407,45.3767704 31.7434407,45.0955404 L31.7434407,39.4357869 L33.9581269,39.4357869 L41.4458752,46.9235353 C41.5513365,47.0289966 41.6919515,47.0641503 41.7974127,47.0641503 C41.9380277,47.0641503 42.043489,47.0289966 42.1489502,46.9235353 C42.3598727,46.7126128 42.3598727,46.3962291 42.1489502,46.2204603 L35.469738,39.4357869 L45.6291713,39.4357869 C45.9104013,39.4357869 46.1213238,39.2248644 46.1213238,38.9436344 C46.1213238,38.6272507 45.8752475,38.4163282 45.5940175,38.4163282 Z M43.5551001,38.4163282 L19.0177838,38.4163282 L19.0177838,17.6053092 L43.5551001,17.6053092 L43.5551001,38.4163282 L43.5551001,38.4163282 Z" id="Shape" fill="#FFFFFF" fill-rule="nonzero"></path>
                <path d="M30.1966758,23.6517539 L21.5840075,23.6517539 C21.3027775,23.6517539 21.091855,23.8626764 21.091855,24.1439064 L21.091855,31.3855786 C21.091855,31.6668085 21.3027775,31.877731 21.5840075,31.877731 L30.2318295,31.877731 C30.5130595,31.877731 30.723982,31.6668085 30.723982,31.3855786 L30.723982,24.1439064 C30.723982,23.8626764 30.4779058,23.6517539 30.1966758,23.6517539 Z M29.7045233,30.8934261 L22.0761599,30.8934261 L22.0761599,30.7528111 L23.6229249,29.2060462 L24.3611536,29.9442749 C24.5720761,30.1551974 24.8884598,30.1551974 25.0642285,29.9442749 L27.7359134,27.27259 L29.7045233,29.2411999 L29.7045233,30.8934261 L29.7045233,30.8934261 Z M29.7045233,27.83505 L28.0874509,26.2179776 C27.8765284,26.0070551 27.5601447,26.0070551 27.3843759,26.2179776 L24.7126911,28.8896624 L23.9744623,28.1514337 C23.7635399,27.9405112 23.4471561,27.9405112 23.2713874,28.1514337 L22.1113137,29.3115074 L22.1113137,24.6712126 L29.7396771,24.6712126 L29.7396771,27.83505 L29.7045233,27.83505 Z" id="Shape" fill="#FFFFFF" fill-rule="nonzero"></path>
                <path d="M24.1150773,27.7647425 C23.3768486,27.7647425 22.7792349,27.1671288 22.7792349,26.4289 C22.7792349,25.6906713 23.3768486,25.0930576 24.1150773,25.0930576 C24.853306,25.0930576 25.4509198,25.6906713 25.4509198,26.4289 C25.415766,27.1671288 24.8181523,27.7647425 24.1150773,27.7647425 Z M24.1150773,26.1125163 C23.9393086,26.1125163 23.7986936,26.2531313 23.7986936,26.4289 C23.7986936,26.6046688 23.9393086,26.7452838 24.1150773,26.7452838 C24.2908461,26.7452838 24.4314611,26.6046688 24.4314611,26.4289 C24.4314611,26.2531313 24.2908461,26.1125163 24.1150773,26.1125163 Z" id="Shape" fill="#FFFFFF" fill-rule="nonzero"></path>
                <path d="M40.9888765,25.8664401 L32.7980532,25.8664401 C32.5168232,25.8664401 32.3059007,25.6555176 32.3059007,25.3742876 C32.3059007,25.0930576 32.5168232,24.8821351 32.7980532,24.8821351 L40.9888765,24.8821351 C41.2701065,24.8821351 41.481029,25.0930576 41.481029,25.3742876 C41.5161827,25.6203638 41.2701065,25.8664401 40.9888765,25.8664401 Z" id="Shape" fill="#FFFFFF" fill-rule="nonzero"></path>
                <path d="M40.9888765,28.0108187 L32.7980532,28.0108187 C32.5168232,28.0108187 32.3059007,27.7998962 32.3059007,27.5186662 C32.3059007,27.2374363 32.5168232,27.0265138 32.7980532,27.0265138 L40.9888765,27.0265138 C41.2701065,27.0265138 41.481029,27.2374363 41.481029,27.5186662 C41.5161827,27.7998962 41.2701065,28.0108187 40.9888765,28.0108187 Z" id="Shape" fill="#FFFFFF" fill-rule="nonzero"></path>
                <path d="M38.7038829,30.2255049 L32.7980532,30.2255049 C32.5168232,30.2255049 32.3059007,30.0145824 32.3059007,29.7333524 C32.3059007,29.4521224 32.5168232,29.2411999 32.7980532,29.2411999 L38.7038829,29.2411999 C38.9851129,29.2411999 39.1960354,29.4521224 39.1960354,29.7333524 C39.1960354,30.0145824 38.9851129,30.2255049 38.7038829,30.2255049 Z" id="Shape" fill="#FFFFFF" fill-rule="nonzero"></path>
            </g>
        </g>
    </g>
</svg>