<?xml version="1.0" encoding="UTF-8" standalone="no"?>
<svg width="62px" height="62px" viewBox="0 0 62 62" version="1.1" xmlns="http://www.w3.org/2000/svg" xmlns:xlink="http://www.w3.org/1999/xlink">
    <!-- Generator: Sketch 42 (36781) - http://www.bohemiancoding.com/sketch -->
    <title>speedometer</title>
    <desc>Created with Sketch.</desc>
    <defs></defs>
    <g id="Landing-Page-Copy" stroke="none" stroke-width="1" fill="none" fill-rule="evenodd">
        <g id="Landing-Page" transform="translate(-110.000000, -920.000000)">
            <g id="speedometer" transform="translate(110.000000, 920.000000)">
                <g id="Group">
                    <circle id="Oval-2" fill="#5B00FB" cx="31" cy="31" r="31"></circle>
                    <path d="M45.0956908,42.0499143 L40.862104,39.6091887 C40.4923507,39.3961825 40.366033,38.9241721 40.5786854,38.5551264 C40.7916916,38.1853731 41.263702,38.0597632 41.6327477,38.2717079 L44.5773285,39.9697424 C45.9229474,37.6379967 46.6306092,34.9938184 46.6306092,32.2788738 C46.6306092,23.7802092 39.7163995,16.8659995 31.2173811,16.8659995 C25.9113328,16.8659995 21.0433272,19.5437918 18.1967575,24.02966 C16.6321172,26.4937385 15.8048606,29.3459694 15.8048606,32.2788738 C15.8048606,34.9920492 16.5118147,37.6369352 17.856726,39.9697424 L20.9396547,38.4610074 C21.3232074,38.2738309 21.7849567,38.4319933 21.9714256,38.8148383 C22.1593098,39.1976834 22.0004398,39.6594327 21.6183024,39.8466092 L17.2831661,41.9681794 L16.9127051,41.3875429 C15.1789337,38.6662293 14.2610963,35.5160728 14.2610963,32.27852 C14.2610963,29.0526436 15.1718571,25.9141634 16.8939521,23.2020495 C20.0253556,18.2685852 25.3805864,15.322589 31.2173811,15.322589 C40.5677166,15.322589 48.1736658,22.9292459 48.1736658,32.27852 C48.1736658,35.5369488 47.246275,38.7019663 45.4930429,41.4310641 L45.0956908,42.0499143 Z" id="Shape" fill="#FFFFFF" fill-rule="nonzero"></path>
                    <path d="M41.2168707,26.406592 C40.944067,26.406592 40.6779862,26.2608137 40.538223,26.0028709 C40.335124,25.6285178 40.4731181,25.1603995 40.8485327,24.9569468 L44.0843163,23.2005301 C44.4590233,22.9974312 44.9274954,23.1354252 45.131302,23.5101322 C45.3336933,23.8848391 45.1949916,24.3529574 44.8209923,24.5564102 L41.5841472,26.3128268 C41.4670291,26.3765164 41.3410653,26.406592 41.2168707,26.406592 Z" id="Shape" fill="#FFFFFF" fill-rule="nonzero"></path>
                    <path d="M30.9548385,21.1293081 C30.5284723,21.1293081 30.1834872,20.7839691 30.1834872,20.3579567 L30.1834872,16.0939404 C30.1834872,15.667928 30.5284723,15.322589 30.9548385,15.322589 C31.3812048,15.322589 31.7268976,15.667928 31.7268976,16.0939404 L31.7268976,20.3579567 C31.7268976,20.7839691 31.3812048,21.1293081 30.9548385,21.1293081 Z" id="Shape" fill="#FFFFFF" fill-rule="nonzero"></path>
                    <path d="M20.9039085,26.4034967 C20.764853,26.4034967 20.6247359,26.3663445 20.4984183,26.2874402 L17.1023492,24.1800233 C16.7410879,23.9556945 16.6289235,23.479792 16.8543138,23.1181768 C17.0789964,22.7558539 17.5545451,22.6443972 17.9165141,22.8690798 L21.3118755,24.9764967 C21.6731369,25.2011793 21.786009,25.6770819 21.5606187,26.0390509 C21.4141327,26.2739946 21.1618512,26.4034967 20.9039085,26.4034967 Z" id="Shape" fill="#FFFFFF" fill-rule="nonzero"></path>
                    <circle id="Oval-2-Copy" fill="#5B00FB" cx="31" cy="31" r="27"></circle>
                    <path d="M45.0956908,42.0499143 L40.862104,39.6091887 C40.4923507,39.3961825 40.366033,38.9241721 40.5786854,38.5551264 C40.7916916,38.1853731 41.263702,38.0597632 41.6327477,38.2717079 L44.5773285,39.9697424 C45.9229474,37.6379967 46.6306092,34.9938184 46.6306092,32.2788738 C46.6306092,23.7802092 39.7163995,16.8659995 31.2173811,16.8659995 C25.9113328,16.8659995 21.0433272,19.5437918 18.1967575,24.02966 C16.6321172,26.4937385 15.8048606,29.3459694 15.8048606,32.2788738 C15.8048606,34.9920492 16.5118147,37.6369352 17.856726,39.9697424 L20.9396547,38.4610074 C21.3232074,38.2738309 21.7849567,38.4319933 21.9714256,38.8148383 C22.1593098,39.1976834 22.0004398,39.6594327 21.6183024,39.8466092 L17.2831661,41.9681794 L16.9127051,41.3875429 C15.1789337,38.6662293 14.2610963,35.5160728 14.2610963,32.27852 C14.2610963,29.0526436 15.1718571,25.9141634 16.8939521,23.2020495 C20.0253556,18.2685852 25.3805864,15.322589 31.2173811,15.322589 C40.5677166,15.322589 48.1736658,22.9292459 48.1736658,32.27852 C48.1736658,35.5369488 47.246275,38.7019663 45.4930429,41.4310641 L45.0956908,42.0499143 Z" id="Shape-Copy-7" fill="#FFFFFF" fill-rule="nonzero"></path>
                    <path d="M41.2168707,26.406592 C40.944067,26.406592 40.6779862,26.2608137 40.538223,26.0028709 C40.335124,25.6285178 40.4731181,25.1603995 40.8485327,24.9569468 L44.0843163,23.2005301 C44.4590233,22.9974312 44.9274954,23.1354252 45.131302,23.5101322 C45.3336933,23.8848391 45.1949916,24.3529574 44.8209923,24.5564102 L41.5841472,26.3128268 C41.4670291,26.3765164 41.3410653,26.406592 41.2168707,26.406592 Z" id="Shape-Copy-6" fill="#FFFFFF" fill-rule="nonzero"></path>
                    <path d="M30.9548385,21.1293081 C30.5284723,21.1293081 30.1834872,20.7839691 30.1834872,20.3579567 L30.1834872,16.0939404 C30.1834872,15.667928 30.5284723,15.322589 30.9548385,15.322589 C31.3812048,15.322589 31.7268976,15.667928 31.7268976,16.0939404 L31.7268976,20.3579567 C31.7268976,20.7839691 31.3812048,21.1293081 30.9548385,21.1293081 Z" id="Shape-Copy-5" fill="#FFFFFF" fill-rule="nonzero"></path>
                    <path d="M20.9039085,26.4034967 C20.764853,26.4034967 20.6247359,26.3663445 20.4984183,26.2874402 L17.1023492,24.1800233 C16.7410879,23.9556945 16.6289235,23.479792 16.8543138,23.1181768 C17.0789964,22.7558539 17.5545451,22.6443972 17.9165141,22.8690798 L21.3118755,24.9764967 C21.6731369,25.2011793 21.786009,25.6770819 21.5606187,26.0390509 C21.4141327,26.2739946 21.1618512,26.4034967 20.9039085,26.4034967 Z" id="Shape-Copy-4" fill="#FFFFFF" fill-rule="nonzero"></path>
                </g>
                <path d="M36.7045908,42.3418248 L26.3557444,42.3418248 C25.9300858,42.3418248 25.5836854,41.996132 25.5836854,41.5697658 C25.5836854,41.1433995 25.9300858,40.7984144 26.3557444,40.7984144 L36.7045908,40.7984144 C37.130957,40.7984144 37.4759422,41.1433995 37.4759422,41.5697658 C37.4759422,41.996132 37.130957,42.3418248 36.7045908,42.3418248 Z" id="Shape" fill="#FFFFFF" fill-rule="nonzero"></path>
                <path d="M31.0790332,28.4143326 C29.4121358,28.4143326 28.0605017,29.7656129 28.0605017,31.4325103 C28.0605017,33.1001153 29.4121358,34.4517494 31.0790332,34.4517494 C32.7466383,34.4517494 34.0982723,33.1001153 34.0982723,31.4325103 C34.0982723,29.7659667 32.7466383,28.4143326 31.0790332,28.4143326 Z M31.0790332,32.9978582 C30.2153319,32.9978582 29.5143929,32.2976268 29.5143929,31.4325103 C29.5143929,30.568809 30.2149781,29.8671623 31.0790332,29.8671623 C31.9448574,29.8671623 32.6450888,30.5684552 32.6450888,31.4325103 C32.6450888,32.2979807 31.9448574,32.9978582 31.0790332,32.9978582 Z" id="Shape" fill="#FFFFFF" fill-rule="nonzero"></path>
                <path d="M36.7045908,42.3418248 L26.3557444,42.3418248 C25.9300858,42.3418248 25.5836854,41.996132 25.5836854,41.5697658 C25.5836854,41.1433995 25.9300858,40.7984144 26.3557444,40.7984144 L36.7045908,40.7984144 C37.130957,40.7984144 37.4759422,41.1433995 37.4759422,41.5697658 C37.4759422,41.996132 37.130957,42.3418248 36.7045908,42.3418248 Z" id="Shape-Copy-3" fill="#FFFFFF" fill-rule="nonzero"></path>
                <path d="M31.0790332,28.4143326 C29.4121358,28.4143326 28.0605017,29.7656129 28.0605017,31.4325103 C28.0605017,33.1001153 29.4121358,34.4517494 31.0790332,34.4517494 C32.7466383,34.4517494 34.0982723,33.1001153 34.0982723,31.4325103 C34.0982723,29.7659667 32.7466383,28.4143326 31.0790332,28.4143326 Z M31.0790332,32.9978582 C30.2153319,32.9978582 29.5143929,32.2976268 29.5143929,31.4325103 C29.5143929,30.568809 30.2149781,29.8671623 31.0790332,29.8671623 C31.9448574,29.8671623 32.6450888,30.5684552 32.6450888,31.4325103 C32.6450888,32.2979807 31.9448574,32.9978582 31.0790332,32.9978582 Z" id="Shape-Copy-2" fill="#FFFFFF" fill-rule="nonzero"></path>
                <g id="Group" transform="translate(29.776316, 29.184211)" fill-rule="nonzero" fill="#FFFFFF">
                    <path d="M0.767371237,0.999276636 C0.320836632,1.00423027 0.0533404655,1.00953773 0.0533404655,1.00953773 L0.085892909,1.59194341 C0.25007045,1.33329301 0.485721835,1.12665576 0.767371237,0.999276636 Z" id="Shape"></path>
                    <path d="M0.767371237,0.999276636 C0.320836632,1.00423027 0.0533404655,1.00953773 0.0533404655,1.00953773 L0.085892909,1.59194341 C0.25007045,1.33329301 0.485721835,1.12665576 0.767371237,0.999276636 Z" id="Shape-Copy"></path>
                    <path d="M1.89503034,1.00053694 C2.4498372,1.24184962 2.8390512,1.79311818 2.8390512,2.4367366 C2.8390512,3.30185317 2.138466,4.00208453 1.2729956,4.00208453 C0.776924672,4.00208453 0.339943501,3.76643315 0.0533404655,3.40623328 L0.109953411,4.42845078 C0.109953411,4.42845078 13.147207,3.28946908 13.0753794,1.99657095 C13.0240739,1.07165696 5.55364192,0.986737538 1.89503034,1.00053694 Z" id="Shape"></path>
                </g>
            </g>
        </g>
    </g>
</svg>