<?xml version="1.0" encoding="UTF-8" standalone="no"?>
<svg width="42px" height="42px" viewBox="0 0 42 42" version="1.1" xmlns="http://www.w3.org/2000/svg" xmlns:xlink="http://www.w3.org/1999/xlink">
    <!-- Generator: Sketch 40.3 (33839) - http://www.bohemiancoding.com/sketch -->
    <title>Group</title>
    <desc>Created with Sketch.</desc>
    <defs></defs>
    <g id="Meeting-Page-Concept-1-" stroke="none" stroke-width="1" fill="none" fill-rule="evenodd">
        <g id="Tablet-Portrait" transform="translate(-126.000000, -827.000000)" fill="#553CF2">
            <g id="Scondary-Controlls" transform="translate(108.000000, 806.000000)">
                <g id="Cant-Hear-Button" transform="translate(0.575042, 1.000000)">
                    <g id="Cant-Hear-Icon" transform="translate(18.349073, 20.417520)">
                        <g id="Group">
                            <g id="Shape">
                                <path d="M0,14.2924854 L0,26.5044192 L11.7877198,26.5044192 L25.2916594,40.7064459 L25.2916594,0 L11.7877198,14.2924854 L0,14.2924854 L0,14.2924854 Z M12.8716481,15.2423025 L23.9367491,3.43743321 L23.9367491,37.2237833 L12.8716481,25.4641434 L12.3748476,25.1475377 L11.7877198,25.1475377 L1.35491032,25.1475377 L1.35491032,15.649367 L11.7877198,15.649367 L12.3748476,15.649367 L12.8716481,15.2423025 L12.8716481,15.2423025 Z"></path>
                                <polygon points="40.6473097 19.4486353 36.5825788 19.4486353 36.5825788 15.3779907 35.2276684 15.3779907 35.2276684 19.4486353 31.1629375 19.4486353 31.1629375 20.8055168 35.2276684 20.8055168 35.2276684 24.8761614 36.5825788 24.8761614 36.5825788 20.8055168 40.6473097 20.8055168"></polygon>
                            </g>
                        </g>
                    </g>
                </g>
            </g>
        </g>
    </g>
</svg>