<?xml version="1.0" encoding="UTF-8" standalone="no"?>
<svg width="62px" height="62px" viewBox="0 0 62 62" version="1.1" xmlns="http://www.w3.org/2000/svg" xmlns:xlink="http://www.w3.org/1999/xlink">
    <!-- Generator: Sketch 42 (36781) - http://www.bohemiancoding.com/sketch -->
    <title>watch</title>
    <desc>Created with Sketch.</desc>
    <defs></defs>
    <g id="Landing-Page-Copy" stroke="none" stroke-width="1" fill="none" fill-rule="evenodd">
        <g id="Landing-Page" transform="translate(-963.000000, -930.000000)">
            <g id="watch" transform="translate(963.000000, 930.000000)">
                <g id="Group">
                    <circle id="Oval-2" fill="#5B00FB" cx="31" cy="31" r="31"></circle>
                    <path d="M43.0515197,23.7946295 L42.1344072,24.7216389 C45.0597291,28.6198765 45.6181892,33.8060569 43.5898501,38.2377163 C41.561511,42.6693757 37.2713894,45.6363947 32.409056,45.9702777 C32.1055511,45.9900715 31.8042456,45.9999684 31.5051393,45.9999684 C27.7403499,46.0081838 24.149943,44.4139136 21.6313346,41.6156428 C21.3388384,41.276236 21.3708203,40.7653911 21.7033644,40.4651155 C22.0359085,40.1648398 22.5473568,40.1849862 22.855251,40.5104893 C27.1184649,45.2298846 34.3784539,45.6589719 39.1679064,41.4746166 C43.9573589,37.2902613 44.5067958,30.0383874 40.4024501,25.1801951 C40.1238105,24.8524212 40.1439181,24.3655283 40.4486357,24.0618457 L41.8869848,22.6234966 C42.0956359,22.3927531 42.0867468,22.0389428 41.866772,21.818968 C41.6467971,21.5989931 41.2929868,21.5901041 41.0622433,21.7987552 L39.5678118,23.2931867 C39.2772969,23.5835972 38.8173563,23.6159478 38.48905,23.3690629 C36.8339219,22.1277437 34.8772891,21.3510129 32.8214267,21.1191682 C32.4035452,21.0737725 32.0866615,20.7213638 32.0857573,20.3010247 L32.0857573,17.6420583 C32.0822207,17.4210459 32.167549,17.2078636 32.322603,17.0503288 C32.477657,16.8927939 32.6894581,16.8040926 32.9104988,16.8041209 L33.6659619,16.8041209 C33.9884504,16.8041209 34.2498789,16.5426924 34.2498789,16.220204 C34.2498789,15.8977156 33.9884504,15.636287 33.6659619,15.636287 L29.3377188,15.636287 C29.0152304,15.636287 28.7538018,15.8977156 28.7538018,16.220204 C28.7538018,16.5426924 29.0152304,16.8041209 29.3377188,16.8041209 L30.093182,16.8041209 C30.5486741,16.8041209 30.9179234,17.1733703 30.9179234,17.6288624 L30.9179234,20.3010247 C30.9172072,20.7202357 30.6021271,21.0722171 30.185553,21.1191682 C27.5193638,21.4244524 25.039969,22.6396821 23.1653538,24.5599896 C22.9585082,24.7709602 22.6548236,24.8555544 22.3686949,24.7819062 C22.0825662,24.7082581 21.8574632,24.4875565 21.77818,24.2029377 C21.6988968,23.9183189 21.7774785,23.6130232 21.984324,23.4020526 C23.9494674,21.3939372 26.4988421,20.0580556 29.2684405,19.5851491 L29.2684405,18.4536039 C28.1049608,18.3476067 27.2197709,17.3628344 27.2379422,16.1946776 C27.2561136,15.0265208 28.1715051,14.0697574 29.3377188,14 L33.6659619,14 C34.8321756,14.0697574 35.7475672,15.0265208 35.7657385,16.1946776 C35.7839098,17.3628344 34.89872,18.3476067 33.7352402,18.4536039 L33.7352402,19.5719533 C35.5791155,19.884025 37.3362496,20.582157 38.8915238,21.620611 L39.8812135,20.6309213 C40.7530255,19.7581984 42.1672504,19.7574599 43.0399733,20.6292718 C43.9126962,21.5010837 43.9134347,22.9153087 43.0416228,23.7880316 L43.0515197,23.7946295 Z M16,28.472563 C16,28.9280552 16.3692493,29.2973045 16.8247415,29.2973045 L22.5517461,29.2973045 C23.0072382,29.2973045 23.3764876,28.9280552 23.3764876,28.472563 C23.3764876,28.0170709 23.0072382,27.6478216 22.5517461,27.6478216 L16.8280404,27.6478216 C16.3738335,27.6478179 16.0051158,28.0150608 16.003299,28.4692641 L16,28.472563 Z M25.3756608,32.4709096 C25.3756608,32.0154175 25.0064115,31.6461681 24.5509194,31.6461681 L18.8272137,31.6461681 C18.3717216,31.6461681 18.0024722,32.0154175 18.0024722,32.4709096 C18.0024722,32.9264017 18.3717216,33.2956511 18.8272137,33.2956511 L24.5509194,33.2956511 C24.7696544,33.2956511 24.9794306,33.2087589 25.1340997,33.0540899 C25.2887687,32.8994208 25.3756608,32.6896446 25.3756608,32.4709096 L25.3756608,32.4709096 Z M16.8280404,37.2972966 L22.5517461,37.2972966 C23.0072382,37.2972966 23.3764876,36.9280473 23.3764876,36.4725551 C23.3764876,36.017063 23.0072382,35.6478137 22.5517461,35.6478137 L16.8280404,35.6478137 C16.3725483,35.6478137 16.003299,36.017063 16.003299,36.4725551 C16.003299,36.9280473 16.3725483,37.2972966 16.8280404,37.2972966 Z M36.077506,29.2874076 L33.9628689,31.4020447 C34.60502,32.6216129 34.2594978,34.1273967 33.1498903,34.9450005 C32.0402828,35.7626043 30.4997298,35.6465572 29.5251261,34.6719535 C28.5505224,33.6973498 28.4344753,32.1567968 29.2520791,31.0471893 C30.0696829,29.9375818 31.5754667,29.5920596 32.795035,30.2342108 L34.9096721,28.1195737 C35.1182855,27.9109603 35.4223462,27.8294874 35.7073174,27.9058453 C35.9922887,27.9822031 36.2148766,28.204791 36.2912344,28.4897622 C36.3675922,28.7747334 36.2861194,29.0787942 36.077506,29.2874076 L36.077506,29.2874076 Z M32.6333856,32.6985382 C32.6333856,32.073603 32.1267756,31.566993 31.5018404,31.566993 C30.8769052,31.566993 30.3702951,32.073603 30.3702951,32.6985382 C30.3702951,33.3234734 30.8769052,33.8300835 31.5018404,33.8300835 C32.1260235,33.8282717 32.6315738,33.3227214 32.6333856,32.6985382 L32.6333856,32.6985382 Z M31.5018404,42.5129615 C35.9475114,42.5199763 39.8430778,39.5387639 40.9979848,35.2457195 C42.1528917,30.9526751 40.2788753,26.4193401 36.4297322,24.1948991 C32.5805891,21.970458 27.7170632,22.6101302 24.5740122,25.7542152 C24.2515237,26.0767036 24.2515237,26.5995607 24.5740122,26.9220491 C24.8965006,27.2445375 25.4193576,27.2445375 25.7418461,26.9220491 C28.0777851,24.582098 31.593609,23.8804048 34.6488251,25.1443814 C37.7040413,26.408358 39.6964903,29.3888844 39.6964903,32.6952393 C39.6964903,36.0015942 37.7040413,38.9821206 34.6488251,40.2460972 C31.593609,41.5100738 28.0777851,40.8083806 25.7418461,38.4684294 C25.4193576,38.145941 24.8965006,38.145941 24.5740122,38.4684295 C24.2515237,38.7909179 24.2515237,39.3137749 24.5740122,39.6362633 C26.4098431,41.4768092 28.9022476,42.5117504 31.5018404,42.5129615 L31.5018404,42.5129615 Z" id="Shape" fill="#FFFFFF" fill-rule="nonzero"></path>
                </g>
            </g>
        </g>
    </g>
</svg>