<svg xmlns="http://www.w3.org/2000/svg" xmlns:xlink="http://www.w3.org/1999/xlink" width="105" height="105" viewBox="0 0 105 105">
  <defs>
    <circle id="fine-footer-a" cx="47.5" cy="47.5" r="47.5"/>
  </defs>
  <g fill="none" fill-rule="evenodd" transform="translate(5 5)">
    <mask id="fine-footer-b" fill="#fff">
      <use xlink:href="#fine-footer-a"/>
    </mask>
    <circle cx="47.5" cy="47.5" r="50" stroke="#000" stroke-width="5"/>
    <circle cx="47.378" cy="44.936" r="50.797" fill="#F7A605" mask="url(#fine-footer-b)"/>
    <path fill="#FFC614" d="M47.377892,90.1156812 C19.3235304,90.1156812 -3.41902314,69.9425988 -3.41902314,45.0578406 C-3.41902314,20.1730824 19.3235304,0 47.377892,0 C75.4322536,0 98.1748072,20.1730824 98.1748072,45.0578406 C98.1748072,69.9425988 75.4322536,90.1156812 47.377892,90.1156812 Z" mask="url(#fine-footer-b)"/>
    <path fill="#000" fill-rule="nonzero" d="M31.0954135 40.2862183C31.1165086 40.2696263 31.1621176 40.234254 31.2294723 40.1828366 31.3448665 40.0947469 31.4765974 39.9959753 31.6218509 39.8892791 32.0370037 39.5843278 32.4739336 39.279497 32.9087124 38.9974147 33.189925 38.8149653 33.4606442 38.6484094 33.7163672 38.5014837 34.0890208 38.2873755 34.4196722 38.1209537 34.6901307 38.0118757 34.8140502 37.9618981 34.9188939 37.9266229 34.9994189 37.9062755 35.122069 37.8935722 35.2081082 37.89043 35.3115509 37.8845676 35.3467718 37.8825715 35.3824901 37.880354 35.4296584 37.8772912 35.4862608 37.8735852 35.5172292 37.8715558 35.541235 37.8700162 36.5765638 37.8036148 37.1911255 37.9470008 37.9752801 38.6690185 38.3213027 38.9876221 38.6614909 39.5885483 38.9421861 40.3883375 39.146265 40.9698227 39.3042707 41.6090318 39.4184635 42.2505348 39.4586671 42.476387 39.4902789 42.6851836 39.5141071 42.8704829 39.5276857 42.9760763 39.5353096 43.0461321 39.5378933 43.0743598 39.623952 44.0145667 40.4559045 44.7069906 41.3961113 44.620932 42.3363182 44.5348734 43.0287421 43.7029208 42.9426835 42.762714 42.9208154 42.5238012 42.8712115 42.1380575 42.7845718 41.6513399 42.6404036 40.8414435 42.4396387 40.0292532 42.1682914 39.256099 41.7185833 37.9747387 41.1194955 36.9164787 40.2911863 36.1538052 38.6979976 34.6868618 37.2007563 34.3375341 35.3224036 34.4580033 35.0706525 34.4741495 35.0636023 34.474549 35.0348005 34.474549 34.1462814 34.474549 33.1930002 34.8590145 32.0130852 35.5369349 31.7006632 35.716437 31.3781538 35.9148561 31.0478147 36.1291785 30.5525375 36.4505119 30.0627811 36.7921979 29.5977823 37.1337636 29.3175919 37.3395779 29.1052839 37.5016498 28.9817073 37.5988468 28.2396102 38.1825307 28.1111908 39.2572885 28.6948747 39.9993856 29.2785585 40.7414828 30.3533164 40.8699021 31.0954135 40.2862183zM57.8720609 43.0743598C57.8746446 43.0461321 57.8822686 42.9760763 57.8958472 42.8704829 57.9196753 42.6851836 57.9512872 42.476387 57.9914907 42.2505348 58.1056835 41.6090318 58.2636893 40.9698227 58.4677681 40.3883375 58.7484633 39.5885483 59.0886515 38.9876221 59.4346742 38.6690185 60.2188287 37.9470008 60.8333905 37.8036148 61.8687193 37.8700162 61.892725 37.8715558 61.9236934 37.8735852 61.9802958 37.8772912 62.0274641 37.880354 62.0631825 37.8825715 62.0984033 37.8845676 62.2018461 37.89043 62.2878853 37.8935722 62.3751537 37.8935722 62.4910603 37.9266229 62.595904 37.9618981 62.7198236 38.0118757 62.990282 38.1209537 63.3209335 38.2873755 63.6935871 38.5014837 63.94931 38.6484094 64.2200292 38.8149653 64.5012419 38.9974147 64.9360206 39.279497 65.3729505 39.5843278 65.7881034 39.8892791 65.9333569 39.9959753 66.0650878 40.0947469 66.1804819 40.1828366 66.2478367 40.234254 66.2934457 40.2696263 66.3145407 40.2862183 67.0566379 40.8699021 68.1313957 40.7414828 68.7150796 39.9993856 69.2987634 39.2572885 69.1703441 38.1825307 68.4282469 37.5988468 68.3046703 37.5016498 68.0923623 37.3395779 67.8121719 37.1337636 67.3471732 36.7921979 66.8574167 36.4505119 66.3621395 36.1291785 66.0318004 35.9148561 65.709291 35.716437 65.3968691 35.5369349 64.216954 34.8590145 63.2636728 34.474549 62.3751537 34.474549 62.346352 34.474549 62.3393017 34.4741495 62.0875507 34.4580033 60.2091979 34.3375341 58.7119566 34.6868618 57.118768 36.1538052 56.2904587 36.9164787 55.6913709 37.9747387 55.2416629 39.256099 54.9703156 40.0292532 54.7695506 40.8414435 54.6253825 41.6513399 54.5387427 42.1380575 54.4891388 42.5238012 54.4672707 42.762714 54.3812121 43.7029208 55.0736361 44.5348734 56.0138429 44.620932 56.9540497 44.7069906 57.7860023 44.0145667 57.8720609 43.0743598z" mask="url(#fine-footer-b)"/>
    <path fill="#FFE67D" d="M17.9778185,26.0089495 C19.7082955,27.5132303 23.012048,26.5459282 25.3569562,23.8484199 C27.7018644,21.1509116 28.1999593,17.7446885 26.4694823,16.2404078 C24.7390052,14.7361271 21.4352527,15.7034291 19.0903445,18.4009375 C16.7454363,21.0984458 16.2473415,24.5046688 17.9778185,26.0089495 Z" mask="url(#fine-footer-b)"/>
    <path fill="#000" fill-rule="nonzero" d="M28.3962949,64.0489815 C28.464604,64.1460523 28.5804704,64.2992613 28.7447826,64.5005427 C29.0044644,64.8186511 29.3142092,65.1683923 29.674945,65.5416313 C30.6900092,66.591878 31.9189884,67.6362725 33.3691844,68.6081918 C37.4865163,71.3676221 42.5591972,73.0205656 48.5989717,73.0205656 C54.6387463,73.0205656 59.7114271,71.3676221 63.8287591,68.6081918 C65.278955,67.6362725 66.5079342,66.591878 67.5229985,65.5416313 C67.8837342,65.1683923 68.1934791,64.8186511 68.4531608,64.5005427 C68.6174731,64.2992613 68.7333394,64.1460523 68.8016485,64.0489815 C69.3449932,63.27686 69.159533,62.210464 68.3874116,61.6671193 C67.6152902,61.1237746 66.5488942,61.3092348 66.0055494,62.0813562 C65.983192,62.1131273 65.9163613,62.201497 65.8045821,62.3384257 C65.6041115,62.5840009 65.3575817,62.8623642 65.0645568,63.1655455 C64.2117333,64.0479281 63.1665132,64.936163 61.9252871,65.768031 C58.3528419,68.1622789 53.9359186,69.6015424 48.5989717,69.6015424 C43.2620249,69.6015424 38.8451016,68.1622789 35.2726563,65.768031 C34.0314303,64.936163 32.9862102,64.0479281 32.1333867,63.1655455 C31.8403617,62.8623642 31.593832,62.5840009 31.3933614,62.3384257 C31.2815822,62.201497 31.2147515,62.1131273 31.192394,62.0813562 C30.6490493,61.3092348 29.5826533,61.1237746 28.8105318,61.6671193 C28.0384104,62.210464 27.8529502,63.27686 28.3962949,64.0489815 Z" mask="url(#fine-footer-b)"/>
    <circle cx="14.897" cy="52.018" r="4.64" fill="#FBB52C" mask="url(#fine-footer-b)"/>
    <circle cx="77.172" cy="52.018" r="4.64" fill="#FAB52C" mask="url(#fine-footer-b)"/>
  </g>
</svg>
