<svg xmlns="http://www.w3.org/2000/svg" xmlns:xlink="http://www.w3.org/1999/xlink" width="417" height="417" viewBox="0 0 417 417">
  <defs>
    <circle id="fine-a" cx="194.5" cy="194.5" r="194.5"/>
  </defs>
  <g fill="none" fill-rule="evenodd" transform="translate(14 14)">
    <mask id="fine-b" fill="#fff">
      <use xlink:href="#fine-a"/>
    </mask>
    <circle cx="194.5" cy="194.5" r="201.5" stroke="#000" stroke-width="14"/>
    <circle cx="194" cy="184" r="208" fill="#F7A605" mask="url(#fine-b)"/>
    <path fill="#FFC614" d="M194,369 C79.124772,369 -14,286.396536 -14,184.5 C-14,82.6034637 79.124772,0 194,0 C308.875228,0 402,82.6034637 402,184.5 C402,286.396536 308.875228,369 194,369 Z" mask="url(#fine-b)"/>
    <path fill="#000" fill-rule="nonzero" d="M127.327535 164.961462C127.413914 164.893522 127.600671 164.748682 127.876471 164.538142 128.34898 164.177437 128.888383 163.772993 129.483158 163.336101 131.183099 162.087406 132.972212 160.839204 134.752517 159.684151 135.904009 158.937068 137.012533 158.255066 138.059651 157.653444 139.585569 156.776727 140.9395 156.095273 142.046956 155.648628 142.554374 155.443983 142.983682 155.29954 143.31341 155.216223 143.81563 155.164206 144.167938 155.151339 144.591508 155.127335 144.735729 155.119161 144.881986 155.110081 145.075128 155.09754 145.3069 155.082365 145.433707 155.074055 145.532004 155.067751 149.771403 154.795854 152.287872 155.382982 155.498778 158.339455 156.91565 159.644053 158.308631 162.104687 159.458004 165.379614 160.293653 167.760642 160.940645 170.378035 161.408235 173.004821 161.572858 173.929627 161.7023 174.784594 161.79987 175.543346 161.855471 175.975723 161.886689 176.262583 161.897269 176.378168 162.249656 180.228068 165.656283 183.063362 169.506182 182.710974 173.356082 182.358587 176.191376 178.95196 175.838988 175.10206 175.749444 174.123776 175.546329 172.544256 175.191562 170.551276 174.601232 167.234964 173.779152 163.909258 172.668056 160.743395 170.82662 155.496562 168.373513 151.163266 164.981805 148.040318 158.458117 142.033571 152.327307 140.603166 144.635947 141.096456 143.605093 141.16257 143.576224 141.164206 143.458288 141.164206 139.820036 141.164206 135.916601 142.738491 131.085159 145.514397 129.805874 146.24941 128.485282 147.061884 127.132631 147.939478 125.104601 149.255254 123.099177 150.654368 121.19513 152.05299 120.047824 152.895745 119.178478 153.559387 118.672465 153.957383 115.633772 156.347415 115.107929 160.748266 117.497961 163.786958 119.887992 166.825651 124.288843 167.351494 127.327535 164.961462zM236.97086 176.378168C236.98144 176.262583 237.012658 175.975723 237.068258 175.543346 237.165828 174.784594 237.295271 173.929627 237.459893 173.004821 237.927483 170.378035 238.574475 167.760642 239.410124 165.379614 240.559497 162.104687 241.952478 159.644053 243.36935 158.339455 246.580257 155.382982 249.096725 154.795854 253.336124 155.067751 253.434421 155.074055 253.561229 155.082365 253.793001 155.09754 253.986143 155.110081 254.1324 155.119161 254.27662 155.127335 254.700191 155.151339 255.052499 155.164206 255.40984 155.164206 255.884447 155.29954 256.313754 155.443983 256.821172 155.648628 257.928628 156.095273 259.282559 156.776727 260.808478 157.653444 261.855596 158.255066 262.96412 158.937068 264.115611 159.684151 265.895916 160.839204 267.685029 162.087406 269.384971 163.336101 269.979746 163.772993 270.519149 164.177437 270.991658 164.538142 271.267458 164.748682 271.454214 164.893522 271.540593 164.961462 274.579286 167.351494 278.980136 166.825651 281.370168 163.786958 283.7602 160.748266 283.234356 156.347415 280.195664 153.957383 279.68965 153.559387 278.820305 152.895745 277.672999 152.05299 275.768951 150.654368 273.763527 149.255254 271.735498 147.939478 270.382846 147.061884 269.062255 146.24941 267.782969 145.514397 262.951528 142.738491 259.048092 141.164206 255.40984 141.164206 255.291904 141.164206 255.263035 141.16257 254.232181 141.096456 246.540821 140.603166 240.410012 142.033571 233.886324 148.040318 230.494615 151.163266 228.041508 155.496562 226.200072 160.743395 225.088976 163.909258 224.266897 167.234964 223.676566 170.551276 223.321799 172.544256 223.118684 174.123776 223.02914 175.10206 222.676753 178.95196 225.512047 182.358587 229.361946 182.710974 233.211846 183.063362 236.618472 180.228068 236.97086 176.378168z" mask="url(#fine-b)"/>
    <path fill="#FFE67D" d="M73.6144357,106.499804 C80.7002838,112.659438 94.2282809,108.69859 103.830063,97.6530035 C113.431845,86.6074168 115.471412,72.6598299 108.385564,66.5001961 C101.299716,60.3405624 87.7717191,64.3014098 78.1699371,75.3469965 C68.5681551,86.3925832 66.5285877,100.34017 73.6144357,106.499804 Z" mask="url(#fine-b)"/>
    <path fill="#000" fill-rule="nonzero" d="M116.275355,262.263724 C116.555063,262.661204 117.029505,263.288554 117.70232,264.112749 C118.765649,265.415319 120.033972,266.847417 121.511091,268.375732 C125.667512,272.676216 130.699858,276.952737 136.638029,280.932491 C153.49742,292.231632 174.268713,299 199,299 C223.731287,299 244.50258,292.231632 261.361971,280.932491 C267.300142,276.952737 272.332488,272.676216 276.488909,268.375732 C277.966028,266.847417 279.234351,265.415319 280.29768,264.112749 C280.970495,263.288554 281.444937,262.661204 281.724645,262.263724 C283.949499,259.10209 283.190088,254.735479 280.028454,252.510625 C276.86682,250.285772 272.500209,251.045182 270.275355,254.206816 C270.183807,254.336911 269.910153,254.698761 269.452447,255.259448 C268.631572,256.265014 267.622098,257.404839 266.422238,258.646286 C262.93015,262.259411 258.650249,265.896499 253.567755,269.302779 C238.939531,279.106595 220.853393,285 199,285 C177.146607,285 159.060469,279.106595 144.432245,269.302779 C139.349751,265.896499 135.06985,262.259411 131.577762,258.646286 C130.377902,257.404839 129.368428,256.265014 128.547553,255.259448 C128.089847,254.698761 127.816193,254.336911 127.724645,254.206816 C125.499791,251.045182 121.13318,250.285772 117.971546,252.510625 C114.809912,254.735479 114.050501,259.10209 116.275355,262.263724 Z" mask="url(#fine-b)"/>
    <circle cx="61" cy="213" r="19" fill="#FBB52C" mask="url(#fine-b)"/>
    <circle cx="316" cy="213" r="19" fill="#FAB52C" mask="url(#fine-b)"/>
  </g>
</svg>
