<?xml version="1.0" encoding="UTF-8" standalone="no"?>
<svg width="585px" height="511px" viewBox="0 0 585 511" version="1.1" xmlns="http://www.w3.org/2000/svg" xmlns:xlink="http://www.w3.org/1999/xlink">
    <!-- Generator: Sketch 40.3 (33839) - http://www.bohemiancoding.com/sketch -->
    <title>great-full</title>
    <desc>Created with Sketch.</desc>
    <defs></defs>
    <g id="Meeting-Page-Concept-1-" stroke="none" stroke-width="1" fill="none" fill-rule="evenodd">
        <g id="Desktop-HD" transform="translate(-420.000000, -224.000000)" stroke-width="5" stroke="#FFFFFF" fill="#FFFFFF">
            <g id="Full-Avatar" transform="translate(419.000000, 224.000000)">
                <g id="great-full" transform="translate(4.000000, 2.000000)">
                    <g id="Group">
                        <path d="M173.698823,300.723056 C171.198543,300.723056 169.53169,299.334142 169.53169,297.250772 L169.53169,210.443685 C169.53169,208.360314 171.198543,206.971401 173.698823,206.971401 C176.199103,206.971401 177.865956,208.360314 177.865956,210.443685 L177.865956,297.250772 C177.865956,298.639686 175.365676,300.723056 173.698823,300.723056 L173.698823,300.723056 Z" id="Shape"></path>
                        <path d="M409.419655,300.723056 C406.919375,300.723056 405.252521,299.334142 405.252521,297.250772 L405.252521,210.443685 C405.252521,208.360314 406.919375,206.971401 409.419655,206.971401 C411.919934,206.971401 413.586788,208.360314 413.586788,210.443685 L413.586788,297.250772 C413.586788,298.639686 411.919934,300.723056 409.419655,300.723056 L409.419655,300.723056 Z" id="Shape"></path>
                        <path d="M145.362317,151.414865 C143.695464,151.414865 142.028611,150.025951 141.195184,148.637038 C141.195184,146.553668 142.028611,145.164755 144.528891,144.470298 L201.201902,136.136817 C203.702182,135.442361 205.369035,136.831274 206.202461,138.914644 C206.202461,140.998014 205.369035,142.386928 202.868755,143.081384 L145.362317,151.414865 L145.362317,151.414865 L145.362317,151.414865 Z" id="Shape"></path>
                        <path d="M441.552881,152.109322 L440.719455,152.109322 L384.87987,140.998014 C382.379591,140.303558 381.546164,138.914644 381.546164,136.831274 C382.379591,134.747904 384.046444,134.053447 386.546724,134.053447 L442.386308,145.164755 C444.886588,145.859211 445.720014,147.248125 445.720014,149.331495 C444.886588,151.414865 443.219734,152.109322 441.552881,152.109322 L441.552881,152.109322 Z" id="Shape"></path>
                        <path d="M290.610058,383.79122 C242.271314,383.79122 232.270194,364.346432 232.270194,363.651975 C231.436768,361.568605 232.270194,360.179692 234.770474,359.485235 C237.270754,358.790778 238.937607,359.485235 239.771034,361.568605 C239.771034,361.568605 248.938727,377.541109 290.610058,377.541109 C333.114816,377.541109 341.449083,361.568605 341.449083,361.568605 C342.282509,359.485235 344.782789,358.790778 347.283069,359.485235 C349.783349,360.179692 350.616776,362.263062 349.783349,363.651975 C348.949922,364.346432 338.948803,383.79122 290.610058,383.79122 L290.610058,383.79122 Z" id="Shape"></path>
                        <path d="M289.5,506.282239 C186.865526,506.282239 94.1405868,446.558963 53.0867971,354.196222 C13.4486553,353.501765 0,339.612631 0,298.639686 C0,266.000221 9.20171149,250.722173 31.8520782,245.860976 C35.391198,110.441919 150.05868,0.717760618 289.5,0.717760618 C428.94132,0.717760618 543.608802,110.441919 547.147922,245.16652 C569.798289,250.027716 579,265.305764 579,297.945229 C579,338.223718 565.551345,352.112852 525.913203,353.501765 C484.859413,446.558963 392.134474,506.282239 289.5,506.282239 L289.5,506.282239 Z M59.4572127,350.029482 C98.3875306,440.308853 188.988998,499.337672 289.5,499.337672 C390.718826,499.337672 481.320293,440.308853 520.250611,349.335025 C520.958435,347.946111 522.374083,346.557198 524.497555,347.251655 C557.057457,347.251655 571.92176,339.612631 571.92176,298.639686 C571.92176,263.916851 561.304401,254.888913 543.608802,252.111087 C542.193154,252.111087 540.777506,250.722173 540.777506,248.638803 C537.94621,115.997573 425.4022,7.66232763 289.5,7.66232763 C153.5978,7.66232763 41.0537897,115.997573 38.9303178,248.638803 C38.9303178,250.027716 37.5146699,251.41663 36.099022,252.111087 C17.695599,255.58337 7.78606357,263.916851 7.78606357,298.639686 C7.78606357,339.612631 22.6503667,346.557198 55.2102689,347.251655 L57.3337408,347.251655 C58.0415648,347.946111 58.7493888,348.640568 59.4572127,350.029482 L59.4572127,350.029482 Z" id="Shape"></path>
                    </g>
                </g>
            </g>
        </g>
    </g>
</svg>