<?xml version="1.0" encoding="UTF-8" standalone="no"?>
<svg width="475px" height="363px" viewBox="0 0 475 363" version="1.1" xmlns="http://www.w3.org/2000/svg" xmlns:xlink="http://www.w3.org/1999/xlink">
    <!-- Generator: Sketch 40.3 (33839) - http://www.bohemiancoding.com/sketch -->
    <title>great-icon</title>
    <desc>Created with Sketch.</desc>
    <defs></defs>
    <g id="Meeting-Page-Concept-1-" stroke="none" stroke-width="1" fill="none" fill-rule="evenodd">
        <g id="Desktop-HD" transform="translate(-511.000000, -248.000000)" fill="#FFFFFF">
            <g id="great-icon" transform="translate(289.000000, 55.000000)">
                <g id="Group">
                    <path d="M270.031707,434.959459 C266.278049,434.959459 263.77561,432.945946 263.77561,429.925676 L263.77561,304.081081 C263.77561,301.060811 266.278049,299.047297 270.031707,299.047297 C273.785366,299.047297 276.287805,301.060811 276.287805,304.081081 L276.287805,429.925676 C276.287805,431.939189 272.534146,434.959459 270.031707,434.959459 L270.031707,434.959459 Z" id="Shape"></path>
                    <path d="M641.918293,434.959459 C638.164634,434.959459 635.662195,432.945946 635.662195,429.925676 L635.662195,304.081081 C635.662195,301.060811 638.164634,299.047297 641.918293,299.047297 C645.671951,299.047297 648.17439,301.060811 648.17439,304.081081 L648.17439,429.925676 C648.17439,431.939189 645.671951,434.959459 641.918293,434.959459 L641.918293,434.959459 Z" id="Shape"></path>
                    <path d="M228.490244,217.506757 C225.987805,217.506757 223.485366,215.493243 222.234146,213.47973 C222.234146,210.459459 223.485366,208.445946 227.239024,207.439189 L312.321951,195.358108 C316.07561,194.351351 318.578049,196.364865 319.829268,199.385135 C319.829268,202.405405 318.578049,204.418919 314.82439,205.425676 L228.490244,217.506757 L228.490244,217.506757 L228.490244,217.506757 Z" id="Shape"></path>
                    <path d="M690.159756,219.513514 L688.908537,219.513514 L605.076829,203.405405 C601.323171,202.398649 600.071951,200.385135 600.071951,197.364865 C601.323171,194.344595 603.82561,193.337838 607.579268,193.337838 L691.410976,209.445946 C695.164634,210.452703 696.415854,212.466216 696.415854,215.486486 C695.164634,218.506757 692.662195,219.513514 690.159756,219.513514 L690.159756,219.513514 Z" id="Shape"></path>
                    <path d="M456.55,555.383721 C383.979268,555.383721 368.964634,527.194532 368.964634,526.187775 C367.713415,523.167505 368.964634,521.153991 372.718293,520.147234 C376.471951,519.140478 378.97439,520.147234 380.22561,523.167505 C380.22561,523.167505 393.989024,546.32291 456.55,546.32291 C520.362195,546.32291 532.87439,523.167505 532.87439,523.167505 C534.12561,520.147234 537.879268,519.140478 541.632927,520.147234 C545.386585,521.153991 546.637805,524.174261 545.386585,526.187775 C544.135366,527.194532 529.120732,555.383721 456.55,555.383721 L456.55,555.383721 Z" id="Shape"></path>
                </g>
            </g>
        </g>
    </g>
</svg>