<svg xmlns="http://www.w3.org/2000/svg" xmlns:xlink="http://www.w3.org/1999/xlink" width="160" height="160" viewBox="0 0 160 160">
  <defs>
    <circle id="kissing-footer-a" cx="72" cy="72" r="72"/>
  </defs>
  <g fill="none" fill-rule="evenodd" transform="translate(8 8)">
    <mask id="kissing-footer-b" fill="#fff">
      <use xlink:href="#kissing-footer-a"/>
    </mask>
    <circle cx="72" cy="72" r="76" stroke="#000" stroke-width="8"/>
    <circle cx="71.815" cy="106.982" r="76.997" fill="#F7A605" mask="url(#kissing-footer-b)"/>
    <ellipse cx="71.815" cy="68.298" fill="#FFC614" mask="url(#kissing-footer-b)" rx="76.997" ry="68.298" transform="matrix(-1 0 0 1 143.63 0)"/>
    <path fill="#000" d="M87.0859174,98.2806073 C89.8164902,99.8049562 91.1817561,102.243878 91.1817561,105.597445 C91.1817561,108.301508 90.1810029,110.594624 88.1794666,112.476864 C86.1779302,114.359103 83.7456361,115.300209 80.8825112,115.300209 C78.7484228,115.300209 76.8264465,114.869421 75.1165247,114.007833 C73.1414988,113.000437 71.8093704,111.568896 71.1200996,109.713167 C71.014058,109.434807 70.9610379,109.13657 70.9610379,108.818445 C70.9610379,108.076153 71.2592756,107.459795 71.85576,106.969353 C72.4124787,106.518675 73.0487191,106.29334 73.7645003,106.29334 C74.5995784,106.29334 75.2689564,106.624716 75.7726542,107.287476 C76.6209875,108.427424 77.1114229,109.050409 77.2439749,109.156451 C78.0657978,109.819211 79.2786311,110.150586 80.8825112,110.150586 C82.141756,110.150586 83.2452355,109.772819 84.1929828,109.017272 C85.1407302,108.261725 85.6145967,107.353757 85.6145967,106.29334 C85.6145967,102.992794 83.3943827,101.123837 78.9538882,100.686415 C77.0053726,100.500843 76.0311295,99.6856595 76.0311295,98.2408419 C76.0311295,97.1406597 76.786665,96.3387316 78.2977587,95.8350337 C79.7293211,95.5169088 81.1542346,95.192161 82.5725418,94.8607808 C83.4738959,94.5824215 84.1499013,94.2179087 84.6005784,93.7672317 C85.0512555,93.3165546 85.2832181,92.7797268 85.2964733,92.156732 C85.3494942,90.1817061 83.8052856,89.1942079 80.6638014,89.1942079 C79.6298952,89.1942079 78.496592,89.5885444 77.2638576,90.3772293 C76.0311233,91.1659141 75.1894303,91.5602506 74.7387532,91.5602506 C73.9832064,91.5602506 73.3403384,91.288523 72.8101301,90.7450594 C72.2799218,90.2015959 72.0148217,89.585238 72.0148217,88.8959672 C72.0148217,87.7692746 73.1282424,86.6492263 75.3551173,85.5357889 C77.3433984,84.5416483 78.9605095,84.0445855 80.206499,84.0445855 C83.2154312,84.0445855 85.6344703,84.6940809 87.4636889,85.9930913 C89.4652253,87.4246537 90.4659785,89.465925 90.4659785,92.1169666 C90.4659785,93.5750394 90.1843095,94.8176965 89.6209632,95.8449751 C89.0576169,96.8722537 88.2126101,97.684123 87.0859174,98.2806073 Z" mask="url(#kissing-footer-b)"/>
    <path fill="#000" fill-rule="nonzero" d="M98.0143399,57.7376005 L91.4260682,53.04931 C90.2600506,52.2195584 89.9874532,50.6016677 90.8172049,49.4356501 C91.6469565,48.2696324 93.2648472,47.997035 94.4308648,48.8267867 L107.60994,58.2051697 C108.042489,58.3851844 108.431513,58.6846518 108.723166,59.0944992 C109.056078,59.5623277 109.211537,60.1028973 109.203039,60.6361193 C109.207736,60.9308145 109.162353,61.227754 109.064612,61.513418 C109.05584,61.5391241 109.046677,61.5646431 109.037131,61.5899682 C108.959977,61.7939727 108.855615,61.991613 108.723166,62.1777394 C108.689517,62.2250242 108.654573,62.2708398 108.618415,62.3151722 C108.612377,62.3226296 108.606257,62.3300226 108.600097,62.3373805 C108.361373,62.623576 108.071515,62.8464461 107.75354,63.0021129 C107.706123,63.02543 107.657906,63.0473356 107.608945,63.0677772 L94.4308648,72.4454519 C93.2648472,73.2752036 91.6469565,73.0026062 90.8172049,71.8365885 C89.9874532,70.6705709 90.2600506,69.0526802 91.4260682,68.2229286 L98.8263478,62.9568038 L89.4799083,62.5824025 C88.049942,62.5251207 86.9371613,61.3194678 86.9944432,59.8895015 C87.051725,58.4595351 88.2573779,57.3467545 89.6873442,57.4040363 L98.0143399,57.7376005 Z" mask="url(#kissing-footer-b)" transform="matrix(-1 0 0 1 196.196 0)"/>
    <circle cx="22.581" cy="78.848" r="7.033" fill="#FBB52C" mask="url(#kissing-footer-b)"/>
    <circle cx="116.977" cy="78.848" r="7.033" fill="#FAB52C" mask="url(#kissing-footer-b)"/>
    <ellipse cx="33.686" cy="32.021" fill="#FFE67D" mask="url(#kissing-footer-b)" rx="6.293" ry="9.81" transform="rotate(41 33.686 32.02)"/>
    <path fill="#000" fill-rule="nonzero" d="M46.0235606,59.5847058 C46.0555363,59.5595559 46.1246699,59.5059389 46.2267656,59.428001 C46.4016788,59.2944755 46.6013551,59.1447585 46.8215288,58.9830295 C47.4508131,58.5207877 48.1131069,58.0587283 48.7721399,57.6311509 C49.1983992,57.354596 49.6087524,57.1021323 49.9963746,56.8794239 C50.561239,56.554881 51.062437,56.3026205 51.4723951,56.1372813 C51.660231,56.0615257 51.819152,56.008056 51.9412109,55.9772136 C52.1271226,55.957958 52.2575399,55.9531951 52.4143373,55.944309 C52.4677247,55.9412833 52.5218662,55.9379221 52.5933634,55.9332796 C52.6791608,55.927662 52.7261024,55.9245859 52.76249,55.9222521 C54.3318305,55.8216016 55.2633767,56.0389446 56.4519899,57.1333714 C56.9764874,57.6163074 57.4921411,58.5271849 57.9176159,59.7394971 C58.2269566,60.6209062 58.46646,61.5898126 58.6395523,62.5621961 C58.7004924,62.9045405 58.7484092,63.2210322 58.7845277,63.5019069 C58.80511,63.6619643 58.8166663,63.7681541 58.8205827,63.8109414 C58.9510295,65.2360971 60.2120943,66.285666 61.63725,66.1552192 C63.0624056,66.0247725 64.1119745,64.7637076 63.9815278,63.338552 C63.9483804,62.9764105 63.8731913,62.3917042 63.7418637,61.6539428 C63.5233351,60.4263104 63.2190177,59.1952009 62.8077123,58.0232619 C62.1260496,56.0809894 61.2179586,54.4768901 59.9624162,53.3208376 C57.5474776,51.0972602 55.277975,50.5677529 52.4307877,50.7503589 C52.0491861,50.7748331 52.0384994,50.7754388 51.994842,50.7754388 C50.6480341,50.7754388 49.2030605,51.3582075 47.4145577,52.385792 C46.9409918,52.6578794 46.4521354,52.958641 45.9514109,53.2835086 C45.2006749,53.7705824 44.4583073,54.2885065 43.753467,54.8062481 C43.3287574,55.1182193 43.0069431,55.3638862 42.819627,55.5112164 C41.694764,56.3959583 41.5001073,58.0250649 42.3848491,59.1499279 C43.269591,60.2747909 44.8986976,60.4694476 46.0235606,59.5847058 Z" mask="url(#kissing-footer-b)"/>
  </g>
</svg>
