<?xml version="1.0" encoding="UTF-8" standalone="no"?>
<svg width="457px" height="434px" viewBox="0 0 457 434" version="1.1" xmlns="http://www.w3.org/2000/svg" xmlns:xlink="http://www.w3.org/1999/xlink">
    <!-- Generator: Sketch 40.3 (33839) - http://www.bohemiancoding.com/sketch -->
    <title>Group 2</title>
    <desc>Created with Sketch.</desc>
    <defs></defs>
    <g id="Meeting-Page-Concept-1-" stroke="none" stroke-width="1" fill="none" fill-rule="evenodd">
        <g id="Desktop-HD" transform="translate(-517.000000, -245.000000)" fill="#FFFFFF">
            <g id="Group-2" transform="translate(318.000000, 45.000000)">
                <g id="Yolko-Avatar">
                    <g id="Group">
                        <path d="M240.363572,450.366901 C237.228393,450.366901 235.138273,448.282319 235.138273,445.155447 L235.138273,314.869095 C235.138273,311.742223 237.228393,309.657641 240.363572,309.657641 C243.498751,309.657641 245.588871,311.742223 245.588871,314.869095 L245.588871,445.155447 C245.588871,447.240029 242.453692,450.366901 240.363572,450.366901 L240.363572,450.366901 Z" id="Shape"></path>
                        <path d="M614.494966,450.366901 C611.359786,450.366901 609.269667,448.282319 609.269667,445.155447 L609.269667,314.869095 C609.269667,311.742223 611.359786,309.657641 614.494966,309.657641 C617.630145,309.657641 619.720264,311.742223 619.720264,314.869095 L619.720264,445.155447 C619.720264,447.240029 617.630145,450.366901 614.494966,450.366901 L614.494966,450.366901 Z" id="Shape"></path>
                        <path d="M204.83154,226.274376 C202.741421,226.274376 200.651301,224.189795 199.606241,222.105213 C199.606241,218.978341 200.651301,216.893759 203.78648,215.851468 L274.850544,203.343978 C277.985723,202.301688 280.075843,204.386269 281.120903,207.513142 C281.120903,210.640014 280.075843,212.724596 276.940664,213.766887 L204.83154,226.274376 L204.83154,226.274376 L204.83154,226.274376 Z" id="Shape"></path>
                        <path d="M650.026997,227.316667 L648.981938,227.316667 L578.962934,210.640014 C575.827755,209.597723 574.782695,207.513142 574.782695,204.386269 C575.827755,201.259397 577.917874,200.217106 581.053053,200.217106 L651.072057,216.893759 C654.207236,217.93605 655.252296,220.020631 655.252296,223.147504 C654.207236,226.274376 652.117117,227.316667 650.026997,227.316667 L650.026997,227.316667 Z" id="Shape"></path>
                        <path d="M552.83644,509.777477 L302.022098,509.777477 C298.886918,509.777477 296.796799,507.692896 296.796799,504.566023 C296.796799,501.439151 298.886918,499.354569 302.022098,499.354569 L552.83644,499.354569 C555.971619,499.354569 558.061739,501.439151 558.061739,504.566023 C558.061739,507.692896 554.926559,509.777477 552.83644,509.777477 L552.83644,509.777477 Z" id="Shape"></path>
                        <path d="M427.429269,633.810084 C317.697994,633.810084 296.796799,590.03387 296.796799,503.523732 C296.796799,500.39686 298.886918,498.312278 302.022098,498.312278 C305.157277,498.312278 307.247397,500.39686 307.247397,503.523732 C307.247397,585.864707 325.013412,623.387176 427.429269,623.387176 C529.845125,623.387176 547.611141,586.906997 547.611141,504.566023 C547.611141,501.439151 549.701261,499.354569 552.83644,499.354569 C555.971619,499.354569 558.061739,501.439151 558.061739,504.566023 C558.061739,590.03387 537.160543,633.810084 427.429269,633.810084 L427.429269,633.810084 Z" id="Shape"></path>
                    </g>
                </g>
            </g>
        </g>
    </g>
</svg>