<?xml version="1.0" encoding="UTF-8" standalone="no"?>
<svg width="572px" height="516px" viewBox="0 0 572 516" version="1.1" xmlns="http://www.w3.org/2000/svg" xmlns:xlink="http://www.w3.org/1999/xlink">
    <!-- Generator: Sketch 40.3 (33839) - http://www.bohemiancoding.com/sketch -->
    <title>great</title>
    <desc>Created with Sketch.</desc>
    <defs></defs>
    <g id="Meeting-Page-Concept-1-" stroke="none" stroke-width="1" fill="none" fill-rule="evenodd">
        <g id="Desktop-HD" transform="translate(-483.000000, -235.000000)" stroke-width="3" stroke="#FFFFFF" fill="#FFFFFF">
            <g id="great" transform="translate(484.000000, 236.000000)">
                <g id="Group">
                    <path d="M160.47071,304.84985 C158.386675,304.84985 156.997318,303.442501 156.997318,301.331479 L156.997318,213.372196 C156.997318,211.261173 158.386675,209.853824 160.47071,209.853824 C162.554745,209.853824 163.944102,211.261173 163.944102,213.372196 L163.944102,301.331479 C163.944102,302.738827 161.860067,304.84985 160.47071,304.84985 L160.47071,304.84985 Z" id="Shape"></path>
                    <path d="M409.165577,304.84985 C407.081542,304.84985 405.692185,303.442501 405.692185,301.331479 L405.692185,213.372196 C405.692185,211.261173 407.081542,209.853824 409.165577,209.853824 C411.249612,209.853824 412.638969,211.261173 412.638969,213.372196 L412.638969,301.331479 C412.638969,302.738827 411.249612,304.84985 409.165577,304.84985 L409.165577,304.84985 Z" id="Shape"></path>
                    <path d="M136.851645,153.559883 C135.462288,153.559883 134.072931,152.152535 133.378253,150.745186 C133.378253,148.634164 134.072931,147.226815 136.156966,146.523141 L183.395097,138.07905 C185.479132,137.375375 186.868489,138.782724 187.563168,140.893747 C187.563168,143.004769 186.868489,144.412118 184.784454,145.115792 L136.851645,153.559883 L136.851645,153.559883 L136.851645,153.559883 Z" id="Shape"></path>
                    <path d="M432.784642,154.263558 L432.089964,154.263558 L385.546511,143.004769 C383.462476,142.301095 382.767798,140.893747 382.767798,138.782724 C383.462476,136.671701 384.851833,135.968027 386.935868,135.968027 L433.479321,147.226815 C435.563356,147.930489 436.258034,149.337838 436.258034,151.448861 C435.563356,153.559883 434.173999,154.263558 432.784642,154.263558 L432.784642,154.263558 Z" id="Shape"></path>
                    <path d="M368.179551,344.959283 L201.456736,344.959283 C199.3727,344.959283 197.983344,343.551934 197.983344,341.440911 C197.983344,339.329889 199.3727,337.92254 201.456736,337.92254 L368.179551,337.92254 C370.263587,337.92254 371.652943,339.329889 371.652943,341.440911 C371.652943,343.551934 369.568908,344.959283 368.179551,344.959283 L368.179551,344.959283 Z" id="Shape"></path>
                    <path d="M284.818144,428.69652 C211.876912,428.69652 197.983344,399.142201 197.983344,340.737237 C197.983344,338.626214 199.3727,337.218866 201.456736,337.218866 C203.540771,337.218866 204.930128,338.626214 204.930128,340.737237 C204.930128,396.327504 216.73966,421.659777 284.818144,421.659777 C352.896627,421.659777 364.706159,397.031178 364.706159,341.440911 C364.706159,339.329889 366.095516,337.92254 368.179551,337.92254 C370.263587,337.92254 371.652943,339.329889 371.652943,341.440911 C371.652943,399.142201 357.759375,428.69652 284.818144,428.69652 L284.818144,428.69652 Z" id="Shape"></path>
                    <path d="M284.818144,513.137432 C184.089776,513.137432 93.0869054,452.621445 52.7955583,359.032768 C13.893568,358.329094 0.694678399,344.255609 0.694678399,302.738827 C0.694678399,269.666137 9.72549758,254.185303 31.9552063,249.259583 C35.4285983,112.043102 147.966499,0.862568451 284.818144,0.862568451 C421.669788,0.862568451 534.207689,112.043102 537.681081,248.555909 C559.910789,253.481629 568.941609,268.962462 568.941609,302.035153 C568.941609,342.84826 555.742719,356.921745 516.840729,358.329094 C476.549382,452.621445 385.546511,513.137432 284.818144,513.137432 L284.818144,513.137432 Z M59.0476639,354.810722 C97.2549758,446.288377 186.173811,506.100689 284.818144,506.100689 C384.157155,506.100689 473.07599,446.288377 511.283302,354.107048 C511.97798,352.6997 513.367337,351.292351 515.451372,351.996025 C547.406578,351.996025 561.994825,344.255609 561.994825,302.738827 C561.994825,267.555114 551.574649,258.407349 534.207689,255.592651 C532.818332,255.592651 531.428975,254.185303 531.428975,252.07428 C528.650261,117.672496 418.196396,7.89931108 284.818144,7.89931108 C151.439891,7.89931108 40.9860255,117.672496 38.9019903,252.07428 C38.9019903,253.481629 37.5126335,254.888977 36.1232767,255.592651 C18.0616384,259.111023 8.33614079,267.555114 8.33614079,302.738827 C8.33614079,344.255609 22.9243872,351.292351 54.8795935,351.996025 L56.9636287,351.996025 C57.6583071,352.6997 58.3529855,353.403374 59.0476639,354.810722 L59.0476639,354.810722 Z" id="Shape"></path>
                </g>
            </g>
        </g>
    </g>
</svg>