<svg xmlns="http://www.w3.org/2000/svg" xmlns:xlink="http://www.w3.org/1999/xlink" width="217" height="217" viewBox="0 0 217 217">
  <defs>
    <circle id="motivated-footer-a" cx="97.5" cy="97.5" r="97.5"/>
    <path id="motivated-footer-c" d="M60.1351574,115.044987 C60.1351574,115.044987 88.2738885,120.607154 99.9777188,120.607154 C111.681549,120.607154 136.327234,115.044987 136.327234,115.044987 C136.327234,115.044987 139.82028,159.880963 99.9777188,159.880963 C60.1351574,159.880963 60.1351574,115.044987 60.1351574,115.044987 Z"/>
  </defs>
  <g fill="none" fill-rule="evenodd" transform="translate(11 11)">
    <mask id="motivated-footer-b" fill="#fff">
      <use xlink:href="#motivated-footer-a"/>
    </mask>
    <circle cx="97.5" cy="97.5" r="103" stroke="#000" stroke-width="11"/>
    <circle cx="97.249" cy="144.871" r="104.267" fill="#F7A605" mask="url(#motivated-footer-b)"/>
    <ellipse cx="97.249" cy="92.487" fill="#FFC614" mask="url(#motivated-footer-b)" rx="104.267" ry="92.487" transform="matrix(-1 0 0 1 194.499 0)"/>
    <circle cx="30.578" cy="106.774" r="9.524" fill="#FBB52C" mask="url(#motivated-footer-b)"/>
    <circle cx="158.406" cy="106.774" r="9.524" fill="#FAB52C" mask="url(#motivated-footer-b)"/>
    <path fill="#000" fill-rule="nonzero" d="M63.8274277 82.6927638C63.8707281 82.6587066 63.9643466 82.5861003 64.1026011 82.4805594 64.3394628 82.2997437 64.6098577 82.0970018 64.9080097 81.8779938 65.7601655 81.2520413 66.6570217 80.626336 67.5494622 80.0473249 68.1266883 79.6728235 68.6823749 79.3309456 69.20728 79.0293613 69.9722005 78.5898761 70.6509061 78.2482733 71.2060577 78.0243765 71.4604188 77.9217908 71.6756244 77.8493838 71.8409124 77.8076182 72.0926679 77.7815429 72.2692747 77.7750931 72.4816045 77.7630598 72.5538999 77.7589626 72.6272166 77.7544108 72.7240357 77.7481241 72.8402196 77.7405171 72.9037863 77.7363514 72.9530612 77.7331911 75.0782099 77.5968935 76.3396787 77.8912122 77.9492591 79.3732484 78.6595161 80.0272243 79.3577972 81.2607043 79.933961 82.902377 80.3528597 84.0959519 80.6771873 85.4080126 80.9115831 86.7247819 80.9941061 87.1883733 81.0589935 87.6169558 81.107904 87.997307 81.1357758 88.2140514 81.151425 88.35785 81.1567284 88.4157912 81.3333751 90.3456895 83.0410671 91.7669808 84.9709654 91.5903341 86.9008637 91.4136875 88.3221549 89.7059954 88.1455083 87.7760972 88.1006212 87.2856972 87.9988026 86.4939075 87.8209631 85.4948556 87.525039 83.8324367 87.1129426 82.1653093 86.5559665 80.5783085 85.6328816 77.9481479 84.403175 75.77593 82.7029613 74.2104424 79.432732 71.199348 76.3594472 70.4823068 72.503881 70.7295857 71.9871289 70.7627279 71.9726573 70.763548 71.9135379 70.763548 70.0897355 70.763548 68.1330004 71.552714 65.7110696 72.9442348 65.0697824 73.3126864 64.4077894 73.7199677 63.7297249 74.1598926 62.7131033 74.8194718 61.7078138 75.5208273 60.7533426 76.2219357 60.178215 76.6443967 59.7424248 76.9770706 59.4887676 77.1765803 57.9655156 78.3746682 57.701918 80.5807501 58.9000059 82.1040021 60.0980938 83.6272541 62.3041757 83.8908517 63.8274277 82.6927638zM140.457981 77.1765803C140.204323 76.9770706 139.768533 76.6443967 139.193406 76.2219357 138.238934 75.5208273 137.233645 74.8194718 136.217023 74.1598926 135.538959 73.7199677 134.876966 73.3126864 134.235679 72.9442348 131.813748 71.552714 129.857013 70.763548 128.03321 70.763548 127.974091 70.763548 127.959619 70.7627279 127.442867 70.7295857 123.587301 70.4823068 120.514016 71.199348 117.243787 74.2104424 115.543573 75.77593 114.313867 77.9481479 113.390782 80.5783085 112.833806 82.1653093 112.421709 83.8324367 112.125785 85.4948556 111.947946 86.4939075 111.846127 87.2856972 111.80124 87.7760972 111.624593 89.7059954 113.045885 91.4136875 114.975783 91.5903341 116.905681 91.7669808 118.613373 90.3456895 118.79002 88.4157912 118.795323 88.35785 118.810972 88.2140514 118.838844 87.997307 118.887755 87.6169558 118.952642 87.1883733 119.035165 86.7247819 119.269561 85.4080126 119.593888 84.0959519 120.012787 82.902377 120.588951 81.2607043 121.287232 80.0272243 121.997489 79.3732484 123.607069 77.8912122 124.868538 77.5968935 126.993687 77.7331911 127.042962 77.7363514 127.106529 77.7405171 127.222713 77.7481241 127.319532 77.7544108 127.392848 77.7589626 127.465144 77.7630598 127.677473 77.7750931 127.85408 77.7815429 128.03321 77.7815429 128.271124 77.8493838 128.486329 77.9217908 128.74069 78.0243765 129.295842 78.2482733 129.974548 78.5898761 130.739468 79.0293613 131.264373 79.3309456 131.82006 79.6728235 132.397286 80.0473249 133.289726 80.626336 134.186583 81.2520413 135.038739 81.8779938 135.33689 82.0970018 135.607285 82.2997437 135.844147 82.4805594 135.982402 82.5861003 136.07602 82.6587066 136.11932 82.6927638 137.642572 83.8908517 139.848654 83.6272541 141.046742 82.1040021 142.24483 80.5807501 141.981233 78.3746682 140.457981 77.1765803z" mask="url(#motivated-footer-b)"/>
    <mask id="motivated-footer-d" fill="#fff">
      <use xlink:href="#motivated-footer-c"/>
    </mask>
    <use fill="#000" xlink:href="#motivated-footer-c"/>
    <path fill="#FF8603" d="M69.374018,145.076604 C69.374018,145.076604 80.3625582,134.011065 99.8708926,134.011065 C119.379227,134.011065 129.371831,143.477128 129.371831,143.477128 C129.371831,143.477128 124.727111,162.854764 100.203298,162.854764 C75.679484,162.854764 69.374018,145.076604 69.374018,145.076604 Z" mask="url(#motivated-footer-d)"/>
    <ellipse cx="86.714" cy="142.384" fill="#FFC602" fill-opacity=".455" mask="url(#motivated-footer-d)" rx="7.102" ry="3.9"/>
    <ellipse cx="45.617" cy="43.361" fill="#FFE67D" mask="url(#motivated-footer-d)" rx="8.522" ry="13.284" transform="rotate(41 45.617 43.361)"/>
  </g>
</svg>
