<?xml version="1.0" encoding="UTF-8" standalone="no"?>
<svg width="465px" height="340px" viewBox="0 0 465 340" version="1.1" xmlns="http://www.w3.org/2000/svg" xmlns:xlink="http://www.w3.org/1999/xlink">
    <!-- Generator: Sketch 40.3 (33839) - http://www.bohemiancoding.com/sketch -->
    <title>notsogood-icon</title>
    <desc>Created with Sketch.</desc>
    <defs></defs>
    <g id="Meeting-Page-Concept-1-" stroke="none" stroke-width="1" fill="none" fill-rule="evenodd">
        <g id="Desktop-HD" transform="translate(-513.000000, -243.000000)" fill="#FFFFFF">
            <g id="notsogood-icon" transform="translate(281.000000, 63.000000)">
                <g id="Group">
                    <path d="M279.796581,425.44067 C276.14792,425.44067 273.71548,423.471827 273.71548,420.518562 L273.71548,297.465859 C273.71548,294.512595 276.14792,292.543751 279.796581,292.543751 C283.445242,292.543751 285.877682,294.512595 285.877682,297.465859 L285.877682,420.518562 C285.877682,422.487405 282.229022,425.44067 279.796581,425.44067 L279.796581,425.44067 Z" id="Shape"></path>
                    <path d="M649.289875,428.30867 C645.641214,428.30867 643.208774,426.339827 643.208774,423.386562 L643.208774,300.333859 C643.208774,297.380595 645.641214,295.411751 649.289875,295.411751 C652.938536,295.411751 655.370976,297.380595 655.370976,300.333859 L655.370976,423.386562 C655.370976,425.355405 652.938536,428.30867 649.289875,428.30867 L649.289875,428.30867 Z" id="Shape"></path>
                    <path d="M238.445094,205.790022 C236.012653,205.790022 233.580213,203.821178 232.363993,201.852335 C232.363993,198.89907 233.580213,196.930227 237.228874,195.945805 L319.931848,184.132746 C323.580509,183.148324 326.012949,185.117168 327.22917,188.070432 C327.22917,191.023697 326.012949,192.992541 322.364289,193.976962 L238.445094,205.790022 L238.445094,205.790022 L238.445094,205.790022 Z" id="Shape"></path>
                    <path d="M690.641362,205.774443 L689.425142,205.774443 L607.938388,190.023697 C604.289727,189.039276 603.073507,187.070432 603.073507,184.117168 C604.289727,181.163903 606.722167,180.179481 610.370828,180.179481 L691.857583,195.930227 C695.506243,196.914649 696.722463,198.883492 696.722463,201.836757 C695.506243,204.790022 693.073803,205.774443 690.641362,205.774443 L690.641362,205.774443 Z" id="Shape"></path>
                    <path d="M546.246665,519.1944 C543.814225,519.1944 541.381785,518.209978 540.165564,516.241135 C540.165564,516.241135 526.787142,493.599438 465.976131,493.599438 C403.9489,493.599438 391.786698,516.241135 391.786698,516.241135 C390.570478,519.1944 386.921817,520.178822 383.273156,519.1944 C379.624496,518.209978 378.408276,515.256714 379.624496,513.28787 C379.624496,512.303449 394.219138,484.739643 464.759911,484.739643 C535.300684,484.739643 549.895326,512.303449 549.895326,513.28787 C551.111546,516.241135 549.895326,518.209978 546.246665,519.1944 C547.462886,518.209978 546.246665,519.1944 546.246665,519.1944 L546.246665,519.1944 Z" id="Shape"></path>
                </g>
            </g>
        </g>
    </g>
</svg>