<?xml version="1.0" encoding="UTF-8" standalone="no"?>
<svg width="596px" height="507px" viewBox="0 0 596 507" version="1.1" xmlns="http://www.w3.org/2000/svg" xmlns:xlink="http://www.w3.org/1999/xlink">
    <!-- Generator: Sketch 40.3 (33839) - http://www.bohemiancoding.com/sketch -->
    <title>notsogood-full</title>
    <desc>Created with Sketch.</desc>
    <defs></defs>
    <g id="Meeting-Page-Concept-1-" stroke="none" stroke-width="1" fill="none" fill-rule="evenodd">
        <g id="Desktop-HD" transform="translate(-449.000000, -254.000000)" stroke-width="5" stroke="#FFFFFF" fill="#FFFFFF">
            <g id="Full-Avatar" transform="translate(451.000000, 249.000000)">
                <g id="notsogood-full" transform="translate(0.000000, 8.000000)">
                    <g id="Group">
                        <path d="M161.220675,297.274443 C158.580521,297.274443 156.820418,295.898724 156.820418,293.835146 L156.820418,207.852714 C156.820418,205.789135 158.580521,204.413416 161.220675,204.413416 C163.860829,204.413416 165.620932,205.789135 165.620932,207.852714 L165.620932,293.835146 C165.620932,295.210865 162.980778,297.274443 161.220675,297.274443 L161.220675,297.274443 Z" id="Shape"></path>
                        <path d="M428.584321,299.278443 C425.944167,299.278443 424.184064,297.902724 424.184064,295.839146 L424.184064,209.856714 C424.184064,207.793135 425.944167,206.417416 428.584321,206.417416 C431.224475,206.417416 432.984577,207.793135 432.984577,209.856714 L432.984577,295.839146 C432.984577,297.214865 431.224475,299.278443 428.584321,299.278443 L428.584321,299.278443 Z" id="Shape"></path>
                        <path d="M131.298929,149.384659 C129.538826,149.384659 127.778724,148.008941 126.898672,146.633222 C126.898672,144.569643 127.778724,143.193924 130.418878,142.506065 L190.262369,134.251751 C192.902523,133.563892 194.662626,134.939611 195.542677,137.003189 C195.542677,139.066768 194.662626,140.442486 192.022472,141.130346 L131.298929,149.384659 L131.298929,149.384659 L131.298929,149.384659 Z" id="Shape"></path>
                        <path d="M458.506066,150.072519 L457.626015,150.072519 L398.662575,139.066768 C396.022421,138.378908 395.142369,137.003189 395.142369,134.939611 C396.022421,132.876032 397.782523,132.188173 400.422677,132.188173 L459.386118,143.193924 C462.026272,143.881784 462.906323,145.257503 462.906323,147.321081 C462.026272,149.384659 460.266169,150.072519 458.506066,150.072519 L458.506066,150.072519 Z" id="Shape"></path>
                        <path d="M349.622472,350.239622 C349.622472,350.239622 339.941907,334.418854 295.93934,334.418854 C251.056721,334.418854 242.256208,350.239622 242.256208,350.239622 C241.376156,352.3032 238.736002,352.991059 236.095848,352.3032 C233.455694,351.615341 232.575643,349.551762 233.455694,348.176043 C233.455694,347.488184 244.01631,328.228119 295.059289,328.228119 C346.102267,328.228119 356.662883,347.488184 356.662883,348.176043 C357.542934,350.239622 356.662883,351.615341 354.022729,352.3032 C352.262626,352.3032 350.502523,351.615341 349.622472,350.239622 Z" id="Shape"></path>
                        <path d="M295.940026,500.880843 C191.334411,500.880843 96.8286494,441.72493 54.9864036,350.239622 C14.5869939,349.551762 0.880051348,335.794573 0.880051348,295.210865 C0.880051348,262.88147 10.2584857,247.748562 33.3438627,242.933546 C36.9509529,108.800951 153.820674,0.119156757 295.940026,0.119156757 C438.059378,0.119156757 554.929098,108.800951 558.536189,242.245686 C581.621566,247.060703 591,262.193611 591,294.523005 C591,334.418854 577.293057,348.176043 536.893648,349.551762 C495.051402,441.72493 400.54564,500.880843 295.940026,500.880843 L295.940026,500.880843 Z M61.4791659,346.112465 C101.157158,435.534195 193.498665,494.002249 295.940026,494.002249 C399.102804,494.002249 491.444312,435.534195 531.122303,345.424605 C531.843722,344.048886 533.286558,342.673168 535.450812,343.361027 C568.636041,343.361027 583.78582,335.794573 583.78582,295.210865 C583.78582,260.817892 572.964549,251.875719 554.929098,249.124281 C553.486262,249.124281 552.043426,247.748562 552.043426,245.684984 C549.157754,114.303827 434.452287,6.99775135 295.940026,6.99775135 C157.427764,6.99775135 42.7222971,114.303827 40.558043,245.684984 C40.558043,247.060703 39.1152069,248.436422 37.6723709,249.124281 C18.9155021,252.563578 8.81564968,260.817892 8.81564968,295.210865 C8.81564968,335.794573 23.9654283,342.673168 57.1506577,343.361027 L59.3149118,343.361027 C60.0363298,344.048886 60.7577478,344.736746 61.4791659,346.112465 L61.4791659,346.112465 Z" id="Shape"></path>
                    </g>
                </g>
            </g>
        </g>
    </g>
</svg>