<svg xmlns="http://www.w3.org/2000/svg" xmlns:xlink="http://www.w3.org/1999/xlink" width="417" height="417" viewBox="0 0 417 417">
  <defs>
    <circle id="sad-a" cx="194.5" cy="194.5" r="194.5"/>
  </defs>
  <g fill="none" fill-rule="evenodd" transform="translate(14 14)">
    <mask id="sad-b" fill="#fff">
      <use xlink:href="#sad-a"/>
    </mask>
    <circle cx="194.5" cy="194.5" r="201.5" stroke="#000" stroke-width="14"/>
    <circle cx="194" cy="289" r="208" fill="#F7A605" mask="url(#sad-b)"/>
    <ellipse cx="194" cy="184.5" fill="#FFC614" mask="url(#sad-b)" rx="208" ry="184.5" transform="matrix(-1 0 0 1 388 0)"/>
    <circle cx="61" cy="261" r="19" fill="#FBB52C" mask="url(#sad-b)"/>
    <circle cx="316" cy="261" r="19" fill="#FAB52C" mask="url(#sad-b)"/>
    <path fill="#000" fill-rule="nonzero" d="M91.0441846 214.434986L136.044185 200.694872C139.74166 199.5659 141.823844 195.653291 140.694872 191.955815 139.5659 188.25834 135.653291 186.176156 131.955815 187.305128L86.9558154 201.045242C83.2583398 202.174214 81.1761562 206.086823 82.3051281 209.784299 83.4341001 213.481775 87.3467089 215.563958 91.0441846 214.434986zM294.988528 201.028501L251.988528 188.288387C248.281807 187.190153 244.386621 189.30475 243.288387 193.011472 242.190153 196.718193 244.30475 200.613379 248.011472 201.711613L291.011472 214.451728C294.718193 215.549962 298.613379 213.435364 299.711613 209.728643 300.809847 206.021921 298.69525 202.126735 294.988528 201.028501z" mask="url(#sad-b)"/>
    <ellipse cx="91" cy="86.5" fill="#FFE67D" mask="url(#sad-b)" rx="17" ry="26.5" transform="rotate(41 91 86.5)"/>
    <path fill="#000" fill-rule="nonzero" d="M126.268603,311.783155 C126.583092,311.554689 126.815865,311.391464 127.095536,311.201757 C127.938694,310.629824 128.967091,309.97961 130.179038,309.269596 C133.726372,307.191406 137.989409,305.094202 142.955671,303.124565 C157.311329,297.431061 174.345989,294 194,294 C213.762857,294 232.822093,297.474972 250.438507,303.267391 C256.597194,305.292417 262.125081,307.458005 266.929249,309.615424 C268.593588,310.362834 270.043152,311.052606 271.266404,311.666041 C271.97316,312.020463 272.431036,312.261322 272.628551,312.369871 C276.016598,314.231871 280.272601,312.994766 282.134601,309.606719 C283.996601,306.218673 282.759496,301.962669 279.371449,300.100669 C279.022089,299.908668 278.408676,299.585993 277.542189,299.151469 C276.143372,298.449992 274.513833,297.674578 272.664501,296.844094 C267.429607,294.493247 261.449681,292.150569 254.811493,289.96788 C235.865407,283.738254 215.362143,280 194,280 C172.529011,280 153.751171,283.782166 137.794329,290.110705 C132.151216,292.348784 127.250191,294.759846 123.102212,297.189922 C121.620799,298.057802 120.331814,298.872774 119.236496,299.615753 C118.538006,300.089554 118.035902,300.453095 117.731397,300.687385 C114.667385,303.044869 114.094631,307.439861 116.452115,310.503873 C118.809599,313.567885 123.20459,314.14064 126.268603,311.783155 Z" mask="url(#sad-b)"/>
  </g>
</svg>
