<svg xmlns="http://www.w3.org/2000/svg" xmlns:xlink="http://www.w3.org/1999/xlink" width="417" height="417" viewBox="0 0 417 417">
  <defs>
    <circle id="serious-a" cx="194.5" cy="194.5" r="194.5"/>
  </defs>
  <g fill="none" fill-rule="evenodd" transform="translate(14 14)">
    <mask id="serious-b" fill="#fff">
      <use xlink:href="#serious-a"/>
    </mask>
    <circle cx="194.5" cy="194.5" r="201.5" stroke="#000" stroke-width="14"/>
    <circle cx="194" cy="289" r="208" fill="#F7A605" mask="url(#serious-b)"/>
    <ellipse cx="194" cy="184.5" fill="#FFC614" mask="url(#serious-b)" rx="208" ry="184.5" transform="matrix(-1 0 0 1 388 0)"/>
    <circle cx="61" cy="213" r="19" fill="#FBB52C" mask="url(#serious-b)"/>
    <circle cx="316" cy="213" r="19" fill="#FAB52C" mask="url(#serious-b)"/>
    <path fill="#000" fill-rule="nonzero" d="M101 166.740114L152.868128 166.740114C156.734122 166.740114 159.868128 163.606108 159.868128 159.740114 159.868128 155.874121 156.734122 152.740114 152.868128 152.740114L101 152.740114C97.1340068 152.740114 94 155.874121 94 159.740114 94 163.606108 97.1340068 166.740114 101 166.740114zM289 152.740114L238 152.740114C234.134007 152.740114 231 155.874121 231 159.740114 231 163.606108 234.134007 166.740114 238 166.740114L289 166.740114C292.865993 166.740114 296 163.606108 296 159.740114 296 155.874121 292.865993 152.740114 289 152.740114z" mask="url(#serious-b)"/>
    <ellipse cx="91" cy="86.5" fill="#FFE67D" mask="url(#serious-b)" rx="17" ry="26.5" transform="rotate(41 91 86.5)"/>
    <path fill="#000" fill-rule="nonzero" d="M147.541667,265.23527 L247.458333,265.23527 C249.966627,265.23527 252,262.101264 252,258.23527 C252,254.369277 249.966627,251.23527 247.458333,251.23527 L147.541667,251.23527 C145.033373,251.23527 143,254.369277 143,258.23527 C143,262.101264 145.033373,265.23527 147.541667,265.23527 Z" mask="url(#serious-b)"/>
  </g>
</svg>
