<?xml version="1.0" encoding="UTF-8" standalone="no"?>
<svg width="582px" height="518px" viewBox="0 0 582 518" version="1.1" xmlns="http://www.w3.org/2000/svg" xmlns:xlink="http://www.w3.org/1999/xlink">
    <!-- Generator: Sketch 40.3 (33839) - http://www.bohemiancoding.com/sketch -->
    <title>ok-full</title>
    <desc>Created with Sketch.</desc>
    <defs></defs>
    <g id="Meeting-Page-Concept-1-" stroke="none" stroke-width="1" fill="none" fill-rule="evenodd">
        <g id="Desktop-HD" transform="translate(-453.000000, -248.000000)" stroke-width="5" stroke="#FFFFFF" fill="#FFFFFF">
            <g id="Full-Avatar" transform="translate(451.000000, 249.000000)">
                <g id="ok-full" transform="translate(4.000000, 2.000000)">
                    <g id="Group">
                        <path d="M162.826829,296.758418 C160.712195,296.758418 159.302439,295.352955 159.302439,293.244761 L159.302439,205.403344 C159.302439,203.29515 160.712195,201.889687 162.826829,201.889687 C164.941463,201.889687 166.35122,203.29515 166.35122,205.403344 L166.35122,293.244761 C166.35122,294.650224 164.236585,296.758418 162.826829,296.758418 L162.826829,296.758418 Z" id="Shape"></path>
                        <path d="M415.173171,296.758418 C413.058537,296.758418 411.64878,295.352955 411.64878,293.244761 L411.64878,205.403344 C411.64878,203.29515 413.058537,201.889687 415.173171,201.889687 C417.287805,201.889687 418.697561,203.29515 418.697561,205.403344 L418.697561,293.244761 C418.697561,294.650224 417.287805,296.758418 415.173171,296.758418 L415.173171,296.758418 Z" id="Shape"></path>
                        <path d="M186.792683,148.482105 L138.156098,148.482105 C136.041463,148.482105 134.631707,147.076642 134.631707,144.968448 C134.631707,142.860254 136.041463,141.454792 138.156098,141.454792 L186.792683,141.454792 C188.907317,141.454792 190.317073,142.860254 190.317073,144.968448 C190.317073,147.076642 188.907317,148.482105 186.792683,148.482105 L186.792683,148.482105 Z" id="Shape"></path>
                        <path d="M439.843902,148.482105 L391.207317,148.482105 C389.092683,148.482105 387.682927,147.076642 387.682927,144.968448 C387.682927,142.860254 389.092683,141.454792 391.207317,141.454792 L439.843902,141.454792 C441.958537,141.454792 443.368293,142.860254 443.368293,144.968448 C443.368293,147.076642 441.958537,148.482105 439.843902,148.482105 L439.843902,148.482105 Z" id="Shape"></path>
                        <path d="M323.539024,341.733223 L254.460976,341.733223 C252.346341,341.733223 250.936585,340.327761 250.936585,338.219567 C250.936585,336.111373 252.346341,334.70591 254.460976,334.70591 L323.539024,334.70591 C325.653659,334.70591 327.063415,336.111373 327.063415,338.219567 C327.063415,340.327761 325.653659,341.733223 323.539024,341.733223 L323.539024,341.733223 Z" id="Shape"></path>
                        <path d="M289,511.794208 C186.792683,511.794208 94.4536585,451.359312 53.5707317,357.896044 C14.097561,357.193313 0.704878049,343.138686 0.704878049,301.677537 C0.704878049,268.649164 9.86829268,253.189075 32.4243902,248.269955 C35.9487805,111.237344 150.139024,0.205792412 289,0.205792412 C427.860976,0.205792412 542.05122,111.237344 545.57561,247.567224 C568.131707,252.486343 577.295122,267.946433 577.295122,300.974806 C577.295122,341.733223 563.902439,355.78785 524.429268,357.193313 C483.546341,451.359312 391.207317,511.794208 289,511.794208 L289,511.794208 Z M59.9146341,353.679656 C98.6829268,445.03473 188.907317,504.766894 289,504.766894 C389.797561,504.766894 480.021951,445.03473 518.790244,352.976925 C519.495122,351.571462 520.904878,350.165999 523.019512,350.868731 C555.443902,350.868731 570.246341,343.138686 570.246341,301.677537 C570.246341,266.54097 559.673171,257.405463 542.05122,254.594537 C540.641463,254.594537 539.231707,253.189075 539.231707,251.080881 C536.412195,116.859195 424.336585,7.23310581 289,7.23310581 C153.663415,7.23310581 41.5878049,116.859195 39.4731707,251.080881 C39.4731707,252.486343 38.0634146,253.891806 36.6536585,254.594537 C18.3268293,258.108194 8.45853659,266.54097 8.45853659,301.677537 C8.45853659,343.138686 23.2609756,350.165999 55.6853659,350.868731 L57.8,350.868731 C58.504878,351.571462 59.2097561,352.274194 59.9146341,353.679656 L59.9146341,353.679656 Z" id="Shape"></path>
                    </g>
                </g>
            </g>
        </g>
    </g>
</svg>