<?xml version="1.0" encoding="UTF-8" standalone="no"?>
<svg width="456px" height="352px" viewBox="0 0 456 352" version="1.1" xmlns="http://www.w3.org/2000/svg" xmlns:xlink="http://www.w3.org/1999/xlink">
    <!-- Generator: Sketch 40.3 (33839) - http://www.bohemiancoding.com/sketch -->
    <title>serious-icon</title>
    <desc>Created with Sketch.</desc>
    <defs></defs>
    <g id="Meeting-Page-Concept-1-" stroke="none" stroke-width="1" fill="none" fill-rule="evenodd">
        <g id="Desktop-HD" transform="translate(-517.000000, -266.000000)" fill="#FFFFFF">
            <g id="serious-icon" transform="translate(335.000000, 62.000000)">
                <g id="Group">
                    <path d="M223.662195,429.392328 C220.614634,429.392328 218.582927,427.361558 218.582927,424.315403 L218.582927,297.392282 C218.582927,294.346127 220.614634,292.315357 223.662195,292.315357 C226.709756,292.315357 228.741463,294.346127 228.741463,297.392282 L228.741463,424.315403 C228.741463,426.346173 225.693902,429.392328 223.662195,429.392328 L223.662195,429.392328 Z" id="Shape"></path>
                    <path d="M597.337805,429.392328 C594.290244,429.392328 592.258537,427.361558 592.258537,424.315403 L592.258537,297.392282 C592.258537,294.346127 594.290244,292.315357 597.337805,292.315357 C600.385366,292.315357 602.417073,294.346127 602.417073,297.392282 L602.417073,424.315403 C602.417073,426.346173 600.385366,429.392328 597.337805,429.392328 L597.337805,429.392328 Z" id="Shape"></path>
                    <path d="M257.20122,215.1461 L187.107317,215.1461 C184.059756,215.1461 182.028049,213.11533 182.028049,210.069175 C182.028049,207.02302 184.059756,204.99225 187.107317,204.99225 L257.20122,204.99225 C260.24878,204.99225 262.280488,207.02302 262.280488,210.069175 C262.280488,213.11533 260.24878,215.1461 257.20122,215.1461 L257.20122,215.1461 Z" id="Shape"></path>
                    <path d="M632.892683,215.1461 L562.79878,215.1461 C559.75122,215.1461 557.719512,213.11533 557.719512,210.069175 C557.719512,207.02302 559.75122,204.99225 562.79878,204.99225 L632.892683,204.99225 C635.940244,204.99225 637.971951,207.02302 637.971951,210.069175 C637.971951,213.11533 635.940244,215.1461 632.892683,215.1461 L632.892683,215.1461 Z" id="Shape"></path>
                    <path d="M490.742773,555.376966 L328.901129,555.376966 C323.946793,555.376966 320.643902,553.346196 320.643902,550.300041 C320.643902,547.253886 323.946793,545.223117 328.901129,545.223117 L490.742773,545.223117 C495.697109,545.223117 499,547.253886 499,550.300041 C499,553.346196 495.697109,555.376966 490.742773,555.376966 L490.742773,555.376966 Z" id="Shape"></path>
                </g>
            </g>
        </g>
    </g>
</svg>