<?xml version="1.0" encoding="UTF-8" standalone="no"?>
<svg width="651px" height="523px" viewBox="0 0 651 523" version="1.1" xmlns="http://www.w3.org/2000/svg" xmlns:xlink="http://www.w3.org/1999/xlink">
    <!-- Generator: Sketch 41.2 (35397) - http://www.bohemiancoding.com/sketch -->
    <title>Yolko Inactive</title>
    <desc>Created with Sketch.</desc>
    <defs></defs>
    <g id="+-Inactive-State-" stroke="none" stroke-width="1" fill="none" fill-rule="evenodd">
        <g id="Inactive-State-" transform="translate(-441.000000, -133.000000)" fill="#FFFFFF">
            <g id="Yolko-Inactive" transform="translate(442.000000, 88.000000)">
                <path d="M185.41781,295.747337 C185.41781,295.747337 202.412097,269.015015 202.412097,260.495182 C202.412097,251.97535 185.41781,225.229062 185.41781,225.229062 C185.41781,224.066632 183.44668,219.173662 185.41781,219.173662 C185.77877,219.173662 192.73689,223.366483 194.402291,225.229062 C196.067691,227.09164 213.390532,253.756662 213.390532,260.495182 C213.390532,268.744311 194.402291,295.747337 194.402291,295.747337 C194.402291,296.52229 186.731897,300.193741 185.41781,300.193741 C183.44668,300.193741 185.41781,296.909767 185.41781,295.747337 Z" id="Shape" transform="translate(198.966142, 259.683701) rotate(-270.000000) translate(-198.966142, -259.683701) "></path>
                <path d="M185.41781,295.747337 C185.41781,295.747337 202.412097,269.015015 202.412097,260.495182 C202.412097,251.97535 185.41781,225.229062 185.41781,225.229062 C185.41781,224.066632 183.44668,219.173662 185.41781,219.173662 C185.77877,219.173662 192.73689,223.366483 194.402291,225.229062 C196.067691,227.09164 213.390532,253.756662 213.390532,260.495182 C213.390532,268.744311 194.402291,295.747337 194.402291,295.747337 C194.402291,296.52229 186.731897,300.193741 185.41781,300.193741 C183.44668,300.193741 185.41781,296.909767 185.41781,295.747337 Z" id="Shape" transform="translate(198.966142, 259.683701) rotate(-270.000000) translate(-198.966142, -259.683701) "></path>
                <path d="M357.961708,295.488026 C357.961708,295.488026 374.955994,268.755703 374.955994,260.235871 C374.955994,251.716038 357.961708,224.96975 357.961708,224.96975 C357.961708,223.80732 355.990577,218.91435 357.961708,218.91435 C358.322668,218.91435 365.280787,223.107172 366.946188,224.96975 C368.611589,226.832328 385.934429,253.49735 385.934429,260.235871 C385.934429,268.484999 366.946188,295.488026 366.946188,295.488026 C366.946188,296.262979 359.275795,299.934429 357.961708,299.934429 C355.990577,299.934429 357.961708,296.650455 357.961708,295.488026 Z" id="Shape" transform="translate(371.510040, 259.424390) rotate(-270.000000) translate(-371.510040, -259.424390) "></path>
                <path d="M158,187.849183 C158,185.73816 158.694678,184.330812 160.778714,183.627138 C160.778714,183.627138 176.195937,177.949942 183.857378,176.580415 C191.518819,175.210888 208.016845,175.183046 208.016845,175.183046 C210.10088,174.479372 211.490237,175.886721 212.184915,177.997744 C212.184915,180.108766 211.490237,181.516115 209.406202,182.219789 C209.406202,182.219789 193.896607,182.264302 186.16048,183.627138 C178.424353,184.989974 161.473392,190.66388 161.473392,190.66388 C160.084035,190.66388 158.694678,189.256532 158,187.849183 Z" id="Shape"></path>
                <path d="M408.322166,193.295531 C408.322166,193.295531 394.81407,185.074176 386.961151,183.174567 C379.108232,181.274958 361.778714,182.036743 361.778714,182.036743 C359.694678,181.333068 359,179.92572 359,177.814697 C359.694678,175.703674 361.084035,175 363.16807,175 C363.16807,175 381.030108,174.522493 388.866818,176.418181 C396.703528,178.313869 409.711523,186.258788 409.711523,186.258788 C411.795558,186.962462 412.490237,188.369811 412.490237,190.480834 C411.795558,192.591857 410.406202,193.295531 409.016845,193.295531 L408.322166,193.295531 Z" id="Shape"></path>
                <path d="M297.879617,395.467382 C281.358601,395.467382 200.956384,359.004142 200.956384,359.004142 C198.872349,359.004142 203.573169,352.28133 205.657204,352.28133 C205.657204,352.28133 270.050965,334.837463 297.764634,334.837463 C325.478304,334.837463 389.585518,352.28133 389.585518,352.28133 C391.252095,352.28133 389.585518,359.004142 389.585518,359.004142 C389.585518,359.004142 314.142551,395.467382 297.879617,395.467382 Z" id="Shape"></path>
                <path d="M284.818144,566.137432 C184.089776,566.137432 93.0869054,505.621445 52.7955583,412.032768 C13.893568,411.329094 0.694678399,397.255609 0.694678399,355.738827 C0.694678399,322.666137 9.72549758,307.185303 31.9552063,302.259583 C35.4285983,165.043102 147.966499,53.8625685 284.818144,53.8625685 C421.669788,53.8625685 534.207689,165.043102 537.681081,301.555909 C559.910789,306.481629 568.941609,321.962462 568.941609,355.035153 C568.941609,395.84826 555.742719,409.921745 516.840729,411.329094 C476.549382,505.621445 385.546511,566.137432 284.818144,566.137432 L284.818144,566.137432 Z M59.0476639,407.810722 C97.2549758,499.288377 186.173811,559.100689 284.818144,559.100689 C384.157155,559.100689 473.07599,499.288377 511.283302,407.107048 C511.97798,405.6997 513.367337,404.292351 515.451372,404.996025 C547.406578,404.996025 561.994825,397.255609 561.994825,355.738827 C561.994825,320.555114 551.574649,311.407349 534.207689,308.592651 C532.818332,308.592651 531.428975,307.185303 531.428975,305.07428 C528.650261,170.672496 418.196396,60.8993111 284.818144,60.8993111 C151.439891,60.8993111 40.9860255,170.672496 38.9019903,305.07428 C38.9019903,306.481629 37.5126335,307.888977 36.1232767,308.592651 C18.0616384,312.111023 8.33614079,320.555114 8.33614079,355.738827 C8.33614079,397.255609 22.9243872,404.292351 54.8795935,404.996025 L56.9636287,404.996025 C57.6583071,405.6997 58.3529855,406.403374 59.0476639,407.810722 L59.0476639,407.810722 Z" id="Shape" stroke="#FFFFFF" stroke-width="3"></path>
                <text id="Z" font-family="Avenir-Black, Avenir" font-size="89" font-weight="700">
                    <tspan x="460" y="114">..z</tspan>
                </text>
                <text id="Z" font-family="Avenir-Black, Avenir" font-size="89" font-weight="700">
                    <tspan x="560" y="89">z</tspan>
                </text>
                <text id="Z" font-family="Avenir-Black, Avenir" font-size="89" font-weight="700">
                    <tspan x="608" y="114">z</tspan>
                </text>
            </g>
        </g>
    </g>
</svg>