<svg xmlns="http://www.w3.org/2000/svg" xmlns:xlink="http://www.w3.org/1999/xlink" width="417" height="417" viewBox="0 0 417 417">
  <defs>
    <circle id="sleeping-a" cx="194.5" cy="194.5" r="194.5"/>
    <ellipse id="sleeping-c" cx="194" cy="235.5" rx="70" ry="23.5"/>
  </defs>
  <g fill="none" fill-rule="evenodd" transform="translate(14 14)">
    <mask id="sleeping-b" fill="#fff">
      <use xlink:href="#sleeping-a"/>
    </mask>
    <circle cx="194.5" cy="194.5" r="201.5" stroke="#000" stroke-width="14"/>
    <circle cx="194" cy="289" r="208" fill="#F7A605" mask="url(#sleeping-b)"/>
    <ellipse cx="194" cy="184.5" fill="#FFC614" mask="url(#sleeping-b)" rx="208" ry="184.5" transform="matrix(-1 0 0 1 388 0)"/>
    <circle cx="61" cy="181" r="19" fill="#FBB52C" mask="url(#sleeping-b)"/>
    <circle cx="316" cy="181" r="19" fill="#FAB52C" mask="url(#sleeping-b)"/>
    <path fill="#000" fill-rule="nonzero" d="M104.957156 137.661998C105.914065 137.806165 107.547435 138.010603 109.700108 138.211904 115.95972 138.797256 122.460318 138.958005 128.641232 138.425884 130.762362 138.243274 132.800106 137.980128 134.745347 137.628446 136.589434 137.295052 138.527808 136.888859 140.551008 136.416398 143.404988 135.749932 146.390592 134.960586 149.462078 134.073607 152.858939 133.092667 156.185668 132.044073 159.310962 130.994975 160.406859 130.627104 161.401065 130.284817 162.27681 129.976542 162.810159 129.788795 163.190896 129.652109 163.402142 129.574931 167.033376 128.248265 168.901597 124.229092 167.574931 120.597858 166.248265 116.966624 162.229092 115.098403 158.597858 116.425069 158.437164 116.483779 158.108186 116.601883 157.628209 116.770841 156.815078 117.057075 155.885128 117.377241 154.855753 117.722781 151.908841 118.712 148.768883 119.701723 145.577894 120.623212 142.72598 121.446784 139.970143 122.175384 137.367359 122.78319 135.564029 123.204307 133.854444 123.562555 132.254653 123.851783 130.756017 124.122723 129.145802 124.33066 127.440401 124.477479 122.20975 124.927791 116.498519 124.786562 111.003596 124.272718 109.903732 124.169867 108.908313 124.060134 108.038339 123.951245 107.533636 123.888075 107.19489 123.841138 107.042844 123.818231 103.219994 123.242283 99.6540632 125.874419 99.0781162 129.69727 98.5021691 133.520121 101.134305 137.086051 104.957156 137.661998zM283.374119 124.251297C282.81708 124.412346 282.270124 124.547861 281.592306 124.681303 276.307625 125.7217 268.757618 125.7217 258.785196 123.859106 254.866728 123.127237 251.220463 122.303047 247.841925 121.404418 243.063366 120.133409 239.069362 118.784972 235.836176 117.454524 234.743628 117.004943 233.832768 116.59568 233.100687 116.238618 232.71161 116.048851 232.495692 115.93511 232.45007 115.909268 229.086252 114.003847 224.814689 115.186111 222.909268 118.54993 221.003847 121.913748 222.186111 126.185311 225.54993 128.090732 225.844655 128.257678 226.314945 128.505415 226.963454 128.821716 227.960684 129.308101 229.141542 129.838679 230.508636 130.401235 234.303 131.962606 238.874426 133.505989 244.243301 134.934011 247.961561 135.923 251.950813 136.824718 256.214804 137.621122 267.909048 139.805308 277.24793 139.805308 284.296583 138.417637 286.277173 138.027718 287.717294 137.596617 288.625881 137.228932 292.209556 135.778698 293.939051 131.697908 292.488817 128.114233 291.038583 124.530559 286.957794 122.801063 283.374119 124.251297z" mask="url(#sleeping-b)"/>
    <ellipse cx="91" cy="86.5" fill="#FFE67D" mask="url(#sleeping-b)" rx="17" ry="26.5" transform="rotate(41 91 86.5)"/>
    <rect width="16" height="33" x="221" y="246" fill="#000" mask="url(#sleeping-b)" rx="8"/>
    <rect width="16" height="23" x="238" y="238" fill="#000" mask="url(#sleeping-b)" rx="8"/>
    <mask id="sleeping-d" fill="#fff">
      <use xlink:href="#sleeping-c"/>
    </mask>
    <use fill="#000" xlink:href="#sleeping-c"/>
    <path fill="#FF8603" d="M150.392272,264.588534 C150.392272,264.588534 166.639342,248.227617 195.483327,248.227617 C224.327311,248.227617 239.101843,262.223634 239.101843,262.223634 C239.101843,262.223634 232.234408,290.874375 195.974803,290.874375 C159.715198,290.874375 150.392272,264.588534 150.392272,264.588534 Z" mask="url(#sleeping-d)"/>
    <ellipse cx="176.03" cy="260.608" fill="#FFC602" fill-opacity=".455" mask="url(#sleeping-d)" rx="10.501" ry="5.767"/>
  </g>
</svg>
