<svg xmlns="http://www.w3.org/2000/svg" xmlns:xlink="http://www.w3.org/1999/xlink" width="417" height="417" viewBox="0 0 417 417">
  <defs>
    <circle id="stressed-a" cx="194.5" cy="194.5" r="194.5"/>
  </defs>
  <g fill="none" fill-rule="evenodd" transform="translate(14 14)">
    <mask id="stressed-b" fill="#fff">
      <use xlink:href="#stressed-a"/>
    </mask>
    <circle cx="194.5" cy="194.5" r="201.5" stroke="#000" stroke-width="14"/>
    <circle cx="194" cy="289" r="208" fill="#F7A605" mask="url(#stressed-b)"/>
    <ellipse cx="194" cy="184.5" fill="#FFC614" mask="url(#stressed-b)" rx="208" ry="184.5" transform="matrix(-1 0 0 1 388 0)"/>
    <g mask="url(#stressed-b)">
      <g transform="translate(42 194)">
        <circle cx="19" cy="19" r="19" fill="#FBB52C"/>
        <circle cx="274" cy="19" r="19" fill="#FAB52C"/>
      </g>
    </g>
    <g mask="url(#stressed-b)">
      <g transform="translate(98 114)">
        <g transform="matrix(-1 0 0 1 188 0)">
          <path fill="#000" fill-rule="nonzero" d="M13.9215417,13.4292424 L58.9215417,45.6891281 C62.0635604,47.9415984 66.4366578,47.2204769 68.6891281,44.0784583 C70.9415984,40.9364396 70.2204769,36.5633422 67.0784583,34.3108719 L22.0784583,2.05098625 C18.9364396,-0.201484045 14.5633422,0.519637399 12.3108719,3.66165608 C10.0584016,6.80367475 10.7795231,11.1767721 13.9215417,13.4292424 Z"/>
          <path fill="#000" fill-rule="nonzero" d="M22.0784583,77.6891281 L67.0784583,45.4292424 C70.2204769,43.1767721 70.9415984,38.8036748 68.6891281,35.6616561 C66.4366578,32.5196374 62.0635604,31.798516 58.9215417,34.0509863 L13.9215417,66.3108719 C10.7795231,68.5633422 10.0584016,72.9364396 12.3108719,76.0784583 C14.5633422,79.2204769 18.9364396,79.9415984 22.0784583,77.6891281 Z"/>
          <path fill="#000" fill-rule="nonzero" d="M6.71774403,44.7344214 L62.717744,46.9943071 C66.5805932,47.1501928 69.8384214,44.1451051 69.9943071,40.282256 C70.1501928,36.4194068 67.1451051,33.1615786 63.282256,33.0056929 L7.28225597,30.7458072 C3.41940683,30.5899216 0.161578585,33.5950092 0.00569291731,37.4578584 C-0.150192751,41.3207075 2.85489489,44.5785357 6.71774403,44.7344214 Z"/>
        </g>
      </g>
    </g>
    <path fill="#000" fill-rule="nonzero" d="M111.921542,127.429242 L156.921542,159.689128 C160.06356,161.941598 164.436658,161.220477 166.689128,158.078458 C168.941598,154.93644 168.220477,150.563342 165.078458,148.310872 L120.078458,116.050986 C116.93644,113.798516 112.563342,114.519637 110.310872,117.661656 C108.058402,120.803675 108.779523,125.176772 111.921542,127.429242 Z" mask="url(#stressed-b)"/>
    <path fill="#000" fill-rule="nonzero" d="M120.078458,191.689128 L165.078458,159.429242 C168.220477,157.176772 168.941598,152.803675 166.689128,149.661656 C164.436658,146.519637 160.06356,145.798516 156.921542,148.050986 L111.921542,180.310872 C108.779523,182.563342 108.058402,186.93644 110.310872,190.078458 C112.563342,193.220477 116.93644,193.941598 120.078458,191.689128 Z" mask="url(#stressed-b)"/>
    <path fill="#000" fill-rule="nonzero" d="M104.717744,158.734421 L160.717744,160.994307 C164.580593,161.150193 167.838421,158.145105 167.994307,154.282256 C168.150193,150.419407 165.145105,147.161579 161.282256,147.005693 L105.282256,144.745807 C101.419407,144.589922 98.1615786,147.595009 98.0056929,151.457858 C97.8498072,155.320707 100.854895,158.578536 104.717744,158.734421 Z" mask="url(#stressed-b)"/>
    <ellipse cx="91" cy="86.5" fill="#FFE67D" mask="url(#stressed-b)" rx="17" ry="26.5" transform="rotate(41 91 86.5)"/>
    <path fill="#000" fill-rule="nonzero" d="M143.554256,271.585112 C143.601302,271.544806 143.742454,271.427579 143.970475,271.24461 C144.380869,270.9153 144.864377,270.541886 145.41353,270.135568 C147.001839,268.960381 148.769897,267.780873 150.652746,266.686281 C155.180247,264.054226 159.579181,262.37837 163.34021,262.056153 C163.777307,262.018706 164.202504,262 164.615385,262 C167.989307,262 171.523554,263.587537 182.31948,269.612537 C187.75475,272.645857 191.024937,274.328146 194.675559,275.822196 C199.72163,277.887348 204.356362,279 208.923077,279 C212.432499,279 216.146073,278.411635 220.052982,277.323057 C225.0472,275.931522 230.240764,273.759406 235.515214,271.019622 C238.737822,269.345656 241.799498,267.558723 244.612598,265.769438 C246.317502,264.685027 247.580351,263.826735 248.307682,263.305621 C251.450312,261.054004 252.172622,256.681103 249.921005,253.538472 C247.669389,250.395842 243.296487,249.673532 240.153857,251.925149 C240.042883,252.004658 239.788601,252.182352 239.403569,252.444038 C238.737387,252.896806 237.964924,253.405711 237.098941,253.956523 C234.61156,255.538633 231.896794,257.123094 229.061709,258.595763 C224.581886,260.922782 220.247405,262.735602 216.295309,263.836771 C213.533147,264.60639 211.048804,265 208.923077,265 C206.406,265 203.474966,264.296352 199.978287,262.865304 C196.997429,261.64536 194.109947,260.159947 189.142059,257.387463 C182.012618,253.40866 180.66106,252.680847 177.522081,251.270858 C172.783062,249.142152 168.66334,248 164.615385,248 C163.797688,248 162.974135,248.036231 162.145174,248.10725 C155.991492,248.634451 149.774753,251.002834 143.616485,254.582934 C141.258949,255.953483 139.067872,257.415197 137.08647,258.881232 C135.874446,259.778006 134.977736,260.497549 134.445744,260.953319 C131.509856,263.468565 131.168858,267.887582 133.684104,270.823471 C136.19935,273.759359 140.618367,274.100358 143.554256,271.585112 Z" mask="url(#stressed-b)"/>
  </g>
</svg>
