<?xml version="1.0" encoding="UTF-8" standalone="no"?>
<svg width="485px" height="333px" viewBox="0 0 485 333" version="1.1" xmlns="http://www.w3.org/2000/svg" xmlns:xlink="http://www.w3.org/1999/xlink">
    <!-- Generator: Sketch 40.3 (33839) - http://www.bohemiancoding.com/sketch -->
    <title>tense</title>
    <desc>Created with Sketch.</desc>
    <defs></defs>
    <g id="Meeting-Page-Concept-1-" stroke="none" stroke-width="1" fill="none" fill-rule="evenodd">
        <g id="Desktop-HD" transform="translate(-503.000000, -244.000000)" fill="#FFFFFF">
            <g id="tense" transform="translate(322.000000, 46.000000)">
                <g id="Group">
                    <path d="M660.59878,382.178147 L558.097561,382.178147 C554.991463,382.178147 552.920732,380.106888 552.920732,377 C552.920732,373.893112 554.991463,371.821853 558.097561,371.821853 L660.59878,371.821853 C663.704878,371.821853 665.77561,373.893112 665.77561,377 C665.77561,380.106888 663.704878,382.178147 660.59878,382.178147 L660.59878,382.178147 Z" id="Shape"></path>
                    <path d="M558.097561,382.178147 C556.026829,382.178147 554.991463,381.142518 553.956098,379.071259 C552.920732,377 552.920732,373.893112 556.026829,371.821853 L650.245122,319.004755 C652.315854,317.969125 655.421951,317.969125 657.492683,321.076013 C658.528049,323.147272 658.528049,326.25416 655.421951,328.325419 L561.203659,381.142518 C560.168293,382.178147 559.132927,382.178147 558.097561,382.178147 L558.097561,382.178147 Z" id="Shape"></path>
                    <path d="M652.315854,434.995245 C651.280488,434.995245 650.245122,434.995245 650.245122,433.959616 L556.026829,381.142518 C553.956098,380.106888 552.920732,377 553.956098,373.893112 C554.991463,371.821853 558.097561,370.786224 561.203659,371.821853 L655.421951,424.638952 C657.492683,425.674581 658.528049,428.781469 657.492683,431.888357 C655.421951,433.959616 654.386585,434.995245 652.315854,434.995245 L652.315854,434.995245 Z" id="Shape"></path>
                    <path d="M288.902439,382.178147 L186.40122,382.178147 C183.295122,382.178147 181.22439,380.106888 181.22439,377 C181.22439,373.893112 183.295122,371.821853 186.40122,371.821853 L288.902439,371.821853 C292.008537,371.821853 294.079268,373.893112 294.079268,377 C294.079268,380.106888 292.008537,382.178147 288.902439,382.178147 L288.902439,382.178147 Z" id="Shape"></path>
                    <path d="M194.684146,434.995245 C192.613415,434.995245 191.578049,433.959616 190.542683,431.888357 C189.507317,429.817098 189.507317,426.71021 192.613415,424.638952 L286.831707,371.821853 C288.902439,370.786224 292.008537,370.786224 294.079268,373.893112 C295.114634,375.964371 295.114634,379.071259 292.008537,381.142518 L197.790244,433.959616 C196.754878,434.995245 195.719512,434.995245 194.684146,434.995245 L194.684146,434.995245 Z" id="Shape"></path>
                    <path d="M288.902439,382.178147 C287.867073,382.178147 286.831707,382.178147 286.831707,381.142518 L192.613415,328.325419 C190.542683,327.28979 189.507317,324.182902 190.542683,321.076013 C191.578049,319.004755 194.684146,317.969125 197.790244,319.004755 L292.008537,371.821853 C294.079268,372.857482 295.114634,375.964371 294.079268,379.071259 C292.008537,381.142518 290.973171,382.178147 288.902439,382.178147 L288.902439,382.178147 Z" id="Shape"></path>
                    <path d="M202.967073,224.762481 C200.896341,224.762481 198.82561,222.691222 197.790244,220.619964 C197.790244,217.513075 198.82561,215.441817 201.931707,214.406187 L272.336585,201.978635 C275.442683,201.978635 277.513415,203.014264 278.54878,206.121152 C278.54878,209.22804 277.513415,211.299299 274.407317,212.334928 L202.967073,224.762481 L202.967073,224.762481 L202.967073,224.762481 Z" id="Shape"></path>
                    <path d="M644.032927,225.79811 L642.997561,225.79811 L573.628049,209.22804 C570.521951,208.192411 569.486585,206.121152 569.486585,203.014264 C570.521951,199.907376 572.592683,198.871747 575.69878,198.871747 L645.068293,215.441817 C648.17439,216.477446 649.209756,218.548705 649.209756,221.655593 C648.17439,224.762481 646.103659,225.79811 644.032927,225.79811 L644.032927,225.79811 Z" id="Shape"></path>
                    <path d="M491.834146,530.273148 C489.763415,530.273148 487.692683,529.237519 486.657317,527.16626 C486.657317,527.16626 475.268293,503.346784 423.5,503.346784 C370.696341,503.346784 360.342683,527.16626 360.342683,527.16626 C359.307317,530.273148 356.20122,531.308778 353.095122,530.273148 C349.989024,529.237519 348.953659,526.130631 349.989024,524.059372 C349.989024,523.023743 362.413415,494.02612 422.464634,494.02612 C482.515854,494.02612 494.940244,523.023743 494.940244,524.059372 C495.97561,527.16626 494.940244,529.237519 491.834146,530.273148 C492.869512,529.237519 491.834146,530.273148 491.834146,530.273148 L491.834146,530.273148 Z" id="Shape"></path>
                </g>
            </g>
        </g>
    </g>
</svg>