<?xml version="1.0" encoding="UTF-8" standalone="no"?>
<svg width="573px" height="511px" viewBox="0 0 573 511" version="1.1" xmlns="http://www.w3.org/2000/svg" xmlns:xlink="http://www.w3.org/1999/xlink">
    <!-- Generator: Sketch 40.3 (33839) - http://www.bohemiancoding.com/sketch -->
    <title>tense-full</title>
    <desc>Created with Sketch.</desc>
    <defs></defs>
    <g id="Meeting-Page-Concept-1-" stroke="none" stroke-width="1" fill="none" fill-rule="evenodd">
        <g id="Desktop-HD" transform="translate(-427.000000, -222.000000)" stroke-width="5" stroke="#FFFFFF" fill="#FFFFFF">
            <g id="Full-Avatar" transform="translate(419.000000, 224.000000)">
                <g id="tense-full" transform="translate(10.000000, 0.000000)">
                    <g id="Group">
                        <path d="M443.403659,256.975179 L374.707317,256.975179 C372.62561,256.975179 371.237805,255.585108 371.237805,253.5 C371.237805,251.414892 372.62561,250.024821 374.707317,250.024821 L443.403659,250.024821 C445.485366,250.024821 446.873171,251.414892 446.873171,253.5 C446.873171,255.585108 445.485366,256.975179 443.403659,256.975179 L443.403659,256.975179 Z" id="Shape"></path>
                        <path d="M374.707317,256.975179 C373.319512,256.975179 372.62561,256.280144 371.931707,254.890072 C371.237805,253.5 371.237805,251.414892 373.319512,250.024821 L436.464634,214.57799 C437.852439,213.882954 439.934146,213.882954 441.321951,215.968062 C442.015854,217.358134 442.015854,219.443241 439.934146,220.833313 L376.789024,256.280144 C376.095122,256.975179 375.40122,256.975179 374.707317,256.975179 L374.707317,256.975179 Z" id="Shape"></path>
                        <path d="M437.852439,292.42201 C437.158537,292.42201 436.464634,292.42201 436.464634,291.726974 L373.319512,256.280144 C371.931707,255.585108 371.237805,253.5 371.931707,251.414892 C372.62561,250.024821 374.707317,249.329785 376.789024,250.024821 L439.934146,285.471651 C441.321951,286.166687 442.015854,288.251794 441.321951,290.336902 C439.934146,291.726974 439.240244,292.42201 437.852439,292.42201 L437.852439,292.42201 Z" id="Shape"></path>
                        <path d="M194.292683,256.975179 L125.596341,256.975179 C123.514634,256.975179 122.126829,255.585108 122.126829,253.5 C122.126829,251.414892 123.514634,250.024821 125.596341,250.024821 L194.292683,250.024821 C196.37439,250.024821 197.762195,251.414892 197.762195,253.5 C197.762195,255.585108 196.37439,256.975179 194.292683,256.975179 L194.292683,256.975179 Z" id="Shape"></path>
                        <path d="M131.147561,292.42201 C129.759756,292.42201 129.065854,291.726974 128.371951,290.336902 C127.678049,288.94683 127.678049,286.861723 129.759756,285.471651 L192.904878,250.024821 C194.292683,249.329785 196.37439,249.329785 197.762195,251.414892 C198.456098,252.804964 198.456098,254.890072 196.37439,256.280144 L133.229268,291.726974 C132.535366,292.42201 131.841463,292.42201 131.147561,292.42201 L131.147561,292.42201 Z" id="Shape"></path>
                        <path d="M194.292683,256.975179 C193.59878,256.975179 192.904878,256.975179 192.904878,256.280144 L129.759756,220.833313 C128.371951,220.138277 127.678049,218.05317 128.371951,215.968062 C129.065854,214.57799 131.147561,213.882954 133.229268,214.57799 L196.37439,250.024821 C197.762195,250.719856 198.456098,252.804964 197.762195,254.890072 C196.37439,256.280144 195.680488,256.975179 194.292683,256.975179 L194.292683,256.975179 Z" id="Shape"></path>
                        <path d="M136.69878,151.329724 C135.310976,151.329724 133.923171,149.939653 133.229268,148.549581 C133.229268,146.464473 133.923171,145.074401 136.004878,144.379365 L183.190244,136.038935 C185.271951,136.038935 186.659756,136.733971 187.353659,138.819078 C187.353659,140.904186 186.659756,142.294258 184.578049,142.989294 L136.69878,151.329724 L136.69878,151.329724 L136.69878,151.329724 Z" id="Shape" transform="translate(160.291463, 143.684330) rotate(32.000000) translate(-160.291463, -143.684330) "></path>
                        <path d="M432.30122,152.02476 L431.607317,152.02476 L385.115854,140.904186 C383.034146,140.20915 382.340244,138.819078 382.340244,136.733971 C383.034146,134.648863 384.421951,133.953827 386.503659,133.953827 L432.995122,145.074401 C435.076829,145.769437 435.770732,147.159509 435.770732,149.244617 C435.076829,151.329724 433.689024,152.02476 432.30122,152.02476 L432.30122,152.02476 Z" id="Shape" transform="translate(409.055488, 142.989294) rotate(318.000000) translate(-409.055488, -142.989294) "></path>
                        <path d="M284.5,506.493064 C183.884146,506.493064 92.9829268,446.719977 52.7365854,354.280204 C13.8780488,353.585168 0.693902439,339.68445 0.693902439,298.677333 C0.693902439,266.010646 9.71463415,250.719856 31.9195122,245.854605 C35.3890244,110.322607 147.80122,0.506936363 284.5,0.506936363 C421.19878,0.506936363 533.610976,110.322607 537.080488,245.159569 C559.285366,250.024821 568.306098,265.31561 568.306098,297.982297 C568.306098,338.294378 555.121951,352.195096 516.263415,353.585168 C476.017073,446.719977 385.115854,506.493064 284.5,506.493064 L284.5,506.493064 Z M58.9817073,350.109989 C97.1463415,440.464654 185.965854,499.542705 284.5,499.542705 C383.728049,499.542705 472.547561,440.464654 510.712195,349.414953 C511.406098,348.024881 512.793902,347.329845 514.87561,347.329845 C546.795122,347.329845 561.367073,339.68445 561.367073,298.677333 C561.367073,263.925538 550.958537,254.890072 533.610976,252.109928 C532.223171,252.109928 530.835366,250.719856 530.835366,248.634749 C528.059756,115.882894 417.729268,7.45729525 284.5,7.45729525 C151.270732,7.45729525 40.9402439,115.882894 38.8585366,248.634749 C38.8585366,250.024821 37.4707317,251.414892 36.0829268,252.109928 C18.0414634,255.585108 8.32682927,263.925538 8.32682927,298.677333 C8.32682927,339.68445 22.8987805,346.634809 54.8182927,347.329845 L56.9,347.329845 C57.5939024,348.024881 58.2878049,348.719917 58.9817073,350.109989 L58.9817073,350.109989 Z" id="Shape"></path>
                        <path d="M326.828049,354.280204 C326.828049,354.280204 319.195122,338.294378 284.5,338.294378 C249.110976,338.294378 242.171951,354.280204 242.171951,354.280204 C241.478049,356.365312 239.396341,357.060347 237.314634,356.365312 C235.232927,355.670276 234.539024,353.585168 235.232927,352.195096 C235.232927,351.50006 243.559756,332.039055 283.806098,332.039055 C324.052439,332.039055 332.379268,351.50006 332.379268,352.195096 C333.073171,354.280204 332.379268,355.670276 330.297561,356.365312 C328.909756,356.365312 327.521951,355.670276 326.828049,354.280204 Z" id="Shape"></path>
                    </g>
                </g>
            </g>
        </g>
    </g>
</svg>