<?xml version="1.0" encoding="UTF-8" standalone="no"?>
<svg width="503px" height="454px" viewBox="0 0 503 454" version="1.1" xmlns="http://www.w3.org/2000/svg" xmlns:xlink="http://www.w3.org/1999/xlink">
    <!-- Generator: Sketch 42 (36781) - http://www.bohemiancoding.com/sketch -->
    <title>great</title>
    <desc>Created with Sketch.</desc>
    <defs></defs>
    <g id="Page-1" stroke="none" stroke-width="1" fill="none" fill-rule="evenodd">
        <g id="Desktop" transform="translate(-144.000000, -318.000000)" fill-rule="nonzero" stroke="#FFFFFF" stroke-width="3" fill="#FFFFFF">
            <g id="great" transform="translate(145.000000, 319.000000)">
                <g id="Group">
                    <g id="Wink" transform="translate(157.293497, 216.168717) rotate(180.000000) translate(-157.293497, -216.168717) translate(116.871705, 194.200351)">
                        <path d="M0.633774257,22.2568378 C0.633774257,20.5020323 1.81879454,19.3321617 3.59632371,19.3321617 L77.6600667,19.3321617 C79.4375967,19.3321617 80.622617,20.5020323 80.622617,22.2568378 C80.622617,24.0116433 79.4375967,25.1815139 77.6600667,25.1815139 L3.59632371,25.1815139 C2.41130426,25.1815139 0.633774257,23.4267084 0.633774257,22.2568378" id="Shape"></path>
                        <path d="M4.43783782,18.2570099 C4.43783782,18.2570099 21.3291785,10.2651271 29.5724304,7.35427533 C37.8156824,4.44342351 53.6652765,0.873848436 53.6652765,0.873848436 C54.8467352,0.456652521 55.8427237,1.20324956 56.1552474,2.74034077 C56.4677712,4.27743198 55.8884811,5.58029038 54.7070225,5.99748629 C54.7070225,5.99748629 38.7985163,9.36921995 31.185121,12.0576572 C23.5717257,14.7460944 5.47958374,23.3806477 5.47958374,23.3806477 C4.69194502,23.6587782 3.19796263,22.5388829 2.98961341,21.5141552 C2.67708967,19.977064 3.25637974,18.6742056 4.43783782,18.2570099 Z" id="Shape-Copy"></path>
                        <path d="M3.5591032,38.400039 C3.5591032,38.400039 22.3114266,30.8579964 30.5546785,27.9471446 C38.7979305,25.0362928 52.7865419,21.0168776 52.7865419,21.0168776 C53.9680006,20.5996816 54.9639891,21.3462787 55.2765128,22.8833699 C55.5890366,24.4204611 55.0097465,25.7233195 53.8282878,26.1405154 C53.8282878,26.1405154 36.3070911,31.3128093 28.6936958,34.0012465 C21.0803005,36.6896838 4.60084912,43.5236768 4.60084912,43.5236768 C3.8132104,43.8018073 2.319228,42.681912 2.11087879,41.6571843 C1.79835505,40.1200931 2.37764512,38.8172347 3.5591032,38.400039 Z" id="Shape-Copy-2" transform="translate(28.693696, 32.234620) scale(1, -1) translate(-28.693696, -32.234620) "></path>
                    </g>
                    <path d="M359.547959,267.882118 C357.716645,267.882118 356.495769,266.645431 356.495769,264.790403 L356.495769,187.497536 C356.495769,185.642507 357.716645,184.405821 359.547959,184.405821 C361.379272,184.405821 362.600149,185.642507 362.600149,187.497536 L362.600149,264.790403 C362.600149,266.027089 361.379272,267.882118 359.547959,267.882118 L359.547959,267.882118 Z" id="Shape"></path>
                    <path d="M119.923895,166.664218 C118.703018,166.664218 117.482142,165.427532 116.871705,164.190846 C116.871705,162.335818 117.482142,161.099132 119.313456,160.480789 L160.823237,153.060674 C162.654551,152.44233 163.875427,153.679017 164.485866,155.534046 C164.485866,157.389074 163.875427,158.62576 162.044113,159.244103 L119.923895,166.664218 L119.923895,166.664218 L119.923895,166.664218 Z" id="Shape"></path>
                    <path d="M380.302849,135.556729 L379.692411,135.556729 L338.793068,125.663242 C336.961754,125.044899 336.351316,123.808214 336.351316,121.953185 C336.961754,120.098156 338.18263,119.479813 340.013944,119.479813 L380.913287,129.3733 C382.744601,129.991642 383.355039,131.228329 383.355039,133.083358 C382.744601,134.938386 381.523725,135.556729 380.302849,135.556729 L380.302849,135.556729 Z" id="Shape"></path>
                    <path d="M323.532119,303.127665 L177.027009,303.127665 C175.195694,303.127665 173.974819,301.890979 173.974819,300.03595 C173.974819,298.180922 175.195694,296.944236 177.027009,296.944236 L323.532119,296.944236 C325.363433,296.944236 326.584308,298.180922 326.584308,300.03595 C326.584308,301.890979 324.752995,303.127665 323.532119,303.127665 L323.532119,303.127665 Z" id="Shape"></path>
                    <path d="M250.279564,376.710475 C186.183578,376.710475 173.974819,350.740071 173.974819,299.417607 C173.974819,297.562578 175.195694,296.325893 177.027009,296.325893 C178.858322,296.325893 180.079199,297.562578 180.079199,299.417607 C180.079199,348.266699 190.456643,370.527045 250.279564,370.527045 C310.102484,370.527045 320.479929,348.885042 320.479929,300.03595 C320.479929,298.180922 321.700805,296.944236 323.532119,296.944236 C325.363433,296.944236 326.584308,298.180922 326.584308,300.03595 C326.584308,350.740071 314.375549,376.710475 250.279564,376.710475 L250.279564,376.710475 Z" id="Shape"></path>
                    <path d="M250.279564,450.911627 C161.76606,450.911627 81.7986866,397.734134 46.393285,315.494524 C12.2087592,314.876181 0.61043796,302.509322 0.61043796,266.027089 C0.61043796,236.964971 8.54613144,223.361426 28.0801461,219.033025 C31.1323359,98.4561529 130.023286,0.757968762 250.279564,0.757968762 C370.535842,0.757968762 469.426792,98.4561529 472.478982,218.414683 C492.012996,222.743083 499.94869,236.346627 499.94869,265.408746 C499.94869,301.272636 488.350368,313.639495 454.165843,314.876181 C418.760441,397.734134 338.793068,450.911627 250.279564,450.911627 L250.279564,450.911627 Z M51.8872266,311.784466 C85.4613144,392.169048 163.597373,444.728198 250.279564,444.728198 C337.572192,444.728198 415.708251,392.169048 449.282339,311.166123 C449.892777,309.929438 451.113653,308.692751 452.944967,309.311094 C481.025112,309.311094 493.84431,302.509322 493.84431,266.027089 C493.84431,235.109942 484.687741,227.071484 469.426792,224.598112 C468.205916,224.598112 466.98504,223.361426 466.98504,221.506397 C464.543287,103.402896 367.483652,6.94139814 250.279564,6.94139814 C133.075475,6.94139814 36.0158396,103.402896 34.1845257,221.506397 C34.1845257,222.743083 32.9636498,223.979769 31.7427739,224.598112 C15.871387,227.689827 7.32525553,235.109942 7.32525553,266.027089 C7.32525553,302.509322 20.1444527,308.692751 48.2245989,309.311094 L50.0559127,309.311094 C50.6663507,309.929438 51.2767887,310.54778 51.8872266,311.784466 L51.8872266,311.784466 Z" id="Shape"></path>
                </g>
            </g>
        </g>
    </g>
</svg>