<?xml version="1.0" encoding="UTF-8" standalone="no"?>
<svg width="144px" height="129px" viewBox="0 0 144 129" version="1.1" xmlns="http://www.w3.org/2000/svg" xmlns:xlink="http://www.w3.org/1999/xlink">
    <!-- Generator: Sketch 42 (36781) - http://www.bohemiancoding.com/sketch -->
    <title>Kiss</title>
    <desc>Created with Sketch.</desc>
    <defs></defs>
    <g id="Landing-Page-Copy" stroke="none" stroke-width="1" fill="none" fill-rule="evenodd">
        <g id="Landing-Page" transform="translate(-458.000000, -3079.000000)" stroke="#525F7F" stroke-width="3" fill="#525F7F" fill-rule="nonzero">
            <g id="Section-6" transform="translate(-16.000000, 2993.000000)">
                <g id="Kiss" transform="translate(476.000000, 88.000000)">
                    <path d="M39.4390244,74.1541724 C38.9268293,74.1541724 38.5853659,73.8114026 38.5853659,73.297248 L38.5853659,51.8741369 C38.5853659,51.3599822 38.9268293,51.0172125 39.4390244,51.0172125 C39.9512195,51.0172125 40.2926829,51.3599822 40.2926829,51.8741369 L40.2926829,73.297248 C40.2926829,73.6400178 39.7804878,74.1541724 39.4390244,74.1541724 Z" id="Shape"></path>
                    <path d="M109.097561,63.3569244 L92.195122,63.3569244 C91.6829268,63.3569244 91.3414634,63.0141547 91.3414634,62.5 C91.3414634,61.9858453 91.6829268,61.6430756 92.195122,61.6430756 L109.097561,61.6430756 C109.609756,61.6430756 109.95122,61.9858453 109.95122,62.5 C109.95122,63.0141547 109.609756,63.3569244 109.097561,63.3569244 Z" id="Shape"></path>
                    <path d="M33.6341463,37.3064214 C33.2926829,37.3064214 32.9512195,36.9636516 32.7804878,36.6208818 C32.7804878,36.1067272 32.9512195,35.7639574 33.4634146,35.5925725 L45.0731707,33.5359538 C45.5853659,33.5359538 45.9268293,33.7073387 46.097561,34.2214934 C46.097561,34.7356481 45.9268293,35.0784178 45.4146341,35.2498027 L33.6341463,37.3064214 L33.6341463,37.3064214 Z" id="Shape"></path>
                    <path d="M106.365854,37.4778063 L106.195122,37.4778063 L94.7560976,34.7356481 C94.2439024,34.5642632 94.0731707,34.2214934 94.0731707,33.7073387 C94.2439024,33.1931841 94.5853659,33.0217992 95.097561,33.0217992 L106.536585,35.7639574 C107.04878,35.9353423 107.219512,36.2781121 107.219512,36.7922667 C107.04878,37.3064214 106.707317,37.4778063 106.365854,37.4778063 Z" id="Shape"></path>
                    <path d="M70,124.884099 C45.2439024,124.884099 22.8780488,110.144999 12.9756098,87.3508088 C3.41463415,87.1794239 0.170731707,83.7517262 0.170731707,73.6400178 C0.170731707,65.584928 2.3902439,61.8144604 7.85365854,60.6147662 C8.70731707,27.194713 36.3658537,0.115900572 70,0.115900572 C103.634146,0.115900572 131.292683,27.194713 132.146341,60.4433813 C137.609756,61.6430756 139.829268,65.4135431 139.829268,73.4686329 C139.829268,83.4089564 136.585366,86.8366542 127.02439,87.1794239 C117.121951,110.144999 94.7560976,124.884099 70,124.884099 Z M14.5121951,86.3224995 C23.902439,108.602535 45.7560976,123.170251 70,123.170251 C94.4146341,123.170251 116.268293,108.602535 125.658537,86.1511146 C125.829268,85.8083448 126.170732,85.63696 126.682927,85.63696 C134.536585,85.63696 138.121951,83.7517262 138.121951,73.6400178 C138.121951,65.0707733 135.560976,62.8427698 131.292683,62.1572302 C130.95122,62.1572302 130.609756,61.8144604 130.609756,61.3003058 C129.926829,28.5657921 102.780488,1.82974946 70,1.82974946 C37.2195122,1.82974946 10.0731707,28.5657921 9.56097561,61.3003058 C9.56097561,61.6430756 9.2195122,61.9858453 8.87804878,62.1572302 C4.43902439,63.0141547 2.04878049,65.0707733 2.04878049,73.6400178 C2.04878049,83.7517262 5.63414634,85.4655751 13.4878049,85.63696 L14,85.63696 C14.1707317,85.8083448 14.3414634,85.9797297 14.5121951,86.3224995 Z" id="Shape"></path>
                    <path d="M72.2195122,91.1212764 C70.3414634,91.1212764 68.4634146,90.4357368 67.097561,89.2360426 C66.7560976,88.8932728 66.7560976,88.3791182 67.097561,88.0363484 C67.4390244,87.6935786 67.9512195,87.6935786 68.2926829,88.0363484 C69.3170732,89.0646577 70.6829268,89.5788124 72.2195122,89.5788124 C75.2926829,89.5788124 77.8536585,87.3508088 77.8536585,84.6086506 C77.8536585,81.8664924 75.2926829,79.6384889 72.2195122,79.6384889 C71.7073171,79.6384889 71.3658537,79.2957191 71.3658537,78.7815644 C71.3658537,78.2674097 71.7073171,77.92464 72.2195122,77.92464 C75.2926829,77.92464 77.8536585,75.6966364 77.8536585,72.9544782 C77.8536585,70.21232 75.2926829,67.6415467 72.2195122,67.6415467 C70.6829268,67.6415467 69.1463415,68.3270862 67.9512195,69.3553955 C67.6097561,69.6981653 67.097561,69.6981653 66.7560976,69.3553955 C66.4146341,69.0126258 66.4146341,68.4984711 66.7560976,68.1557013 C68.1219512,66.7846222 70.1707317,65.9276978 72.2195122,65.9276978 C76.1463415,65.9276978 79.5609756,69.0126258 79.5609756,72.6117084 C79.5609756,75.1824818 78.0243902,77.2391004 75.804878,78.4387946 C78.0243902,79.6384889 79.5609756,81.8664924 79.5609756,84.2658808 C79.3902439,88.0363484 76.1463415,91.1212764 72.2195122,91.1212764 Z" id="Shape"></path>
                </g>
            </g>
        </g>
    </g>
</svg>