<?xml version="1.0" encoding="UTF-8" standalone="no"?>
<svg width="106px" height="95px" viewBox="0 0 106 95" version="1.1" xmlns="http://www.w3.org/2000/svg" xmlns:xlink="http://www.w3.org/1999/xlink">
    <!-- Generator: Sketch 42 (36781) - http://www.bohemiancoding.com/sketch -->
    <title>happy</title>
    <desc>Created with Sketch.</desc>
    <defs></defs>
    <g id="Landing-Page-Copy" stroke="none" stroke-width="1" fill="none" fill-rule="evenodd">
        <g id="Landing-Page" transform="translate(-331.000000, -3121.000000)" stroke-width="3" stroke="#525F7F" fill="#525F7F" fill-rule="nonzero">
            <g id="noun_206456_cc-(1)" transform="translate(332.000000, 3123.000000)">
                <g id="happy">
                    <path d="M28.7316799,54.1869023 C28.3560159,54.1869023 28.1055732,53.9377671 28.1055732,53.5640644 L28.1055732,37.9931189 C28.1055732,37.6194162 28.3560159,37.3702811 28.7316799,37.3702811 C29.107344,37.3702811 29.3577866,37.6194162 29.3577866,37.9931189 L29.3577866,53.5640644 C29.3577866,53.8131996 28.9821226,54.1869023 28.7316799,54.1869023 Z" id="Shape"></path>
                    <path d="M73.811362,54.1869023 C73.435698,54.1869023 73.1852553,53.9377671 73.1852553,53.5640644 L73.1852553,37.9931189 C73.1852553,37.6194162 73.435698,37.3702811 73.811362,37.3702811 C74.187026,37.3702811 74.4374687,37.6194162 74.4374687,37.9931189 L74.4374687,53.5640644 C74.4374687,53.8131996 74.187026,54.1869023 73.811362,54.1869023 Z" id="Shape"></path>
                    <path d="M24.9750398,26.4407391 C24.7245971,26.4407391 24.4741544,26.191604 24.3489331,25.9424688 C24.3489331,25.5687661 24.4741544,25.319631 24.8498184,25.1950634 L33.3648695,23.7002527 C33.7405335,23.5756851 33.9909762,23.8248202 34.1161975,24.1985229 C34.1161975,24.5722256 33.9909762,24.8213607 33.6153122,24.9459283 L24.9750398,26.4407391 L24.9750398,26.4407391 Z" id="Shape"></path>
                    <path d="M78.4445516,26.9066056 L78.3193302,26.9066056 L69.9295005,24.9135246 C69.5538365,24.788957 69.4286151,24.5398219 69.4286151,24.1661192 C69.5538365,23.7924165 69.8042792,23.667849 70.1799432,23.667849 L78.5697729,25.66093 C78.9454369,25.7854976 79.0706583,26.0346327 79.0706583,26.4083354 C78.9454369,26.7820381 78.6949942,26.9066056 78.4445516,26.9066056 Z" id="Shape"></path>
                    <path d="M51.9445857,64.1990203 C44.681748,64.1990203 43.1790919,60.7111285 43.1790919,60.5865609 C43.0538706,60.2128582 43.1790919,59.9637231 43.554756,59.8391555 C43.93042,59.7145879 44.1808626,59.8391555 44.306084,60.2128582 C44.306084,60.2128582 45.6835187,63.0779122 51.9445857,63.0779122 C58.330874,63.0779122 59.5830874,60.2128582 59.5830874,60.2128582 C59.7083087,59.8391555 60.0839727,59.7145879 60.4596367,59.8391555 C60.8353007,59.9637231 60.9605221,60.3374258 60.8353007,60.5865609 C60.7100794,60.7111285 59.2074233,64.1990203 51.9445857,64.1990203 Z" id="Shape"></path>
                    <path d="M51.7724063,90.6851987 C33.6153122,90.6851987 17.2113167,79.9723881 9.94847907,63.404902 C2.93608408,63.2803345 0.556878637,60.7889832 0.556878637,53.4394969 C0.556878637,47.5848213 2.18475605,44.8443349 6.1918389,43.972362 C6.81794559,19.6816869 27.1038025,1.16860779e-05 51.7724063,1.16860779e-05 C76.4410101,1.16860779e-05 96.7268671,19.6816869 97.3529738,43.8477944 C101.360057,44.7197674 102.987934,47.4602538 102.987934,53.3149293 C102.987934,60.5398481 100.608729,63.0311994 93.5963336,63.2803345 C86.3334959,79.9723881 69.9295005,90.6851987 51.7724063,90.6851987 Z M11.0754711,62.6574967 C17.9626448,78.8512801 33.9909762,89.439523 51.7724063,89.439523 C69.6790578,89.439523 85.7073892,78.8512801 92.5945629,62.5329291 C92.7197842,62.283794 92.9702269,62.0346588 93.3458909,62.1592264 C99.1060725,62.1592264 101.735721,60.7889832 101.735721,53.4394969 C101.735721,47.2111187 99.8574005,45.5917403 96.7268671,45.0934701 C96.4764244,45.0934701 96.2259817,44.8443349 96.2259817,44.4706322 C95.7250964,20.6782274 75.8149034,1.24568733 51.7724063,1.24568733 C27.7299092,1.24568733 7.81971631,20.6782274 7.44405229,44.4706322 C7.44405229,44.7197674 7.19360961,44.9689025 6.94316693,45.0934701 C3.68741211,45.7163079 1.93431337,47.2111187 1.93431337,53.4394969 C1.93431337,60.7889832 4.56396149,62.0346588 10.3241431,62.1592264 L10.6998071,62.1592264 C10.8250284,62.283794 10.9502498,62.4083615 11.0754711,62.6574967 Z" id="Shape"></path>
                </g>
            </g>
        </g>
    </g>
</svg>