<?xml version="1.0" encoding="UTF-8" standalone="no"?>
<svg width="195px" height="176px" viewBox="0 0 195 176" version="1.1" xmlns="http://www.w3.org/2000/svg" xmlns:xlink="http://www.w3.org/1999/xlink">
    <!-- Generator: Sketch 42 (36781) - http://www.bohemiancoding.com/sketch -->
    <title>Yolko Motivated</title>
    <desc>Created with Sketch.</desc>
    <defs></defs>
    <g id="Landing-Page-Copy" stroke="none" stroke-width="1" fill="none" fill-rule="evenodd">
        <g id="Landing-Page" transform="translate(-617.000000, -3035.000000)" stroke="#525F7F" stroke-width="3" fill="#525F7F">
            <g id="Section-6" transform="translate(-16.000000, 2993.000000)">
                <g id="Yolko-Motivated" transform="translate(635.000000, 44.000000)">
                    <path d="M53.8762502,102.144126 C53.1775152,102.144126 52.7116919,101.67299 52.7116919,100.966286 L52.7116919,71.5202956 C52.7116919,70.8135919 53.1775152,70.342456 53.8762502,70.342456 C54.5749852,70.342456 55.0408085,70.8135919 55.0408085,71.5202956 L55.0408085,100.966286 C55.0408085,101.437422 54.3420735,102.144126 53.8762502,102.144126 L53.8762502,102.144126 Z" id="Shape"></path>
                    <path d="M137.336429,102.144126 C136.637694,102.144126 136.171871,101.67299 136.171871,100.966286 L136.171871,71.5202956 C136.171871,70.8135919 136.637694,70.342456 137.336429,70.342456 C138.035164,70.342456 138.500987,70.8135919 138.500987,71.5202956 L138.500987,100.966286 C138.500987,101.437422 138.035164,102.144126 137.336429,102.144126 L137.336429,102.144126 Z" id="Shape"></path>
                    <path d="M45.823075,51.4635544 C45.3572517,51.4635544 44.8914284,50.9924185 44.6585167,50.5212827 C44.6585167,49.8145789 44.8914284,49.3434431 45.5901634,49.1078752 L61.4281562,46.2810601 C62.1268912,46.0454922 62.5927145,46.516628 62.8256262,47.2233318 C62.8256262,47.9300355 62.5927145,48.4011714 61.8939796,48.6367393 L45.823075,51.4635544 L45.823075,51.4635544 L45.823075,51.4635544 Z" id="Shape"></path>
                    <path d="M144.888335,51.6135578 L144.655423,51.6135578 L129.050342,47.844471 C128.351607,47.6089031 128.118696,47.1377672 128.118696,46.4310635 C128.351607,45.7243597 128.817431,45.4887918 129.516165,45.4887918 L145.121247,49.2578785 C145.819982,49.4934465 146.052893,49.9645823 146.052893,50.6712861 C145.819982,51.3779898 145.354158,51.6135578 144.888335,51.6135578 L144.888335,51.6135578 Z" id="Shape"></path>
                    <path d="M123.685078,115.095562 L67.78628,115.095562 C67.087545,115.095562 66.6217217,114.624427 66.6217217,113.917723 C66.6217217,113.211019 67.087545,112.739883 67.78628,112.739883 L123.685078,112.739883 C124.383813,112.739883 124.849637,113.211019 124.849637,113.917723 C124.849637,114.624427 124.150902,115.095562 123.685078,115.095562 L123.685078,115.095562 Z" id="Shape"></path>
                    <path d="M95.7356792,143.363713 C71.2799549,143.363713 66.6217217,133.46986 66.6217217,113.917723 C66.6217217,113.211019 67.087545,112.739883 67.78628,112.739883 C68.485015,112.739883 68.9508383,113.211019 68.9508383,113.917723 C68.9508383,132.527589 72.9103365,141.008034 95.7356792,141.008034 C118.561022,141.008034 122.52052,132.763157 122.52052,114.153291 C122.52052,113.446587 122.986343,112.975451 123.685078,112.975451 C124.383813,112.975451 124.849637,113.446587 124.849637,114.153291 C124.849637,133.46986 120.191403,143.363713 95.7356792,143.363713 L95.7356792,143.363713 Z" id="Shape"></path>
                    <path d="M95.2608689,171.660852 C61.4886782,171.660852 30.9772508,151.402011 17.4683745,120.071477 C4.42532154,119.835909 0,115.12455 0,101.226043 C0,90.1543506 3.02785158,84.9718563 10.4810247,83.3228809 C11.645583,37.3871359 49.3772719,0.167404014 95.2608689,0.167404014 C141.144466,0.167404014 178.876155,37.3871359 180.040713,83.0873129 C187.493886,84.7362884 190.521738,89.9187827 190.521738,100.990475 C190.521738,114.653415 186.096416,119.364773 173.053363,119.835909 C159.544487,151.402011 129.03306,171.660852 95.2608689,171.660852 L95.2608689,171.660852 Z M19.5645794,118.658069 C32.3747207,149.281899 62.1874132,169.305173 95.2608689,169.305173 C128.567236,169.305173 158.379929,149.281899 171.19007,118.422501 C171.422982,117.951366 171.888805,117.48023 172.58754,117.715798 C183.301476,117.715798 188.192621,115.12455 188.192621,101.226043 C188.192621,89.4476469 184.698946,86.3852639 178.876155,85.4429922 C178.410331,85.4429922 177.944508,84.9718563 177.944508,84.2651526 C177.012861,39.2716792 139.979908,2.52308324 95.2608689,2.52308324 C50.5418302,2.52308324 13.5088763,39.2716792 12.8101413,84.2651526 C12.8101413,84.7362884 12.344318,85.2074243 11.8784947,85.4429922 C5.8227915,86.6208318 2.56202826,89.4476469 2.56202826,101.226043 C2.56202826,115.12455 7.45317311,117.48023 18.1671095,117.715798 L18.8658444,117.715798 C19.0987561,117.951366 19.3316678,118.186933 19.5645794,118.658069 L19.5645794,118.658069 Z" id="Shape"></path>
                </g>
            </g>
        </g>
    </g>
</svg>