<svg xmlns="http://www.w3.org/2000/svg" width="146" height="78" viewBox="0 0 146 78">
  <g fill="none" fill-rule="evenodd" transform="translate(0 3)">
    <ellipse cx="33" cy="37" fill="#FFC700" rx="33" ry="36"/>
    <ellipse cx="39" cy="36" stroke="#000" stroke-width="5" rx="33" ry="36"/>
    <path fill="#FFF" d="M57.0385,52.089 L57.0385,64 L49.7715,64 L49.7715,52.089 L38.4195,32.6745 L44.8265,32.6745 C45.4571698,32.6745 45.9552482,32.8214152 46.32075,33.11525 C46.6862518,33.4090848 46.9908321,33.785331 47.2345,34.244 L51.6635,43.36 C52.0361685,44.0766702 52.3729985,44.7467469 52.674,45.37025 C52.9750015,45.9937531 53.2401655,46.606497 53.4695,47.2085 C53.6845011,46.5921636 53.9317486,45.9722531 54.21125,45.34875 C54.4907514,44.7252469 54.8168315,44.0623368 55.1895,43.36 L59.5755,34.244 C59.6758338,34.0576657 59.7976659,33.8713343 59.941,33.685 C60.0843341,33.4986657 60.252749,33.3302508 60.44625,33.17975 C60.639751,33.0292492 60.8619154,32.9074171 61.11275,32.81425 C61.3635846,32.7210829 61.6394985,32.6745 61.9405,32.6745 L68.3905,32.6745 L57.0385,52.089 Z M75.335,41.3605 C77.0263418,41.3605 78.5671597,41.625664 79.9575,42.156 C81.3478403,42.686336 82.5410784,43.4459951 83.53725,44.435 C84.5334216,45.4240049 85.3074139,46.6244096 85.85925,48.03625 C86.4110861,49.4480904 86.687,51.0354912 86.687,52.7985 C86.687,54.5758422 86.4110861,56.1775762 85.85925,57.60375 C85.3074139,59.0299238 84.5334216,60.2410784 83.53725,61.23725 C82.5410784,62.2334216 81.3478403,63.0002473 79.9575,63.53775 C78.5671597,64.0752527 77.0263418,64.344 75.335,64.344 C73.6293248,64.344 72.077757,64.0752527 70.68025,63.53775 C69.282743,63.0002473 68.0787551,62.2334216 67.06825,61.23725 C66.0577449,60.2410784 65.2765861,59.0299238 64.72475,57.60375 C64.1729139,56.1775762 63.897,54.5758422 63.897,52.7985 C63.897,51.0354912 64.1729139,49.4480904 64.72475,48.03625 C65.2765861,46.6244096 66.0577449,45.4240049 67.06825,44.435 C68.0787551,43.4459951 69.282743,42.686336 70.68025,42.156 C72.077757,41.625664 73.6293248,41.3605 75.335,41.3605 Z M75.335,59.399 C76.8686743,59.399 77.997413,58.8579221 78.72125,57.77575 C79.445087,56.6935779 79.807,55.0488444 79.807,52.8415 C79.807,50.6341556 79.445087,48.9930054 78.72125,47.918 C77.997413,46.8429946 76.8686743,46.3055 75.335,46.3055 C73.7583255,46.3055 72.6045037,46.8429946 71.8735,47.918 C71.1424963,48.9930054 70.777,50.6341556 70.777,52.8415 C70.777,55.0488444 71.1424963,56.6935779 71.8735,57.77575 C72.6045037,58.8579221 73.7583255,59.399 75.335,59.399 Z M96.706,31.8145 L96.706,64 L90.041,64 L90.041,31.8145 L96.706,31.8145 Z M107.886,31.8145 L107.886,49.853 L108.875,49.853 C109.290669,49.853 109.605999,49.7920839 109.821,49.67025 C110.036001,49.5484161 110.250999,49.3441681 110.466,49.0575 L114.68,42.7795 C114.938001,42.4211649 115.231832,42.1524176 115.5615,41.97325 C115.891168,41.7940824 116.313997,41.7045 116.83,41.7045 L122.936,41.7045 L117.174,49.638 C116.629331,50.3546702 115.984337,50.942331 115.239,51.401 C115.568668,51.6446679 115.869665,51.9277484 116.142,52.25025 C116.414335,52.5727516 116.672332,52.9346647 116.916,53.336 L123.194,64 L117.174,64 C116.672331,64 116.242335,63.9175842 115.884,63.75275 C115.525665,63.5879158 115.224668,63.2976687 114.981,62.882 L110.767,54.9915 C110.566332,54.6331649 110.358501,54.4002505 110.1435,54.29275 C109.928499,54.1852495 109.606002,54.1315 109.176,54.1315 L107.886,54.1315 L107.886,64 L101.221,64 L101.221,31.8145 L107.886,31.8145 Z M134.503,41.3605 C136.194342,41.3605 137.73516,41.625664 139.1255,42.156 C140.51584,42.686336 141.709078,43.4459951 142.70525,44.435 C143.701422,45.4240049 144.475414,46.6244096 145.02725,48.03625 C145.579086,49.4480904 145.855,51.0354912 145.855,52.7985 C145.855,54.5758422 145.579086,56.1775762 145.02725,57.60375 C144.475414,59.0299238 143.701422,60.2410784 142.70525,61.23725 C141.709078,62.2334216 140.51584,63.0002473 139.1255,63.53775 C137.73516,64.0752527 136.194342,64.344 134.503,64.344 C132.797325,64.344 131.245757,64.0752527 129.84825,63.53775 C128.450743,63.0002473 127.246755,62.2334216 126.23625,61.23725 C125.225745,60.2410784 124.444586,59.0299238 123.89275,57.60375 C123.340914,56.1775762 123.065,54.5758422 123.065,52.7985 C123.065,51.0354912 123.340914,49.4480904 123.89275,48.03625 C124.444586,46.6244096 125.225745,45.4240049 126.23625,44.435 C127.246755,43.4459951 128.450743,42.686336 129.84825,42.156 C131.245757,41.625664 132.797325,41.3605 134.503,41.3605 Z M134.503,59.399 C136.036674,59.399 137.165413,58.8579221 137.88925,57.77575 C138.613087,56.6935779 138.975,55.0488444 138.975,52.8415 C138.975,50.6341556 138.613087,48.9930054 137.88925,47.918 C137.165413,46.8429946 136.036674,46.3055 134.503,46.3055 C132.926325,46.3055 131.772504,46.8429946 131.0415,47.918 C130.310496,48.9930054 129.945,50.6341556 129.945,52.8415 C129.945,55.0488444 130.310496,56.6935779 131.0415,57.77575 C131.772504,58.8579221 132.926325,59.399 134.503,59.399 Z"/>
  </g>
</svg>
